<?xml version="1.0" encoding="utf-8"?>
<!-- Generator: Adobe Illustrator 24.1.3, SVG Export Plug-In . SVG Version: 6.00 Build 0)  -->
<svg version="1.1" id="Layer_1" xmlns="http://www.w3.org/2000/svg" xmlns:xlink="http://www.w3.org/1999/xlink" x="0px" y="0px"
	 viewBox="0 0 1361.2 561.3" style="enable-background:new 0 0 1361.2 561.3;" xml:space="preserve">
<style type="text/css">
	.st0{fill:#5E465D;}
	.st1{fill:#706F6F;}
	.st2{fill:#1D1D1B;}
	.st3{fill:#FFFFFF;}
	.st4{fill:url(#Rectangle_24_1_);}
	.st5{fill:url(#Path_312_1_);}
	.st6{fill:url(#Rectangle_25_1_);}
	.st7{fill:url(#Path_313_1_);}
	.st8{fill:url(#Rectangle_26_1_);}
	.st9{fill:url(#Rectangle_27_1_);}
	.st10{fill:url(#Path_314_1_);}
	.st11{fill:url(#Rectangle_28_1_);}
	.st12{fill:url(#Rectangle_29_1_);}
	.st13{fill:url(#Path_315_1_);}
	.st14{fill:url(#Rectangle_30_1_);}
	.st15{fill:url(#Ellipse_9_1_);}
	.st16{fill:url(#Ellipse_10_1_);}
	.st17{fill:url(#Path_317_1_);}
	.st18{fill:url(#Path_318_1_);}
	.st19{fill:url(#Path_319_1_);}
	.st20{fill:#A1A1A1;}
	.st21{opacity:0.3;}
	.st22{fill:#2D2D2D;}
	.st23{fill:#A6A5A5;}
	.st24{fill:#1F1D1D;}
	.st25{opacity:0.23;}
	.st26{opacity:0.69;}
	.st27{fill:#FAC3C3;}
	.st28{opacity:0.37;}
	.st29{fill:#BFBFBF;}
	.st30{fill:#707070;}
	.st31{fill-rule:evenodd;clip-rule:evenodd;fill:#A1A1A1;}
	.st32{fill:#453614;}
	.st33{fill:#A6A6A6;}
	.st34{fill:#19A191;}
	.st35{fill:#565F6A;}
	.st36{fill:#4C545F;}
	.st37{fill:#2D313B;}
	.st38{fill:#48505B;}
	.st39{fill:#262B33;}
	.st40{fill:#3A404E;}
	.st41{enable-background:new    ;}
	.st42{fill:#06AFA3;}
	.st43{opacity:0.27;}
	.st44{fill:none;}
	.st45{fill:#02AFA3;}
</style>
<g>
	<g id="Group_27" transform="translate(282.599 -112.785)">
		<g id="Group_25" transform="translate(745 238.539)">
			<g id="Path_144" transform="translate(46.301 122.352)">
				<g id="Path_330">
					<path class="st32" d="M-83.9,24.6v15.3h-0.6V28.5c0-4,0-4-4.1-4c-25.1,0-50.1,0-75.2,0.1c-1.5,0-3-0.1-4.4-0.1
						c-0.7-0.6-1.6-1-2.5-1.2c-3-1.5-4.8-4.5-4.8-7.8c-0.1-1.3,0-2.5,0-3.8c0-3,0.1-3,3-3h72.2c0.6,0,1.7-0.3,1.9,0.4
						c0.4,0.8-0.6,1.3-1.2,1.8c-7.2,6.7-15.8,10.6-25.4,12.6c-0.6,0.1-1.3-0.1-1.7,0.6c0.3,0.3,0.8,0.4,1.2,0.3h38.4
						c0.8,0.1,1.7-0.1,2.5-0.4l0.7,0.2L-83.9,24.6z"/>
				</g>
			</g>
			<g id="Path_145" transform="translate(46.342 30.372)">
				<g id="Path_331">
					<path class="st32" d="M-168.7,8.7h0.9c0,0.1,0.1,0.2,0.1,0.3c2.4,0.3,4.7,0.4,7.1,0.3c9-0.1,17.9,0.3,26.9-0.2l0.5-0.4h2.1
						c1.1,1,2.5,0.9,3.8,0.9c10.4,1.6,19.8,5.5,27.5,12.7c0.5,0.5,1.4,0.8,1,1.7c-0.3,0.7-1.3,0.5-1.9,0.5h-72
						c-2.8,0-2.9-0.1-2.9-2.9v-3.8c0.2-3.9,1.8-6.7,5.5-8.2C-169.5,9.5-169,9.1-168.7,8.7z"/>
				</g>
			</g>
			<g id="Path_146" transform="translate(467.672 52.243)">
				<g id="Path_332">
					<path class="st33" d="M-147.2,20.8v32.9h-0.7c0.7-6.8,0.3-13.8,0.3-20.6c0.1-0.8-0.5-1.6-1.4-1.7h-5.8c-1.2,0-2,0.5-2,1.8v16.6
						c-0.1,1.9,1.4,3.6,3.3,3.8c1.9,0.4,3.8,0.4,5.6,0c0.4,3.4,0.4,6.9-0.1,10.3c-3.6,0.2-7.2,0.5-10.7-0.4c-4.8-1.1-7.8-4-8.9-8.8
						c-0.4-2.1-0.6-4.2-0.6-6.3V34c0-1.7-0.6-2.4-2.3-2.5c-5.2-0.3-5.2-0.4-5.2-5.6v-0.2c0-5.8-0.2-4.9,4.9-4.9c2,0,2.8-0.8,2.7-2.8
						c-0.1-2.3,0-4.6,0-6.9c-0.1-1.7,0.6-2.5,2.3-2.4c2.2,0.1,4.3,0.1,6.6,0c1.7-0.1,2.4,0.6,2.4,2.4c-0.1,2.6,0,5.2,0,7.8
						c0,1.3,0.6,1.9,1.9,1.9c2.3,0,4.6,0,6.9-0.1L-147.2,20.8z"/>
				</g>
			</g>
			<g id="Path_147" transform="translate(138.013 88.531)">
				<g id="Path_333">
					<path class="st34" d="M181.8,17.4h0.7c0.3,4.1,0.1,8.1,0.1,12.3v24.1c0,4,0,4,4.1,4h6.7c0.8-0.1,1.5,0.1,2.1,0.6
						c-1,0.5-2.1,0.6-3.2,0.5c-2.3,0-4.6,0.1-7,0c-1.9-0.1-2.9,0.7-2.8,2.8c0.1,3.4,0,6.9,0,10.3c0,0.7-0.1,1.5-0.1,2.7
						c-0.6-0.7-0.8-1.7-0.6-2.6c0-3.5-0.1-7,0-10.5c0-1.9-0.8-2.7-2.7-2.7h-314.2c-4.8,0-4.8,0-4.8,4.9v8.5c0,0.6,0.3,1.4-0.6,2.1
						c-0.3-1.3-0.4-2.7-0.3-4.1v-8.5c0-2.5-0.5-3-3-3h-27.7c-1.4,0-2.8-0.1-4.2-0.2v-0.7l0.2-0.2c10.3,0,20.7,0.1,31,0.1
						c3.5,0,3.7-0.2,3.7-3.7V12.4c-0.1-1.3,0-2.5,0.3-3.8c0.5,0.9,0.8,1.9,0.8,3c-0.3,1.1-0.5,2.2-0.4,3.3v37.8c0,5,0,5,4.9,5h314
						c1.8,0.1,2.7-0.7,2.7-2.6c-0.1-9-0.1-18.2-0.1-27.2C182,24.5,182.1,20.9,181.8,17.4L181.8,17.4z"/>
				</g>
			</g>
			<g id="Path_148" transform="translate(90.931 14.678)">
				<g id="Path_334">
					<path class="st34" d="M229.6,58.3l-0.9-0.1c0-10.1,0.1-20.1,0.1-30.2c0-0.6,0.2-1.3-0.5-1.5s-0.9,0.5-1.4,0.8
						c-1,0.8-1.8,2.1-3.2,2.8c0.2-1.2,1-1.6,1.5-2.2c0.6-0.8,2.3-1.5,1.8-2.6c-0.4-0.9-1.9-0.4-3-0.4H-90.2c-0.4,0-0.9-0.1-1.1,0.4
						s0.3,0.7,0.6,1.1c0.9,1.1,2.3,1.9,2.8,3.5c-1.2-0.9-2.3-1.9-3.4-3c-0.8-0.8-1.4-0.6-1.4,0.6v43.9c-0.1,1,0,2,0.4,2.9
						c0,1-0.4,2.1-0.9,3c-0.3-1.2-0.4-2.5-0.3-3.8V28c-0.1-1.3-0.6-1.5-1.6-0.6c-1.1,1-1.9,2.3-3.8,3.1c0.6-1.9,2.2-2.8,3.1-4
						c0.3-0.4,0.8-0.6,0.6-1.2c-0.2-0.5-0.7-0.4-1.1-0.4h-28.7c-0.6,0-1.4-0.3-1.7,0.6c-0.2,0.6,0.5,0.9,0.8,1.4
						c0.9,1.1,2.3,1.8,2.9,3.7c-1.8-0.7-2.5-2-3.6-3c-0.4-0.3-0.6-0.8-1.2-0.6s-0.5,0.8-0.6,1.3v36.6c0.1,1.3,0,2.5-0.3,3.8
						c-0.7-0.8-1-1.8-0.9-2.9c0.4-0.9,0.5-1.9,0.5-2.9V28.2c0-3-0.2-3.2-3.3-3.2H-169c-1-0.1-2,0-2.9,0.5c-1.4,0-2.7,0.1-3.8-0.9
						c1.3-0.3,2.6-0.4,4-0.3h39c3.1,0,3.3-0.2,3.3-3.3c0-3.8,0.1-7.6,0.1-11.4c0.1-0.2,0.1-0.4,0.3-0.6c0.5,0.6,0.6,1.4,0.5,2.1v10
						c0,0.6-0.2,1.3,0.5,1.6s1-0.4,1.4-0.7c1-0.9,2-1.8,3.1-2.7c-0.4,1.5-1.8,2.3-2.7,3.3c-0.3,0.4-0.8,0.6-0.6,1.2s0.8,0.5,1.3,0.5
						h29c0.5,0,1.1,0.1,1.3-0.5s-0.4-0.8-0.6-1.2c-0.9-1.1-2.2-1.8-3-3.8c1.4,0.9,2.6,2,3.7,3.2c0.4,0.3,0.6,0.8,1.2,0.6
						c0.6-0.3,0.5-0.8,0.5-1.3v-9.7c0-0.8,0.1-1.7,0.1-3c0.6,0.7,0.8,1.7,0.6,2.6v10.2c0,0.5-0.1,1.1,0.5,1.3s0.8-0.3,1.2-0.6
						c1.1-1.3,2.4-2.3,3.8-3.2c-0.6,1.9-2,2.7-3,3.9c-0.3,0.4-0.8,0.6-0.6,1.3c0.2,0.5,0.7,0.4,1.1,0.4h313.6c1.1,0,2.7,0.6,3.1-0.5
						s-1.2-1.7-1.8-2.5c-0.5-0.6-1.1-1.2-2-2.2c1.6,0.3,2,1.2,2.7,1.7c0.8,0.6,1.5,2.2,2.4,1.8c1.1-0.5,0.5-2,0.6-3
						c0.1-2.9,0-5.6,0-8.5c0-0.6-0.3-1.4,0.5-2c0.6,0.7,0.4,1.7,0.4,2.4v7.8c0,5,0,5,5.1,5h5.5c0.8-0.1,1.6,0.1,2.3,0.5
						c-2,0.6-3.9,0.3-5.6,0.4c-1.5,0.1-3.1,0.1-4.6,0c-2-0.1-2.7,0.8-2.7,2.8C229.7,37.8,229.6,48.1,229.6,58.3z"/>
				</g>
			</g>
			<g id="Path_149" transform="translate(13.847 29.797)">
				<g id="Path_335">
					<path class="st34" d="M-136.2,9.2c-0.3,0.4-0.8,0.7-1.3,0.9c-0.4-0.2-0.8-0.3-1.2-0.4h-23.9c-0.4,0-0.9-0.1-1.1,0.4
						s0.3,0.7,0.6,1c1.1,1.2,2.3,2.3,3.4,3.5l-0.6,0.5c-0.6-0.6-1.3-1.3-1.9-1.8c-0.7-0.6-1.3-2-2.2-1.7c-1.1,0.5-0.6,1.8-0.6,2.9
						v98.9c0,0.4,0,0.9,0.5,1.1s0.7-0.3,1.1-0.6c1.1-0.9,1.9-2.3,3.9-3.2c-0.8,1.7-1.9,2.3-2.8,3.2c-0.5,0.6-1.4,0.9-1,1.7
						c0.3,0.7,1.2,0.5,1.9,0.5h20.5c0.9,0.1,1.9-0.1,2.7-0.6c0.9,0.2,1.7,0.7,2.5,1.2c-1,0.1-2.1,0.3-3.1,0.3h-34
						c-1,0.2-1.9,0-2.8-0.6c1.8-0.8,3.5-0.3,5.2-0.5c0.9-0.1,2.3,0.5,2.7-0.6c0.4-0.9-0.9-1.4-1.5-2.1c-0.9-0.8-1.7-1.7-2.1-2.9
						c1.3,0.9,2.5,2,3.7,3.1c0.4,0.3,0.6,0.8,1.2,0.6c0.6-0.3,0.5-0.8,0.5-1.3V14.6c0-1.1,0.6-2.7-0.6-3s-1.7,1.2-2.6,1.8
						c-0.6,0.5-1,1.3-2.2,1.5c0.6-1.7,2-2.5,3-3.6c0.3-0.4,0.8-0.6,0.7-1.2c-0.2-0.7-0.9-0.5-1.5-0.6c-2.2,0.1-4.3,0-6.5-0.3
						c0.6-0.5,1.4-0.7,2.1-0.6h34.8C-137.9,9-137,9.2-136.2,9.2z"/>
				</g>
			</g>
			<g id="Path_150" transform="translate(335.014 1.177)">
				<g id="Path_336">
					<path class="st35" d="M-175.6,16.7c1.3,0.9,2.2,1.8,3.5,1.5c1.1,0,2-0.8,2.1-1.9c0.3-1.1-0.4-2.1-1.4-2.4c0,0,0,0,0,0l0,0
						c-1.4-0.4-1.6-0.9-0.6-2c0.5-0.6,1.4-1.2,1-1.9c-0.4-0.8-1.5-0.4-2.3-0.5c-0.6-0.1-1.2-0.1-1.8-0.1c0.7-0.5,1.6-0.8,2.4-0.6
						c1,0,2.5-0.5,3,0.5c0.5,0.8-0.7,1.7-1.3,2.5c-0.8,1-0.2,1.4,0.6,1.8c1.3,0.7,1.8,2.2,1.2,3.5c-0.4,1.3-1.7,2.2-3.1,2
						C-173.9,19.2-175.2,18.2-175.6,16.7z"/>
				</g>
			</g>
			<g id="Path_151" transform="translate(152.506 1.408)">
				<g id="Path_337">
					<path class="st35" d="M-175.6,17c0.9,0.6,1.9,1,3,1c1.2,0.1,2.2-0.8,2.4-1.9c0.3-1-0.3-2.1-1.3-2.4c-0.1,0-0.1,0-0.2,0l0,0
						c-1.3-0.4-1.8-0.8-0.7-1.9c0.5-0.6,1.4-1.2,1-1.9c-0.4-0.9-1.5-0.4-2.3-0.5c-0.5,0-1-0.1-1.5-0.4c1.5-0.4,3.1-0.4,4.7-0.2
						c0.6,0.2,0.6,0.6,0.2,1.2s-0.7,1-1.1,1.6c-0.6,0.7-0.8,1.2,0.3,1.7c1.3,0.6,1.9,2,1.6,3.3c-0.2,1.2-1.2,2.2-2.5,2.3
						C-173.6,19-175,18.7-175.6,17z"/>
				</g>
			</g>
			<g id="Path_152" transform="translate(346.37 1.292)">
				<g id="Path_338">
					<path class="st35" d="M-168.5,8.9c-0.6,1-1.2,1.9-1.8,3c-0.9,0.9-0.9,2.4,0,3.3c0,0,0,0,0,0l0,0c0.8,1,1.4,2.1,1.8,3.2
						c-1.4-0.6-1.8-1.9-2.6-3c-0.6-0.9-1-0.9-1.7,0c-0.7,1.1-1.5,2.2-2.4,3.1c0.1-1.2,0.7-2.4,1.6-3.2c1-1,1.1-2.6,0.1-3.6
						c0,0-0.1-0.1-0.1-0.1c-0.7-1-1.4-2-2-3c1.4,0.3,1.6,1.1,2,1.8c1.6,2.4,1.6,2.4,3.1,0.1C-169.9,9.9-169.6,9.1-168.5,8.9z"/>
				</g>
			</g>
			<g id="Path_153" transform="translate(164.23 1.199)">
				<g id="Path_339">
					<path class="st35" d="M-175.1,8.7c0.6,1,1.4,2,2,3s1,0.9,1.7,0c0.6-1,1.4-2,2-3l0.6,0.4c-0.6,1-1.2,2.1-1.9,3
						c-0.8,0.8-0.8,2.2,0,3c0.8,1.1,1.5,2.2,1.9,3.5c-1.1-0.4-1.5-1.4-2-2.2c-1.3-1.9-1.3-1.9-2.6-0.1c-0.5,1-1.2,1.9-2,2.6
						c-0.1-0.8,0.2-1.6,0.8-2c2-2.2,1.9-4.2-0.1-6.4c-0.3-0.4-0.6-0.9-0.8-1.4L-175.1,8.7z"/>
				</g>
			</g>
			<g id="Path_154" transform="translate(0 79.207)">
				<g id="Path_340">
					<path class="st35" d="M-175.6,9.3c1.4,0.6,1.8,1.8,2.6,2.8c0.6,0.7,0.9,0.7,1.4,0c0.6-1,1.4-2,2.2-3.4c0.3,0.8,0.1,1.6-0.6,2.1
						c-2,2.1-1.8,4.1,0.1,6.2c0.6,0.5,0.9,1.4,0.6,2.1c-0.7-1.1-1.5-2.1-2.2-3.2c-0.6-0.9-1-1-1.6,0c-0.6,1.1-1.5,2.2-2.4,3.6
						c-0.2-0.9,0.1-1.9,0.8-2.6c1.7-1.9,2-3.9,0.1-5.8C-175,10.5-175.4,9.9-175.6,9.3z"/>
				</g>
			</g>
			<g id="Path_155" transform="translate(139.397 1.396)">
				<g id="Path_341">
					<path class="st35" d="M-172.9,18.2c-0.5-2-0.1-4.1-0.2-6.2c-0.1-2.3,0-2.3-2.5-2.3c0.7-0.8,1.7-1.2,2.8-1
						c0.9,0.4,0.5,1.5,0.5,2.3c0.1,2.4,0,4.8,0,7.2L-172.9,18.2z"/>
				</g>
			</g>
			<g id="Path_156" transform="translate(54.282 30.372)">
				<g id="Path_342">
					<path class="st34" d="M-141.6,8.9c-9,0.5-17.9,0.1-26.9,0.2c-2.4,0.2-4.8,0.1-7.1-0.3c0.1-0.1,0.1-0.2,0.2-0.2h33.5L-141.6,8.9
						z"/>
				</g>
			</g>
			<g id="Path_157" transform="translate(144.751)">
				<g id="Path_343">
					<path class="st36" d="M-175.6,21.1l5.5-12.5l0.6,0.3l-5.5,12.5L-175.6,21.1z"/>
				</g>
			</g>
			<g id="Path_158" transform="translate(87.885 30.28)">
				<g id="Path_344">
					<path class="st34" d="M-175.2,9l-0.4-0.3l0.8-0.1L-175.2,9z"/>
				</g>
			</g>
			<g id="Path_159" transform="translate(54.189 30.28)">
				<g id="Path_345">
					<path class="st34" d="M-175.3,8.7c0,0.1-0.1,0.2-0.2,0.2c0-0.1-0.1-0.2-0.1-0.3C-175.5,8.7-175.4,8.8-175.3,8.7z"/>
				</g>
			</g>
			<g id="Path_160" transform="translate(136.798 94.254)">
				<g id="Path_346">
					<path class="st34" d="M-175,51.8c0-12.3,0-24.6-0.1-36.9c0.1-1.1,0-2.3-0.5-3.3c-0.1-1,0.3-2.1,0.9-2.9c0.3,1.3,0.4,2.6,0.3,4
						c0,13,0.1,26.1,0.1,39.1l-0.2,0.2L-175,51.8z"/>
				</g>
			</g>
			<g id="Path_162" transform="translate(173.277 47.081)">
				<g id="Path_347">
					<path class="st33" d="M-175.6,49.9v-5.1c0.5-0.9,0.8-1.9,0.9-3c2.7-10,9.2-16.2,18.4-17.1c5.4-0.6,10.2,0.6,14.3,4.2
						c0.4,0.4,0.7,1.1,1.4,0.7c0.6-0.3,0.4-1,0.4-1.6V11.8c0-3,0.1-3.1,3-3.1h5.1c3,0,3,0.1,3,3.1v31.8c0,7.6-0.1,15,0,22.6
						c0,2-0.6,3-2.8,2.9c-1.9-0.1-3.8-0.1-5.7,0s-3-0.6-2.8-2.6c0-0.5,0.1-1.1-0.4-1.3c-0.5-0.3-0.7,0.3-1,0.5
						c-11.6,9.2-28,3.9-32.4-10.6c-0.2-0.6-0.4-1.4-0.6-2C-174.8,52-175.1,50.9-175.6,49.9z M-140.4,47.5c0-7.1-5-12.3-11.9-12.2
						c-6.9,0-11.8,5.1-11.9,12.1c0,7.1,5,12.2,12,12.2C-145.3,59.6-140.4,54.6-140.4,47.5z"/>
				</g>
			</g>
			<g id="Path_163" transform="translate(85.55 61.021)">
				<g id="Path_348">
					<path class="st32" d="M-123.3,22l0.1,1.7c-0.1,0.1,0,0.3,0,0.4v0.5l-0.6,0.1c-2.8-0.1-5.4-0.1-8.2-0.2h-35.3
						c-5.9,0-9.2-4.2-8.1-9.7c0.5-3.2,3.1-5.6,6.4-5.8c1.1-0.1,2.2-0.2,3.4-0.2c11.9,0,23.8,0,35.7-0.1c2.1,0,3.2,0.6,3.8,2.7
						c0.7,2.6,1.5,5.2,2,7.8C-124.4,20.1-124.1,21.3-123.3,22z"/>
				</g>
			</g>
			<g id="Path_164" transform="translate(46.426 91.578)">
				<g id="Path_349">
					<path class="st32" d="M-154.6,8.8c6.1,0,12.1-0.1,18.2,0c4.9,0.1,7.8,3.1,7.8,7.8s-3,7.7-7.9,7.7c-9.3,0.1-18.6,0-27.9,0
						c-3,0-5.9-0.1-8.9,0c-1.6,0-2.3-0.6-2.2-2.2c0.1-3.7,0.1-7.3,0-11c-0.1-1.8,0.6-2.5,2.4-2.5C-167,8.9-160.8,8.8-154.6,8.8
						L-154.6,8.8z"/>
				</g>
			</g>
			<g id="Path_165" transform="translate(109.025 91.578)">
				<g id="Path_350">
					<path class="st32" d="M-146.8,9.7c0,0.6,0,1.1-0.1,1.7c-0.7,0.8-1,1.8-0.9,2.9c-0.6,2.9-1.4,5.8-2.3,8.6
						c-0.3,1.1-1.3,1.9-2.5,1.8c-5.2-0.1-10.4,0.1-15.6-0.1c-4.6-0.1-7.4-3.2-7.4-7.8s2.8-7.7,7.4-7.8c5.8-0.2,11.6,0,17.5-0.1
						c1.1,0,2.2-0.1,3.3-0.2L-146.8,9.7z"/>
				</g>
			</g>
			<g id="Path_166" transform="translate(46.342 61.257)">
				<g id="Path_351">
					<path class="st32" d="M-166.2,8.7c2.2,0,4.5-0.1,6.7,0c4.2,0.2,7,2.9,7.2,7c0.3,4.7-2,7.9-6.4,8.4c-5.1,0.6-10.2,0.2-15.4,0.2
						c-1.2,0-1.6-0.6-1.6-1.8V10.7c0-1.5,0.6-2,2-2L-166.2,8.7z"/>
				</g>
			</g>
			<g id="Path_167" transform="translate(137.274 76.899)">
				<g id="Path_352">
					<path class="st34" d="M-175,24.3l-0.6-1V8.7l0.6-0.1C-174.6,13.9-174.6,19.1-175,24.3z"/>
				</g>
			</g>
			<g id="Path_168" transform="translate(417.637 63.141)">
				<g id="Path_353">
					<path class="st33" d="M-175.6,40V13.6c0-3.8,0-3.8,3.9-3.8c1.4,0,2.9,0.1,4.2,0c2.1-0.2,3.4,0.5,3.1,2.9
						c-0.1,0.4-0.1,0.9,0.4,1.1s0.7-0.3,1-0.6c8.6-6.8,19.8-6,27.3,1.9c9.1,9.7,8,26.3-2.3,34.5c-7.3,6-17.8,5.9-25-0.2
						c-0.3-0.3-0.6-0.7-1-0.6c-0.6,0.3-0.5,1-0.5,1.5v16.9c0,2.7-0.2,2.9-2.9,2.9h-5.3c-2.9,0-3-0.2-3-3L-175.6,40L-175.6,40z
						 M-140.5,31.3c0-7-5-12.1-11.9-12.1c-7,0-11.9,5.1-11.9,12.3c0,7,5,12.1,11.9,12.1S-140.5,38.5-140.5,31.3z"/>
				</g>
			</g>
			<g id="Path_169" transform="translate(227.77 62.959)">
				<g id="Path_354">
					<path class="st33" d="M-147.7,36.2h-13.5c-0.8,0-1.8-0.4-2.3,0.6c-0.4,0.8,0.3,1.6,0.7,2.3c2.3,4,7.9,6,13.5,4.9
						c2.2-0.3,4.2-1.3,5.8-2.8c0.6-0.9,1.9-1.1,2.7-0.5c0,0,0.1,0.1,0.1,0.1l0.1,0.1c1.8,1.1,3.6,2.2,5.4,3.1
						c1.7,0.8,1.5,1.7,0.5,2.9c-3.6,4.1-8.7,6.7-14.1,7.2c-12.6,1.6-23.2-5.1-26.1-16.3c-2.5-9.6,0.9-19.8,8.6-25
						c7.8-5.4,18.6-5.4,26-0.1c7.3,5.4,9.8,12.7,9,21.5c-0.1,1.5-0.9,1.8-2.3,1.8C-138.2,36.1-142.9,36.2-147.7,36.2L-147.7,36.2z
						 M-153.4,27.6h8.9c2.1,0,2.3-0.5,1.6-2.4c-1.7-4-5.4-6.3-10.1-6.3c-4.9,0-8.8,2.5-10.4,6.6c-0.6,1.6-0.2,2.2,1.5,2.2
						C-159.1,27.6-156.2,27.6-153.4,27.6L-153.4,27.6z"/>
				</g>
			</g>
			<g id="Path_170" transform="translate(316.413 63.054)">
				<g id="Path_355">
					<path class="st33" d="M-151.4,54.3c-12.2,0-20.9-6.6-23.4-16.8c-3.4-12.1,3.6-24.6,15.7-28c8.1-2.3,16.8,0.1,22.6,6.2
						c3.6,3.8,3.5,4-0.9,6.6c-0.4,0.2-0.7,0.5-1.1,0.6c-1.3,0.7-2.5,1.8-3.9,2c-1.8,0.4-2.1-1.8-3.2-2.7c-4.9-3.8-11.9-3.2-16.1,1.4
						c-4.1,5-3.7,12.3,1,16.8c4.5,4.1,12.1,3.9,16.1-0.6c1.6-1.8,2.7-1.8,4.5-0.6c1.5,1,3.1,1.9,4.8,2.7c1.8,0.9,1.8,1.9,0.6,3.4
						C-139.3,51.3-145.5,54.1-151.4,54.3z"/>
				</g>
			</g>
			<g id="Path_171" transform="translate(276.28 63.046)">
				<g id="Path_356">
					<path class="st33" d="M-158.5,54.3c-6.1-0.2-12.1-2-16.2-8c-1.4-2-1.4-2.2,0.9-3.5c2-1.1,4.1-2.2,6.1-3.4
						c0.9-0.6,1.5-0.4,2,0.6c2.3,3.6,6.7,5.2,10.7,3.9c1.5-0.5,2.8-1.2,3-2.9c0.3-1.8-1-2.8-2.4-3.3c-1.8-0.7-3.7-1.3-5.6-1.9
						c-2.5-0.7-4.9-1.6-7.3-2.7c-9.4-4.5-8-15.9-2.2-20.6c7.6-6.1,21-4.4,26.8,3.3c1.1,1.5,1.1,2.4-0.7,3.2c-1.9,0.9-3.9,2-5.7,3.1
						c-0.7,0.6-1.7,0.6-2.3-0.1c0,0,0-0.1-0.1-0.1c-0.1-0.1-0.2-0.3-0.3-0.4c-2-2.7-4.8-3.3-7.9-2.7c-1.5,0.2-2.7,1.3-3,2.9
						c-0.2,1.7,1,2.6,2.3,3.1c2.3,0.9,4.6,1.7,7,2.2c2.3,0.6,4.5,1.5,6.6,2.6c6,3.5,8,11.1,4.5,17.1c-0.8,1.5-2,2.7-3.3,3.7
						C-149.1,53.3-153.3,54.3-158.5,54.3z"/>
				</g>
			</g>
			<g id="Path_172" transform="translate(364.463 63.562)">
				<g id="Path_357">
					<path class="st33" d="M-164.4,15.3c1.7-1.5,2.9-3.1,4.5-4.3c1.9-1.2,4-2,6.3-2.3c1.5-0.2,2.3,0.2,2.3,1.8v8.2
						c0,1.4-0.6,1.9-1.9,2.1c-7.8,0.6-11.1,4.2-11.2,12.2c0,5.6-0.1,11.3,0,16.9c0,1.8-0.6,2.8-2.5,2.6c-2-0.1-4.1-0.1-6.1,0
						c-2,0.1-2.6-0.7-2.6-2.6c0.1-7.1,0-14.2,0-21.3c0-5.5,0.1-11.1,0-16.7c0-1.9,0.6-2.7,2.6-2.6c2.2,0.1,4.3,0.1,6.6,0
						c1.4,0,2.1,0.6,2,2L-164.4,15.3z"/>
				</g>
			</g>
			<g id="Path_173" transform="translate(396.405 64.244)">
				<g id="Path_358">
					<path class="st33" d="M-175.6,30.3c0-6.4,0.1-12.6,0-19c0-1.9,0.6-2.7,2.6-2.6c2.1,0.1,4.2,0.1,6.4,0c1.5,0,2.2,0.5,2.2,2v39
						c0,1.5-0.6,2-2,2c-2.2,0-4.5-0.1-6.7,0c-1.8,0.1-2.3-0.7-2.3-2.4C-175.6,43.1-175.6,36.6-175.6,30.3z"/>
				</g>
			</g>
			<g id="Path_174" transform="translate(396.396 46.981)">
				<g id="Path_359">
					<path class="st33" d="M-175.6,14.5c0-1.1,0.1-2.2,0-3.4c-0.1-1.7,0.6-2.5,2.3-2.4c2.2,0.1,4.5,0,6.7,0c1.4,0,2.1,0.5,2,1.9
						c-0.1,2.5-0.1,5.1,0,7.6c0.2,1-0.5,1.9-1.5,2c-0.2,0-0.4,0-0.6,0h-6.9c-1.6,0-2.1-0.6-2-2.2C-175.6,16.9-175.6,15.7-175.6,14.5
						z"/>
				</g>
			</g>
			<g id="Path_175" transform="translate(137.758 76.16)">
				<g id="Path_360">
					<path class="st37" d="M-175.5,9c-0.1-0.1-0.1-0.3,0-0.4V9z"/>
				</g>
			</g>
		</g>
		<g id="Group_26" transform="translate(747.588 438.726)">
			<g id="Path_199" transform="translate(24.419)">
				<g id="Path_361">
					<path class="st34" d="M-174.9,52V29.5l0.2-2.6c1.2-0.4,1.3-1.5,1.3-2.4V10.6c0-0.8,0.1-1.9-1.1-1.9s-1.1,1.1-1.1,1.9v13.5
						c0,1.9,0.8,3,3,3c7.8-0.1,15.5-0.1,23.3,0c1.8,0,2.7-0.8,2.8-2.7V10.4c0-0.7,0-1.8-1-1.8c-1.2-0.1-1.2,0.9-1.2,1.8v13.9
						c0,1.8,0.8,2.8,2.8,2.7H70.3c4.7,0,4.8,0,4.8-4.8V10.8c0-0.8,0.3-2.1-1.1-2.1s-1.1,1.3-1.1,2.1c0,4.3-0.1,8.8,0,13.1
						c0,2.7,0.6,3.1,3.3,3.1h22.2c2.9,0,3.3-0.5,3.3-3.3V10.8c0-0.8,0.3-2.1-1.1-2.1c-1.3,0-1.1,1.3-1.1,2.1c0,4.4-0.1,8.9,0,13.3
						c0,2.6,1.4,4,3.9,4c4.5,0.1,9,0,13.5,0c0.6,0,1.5,0.1,1.5-0.7c0-1-0.9-0.8-1.6-0.8c-4.3,0-8.6-0.1-12.9,0
						c-2.6,0-3.1,0.7-3.1,3.3v21.5c0,2.6,0.6,3.3,3.2,3.3c4.2,0.1,8.5,0,12.6,0c0.8,0,1.9,0.1,1.9-1.1s-1.1-1.1-1.9-1.1
						c-4.3,0-8.6-0.1-12.9,0c-2.3,0-3,0.7-3,3.1v49.2c0,2,0.7,3,2.8,3.1h13.3c0.7,0,1.8,0,1.8-1.1c0-1.2-1-1.2-1.8-1.2h-13.1
						c-1.9,0-3,0.9-3,3c0.1,7.6,0.1,15.2,0,22.8c0,1.9,0.7,3,2.7,3c4.5,0.1,9,0,13.5,0c0.7,0,1.7-0.1,1.7-1.2s-1-1.1-1.8-1.1
						c-4.5,0-9-0.1-13.5,0c-2.1,0-3.9,1.7-3.9,3.9v0.1c-0.1,4.8-0.1,9.6,0,14.4c0,0.7,0,1.8,1.1,1.8s1.1-0.9,1.1-1.7v-14.1
						c0-1.8-0.9-2.7-2.8-2.7H75.4c-1.8,0-2.8,0.8-2.8,2.7v14.1c0,0.7,0,1.7,1.1,1.8c1.1,0,1.1-0.9,1.1-1.7v-14.1
						c0.2-1.4-0.8-2.6-2.2-2.8c-0.2,0-0.4,0-0.6,0h-216.9c-3.7,0-4.2,0.4-4.2,4.1v11.8c0,0.6,0,1.1,0.1,1.7c0,0.6,0.5,1,1,1h0.1
						c0.5,0,0.9-0.4,0.9-0.9c0.1-0.8,0.1-1.7,0.1-2.5v-12.3c0-1.8-0.8-2.9-2.9-2.9c-7.8,0.1-15.6,0.1-23.4,0.1
						c-1.9,0.3-1.8-1.2-1.8-2.4v-23.7l-0.1-0.7c0.1-0.3,0.1-0.6,0.1-0.8C-174.9,88.2-174.9,70.1-174.9,52z M74.2,28h-0.5
						c-0.9,0-1.8-0.1-2.8-0.1h-216.2c-0.8,0-1.7,0.1-2.5,0.1h-0.5c-8.1,0-16.2,0-24.3-0.1c-1.1,0-1.8,0.3-1.8,1.5
						c0.1,8-0.2,16.2,0.2,24.2V54c-0.1,0.1-0.1,0.2-0.1,0.4v52.2c0,0.1,0,0.2,0.1,0.2v0.5c0,8.1-0.1,16.3-0.2,24.5
						c0,1.2,0.5,1.6,1.7,1.6c8.1-0.1,16.2-0.1,24.3-0.1h0.6c0.9,0,1.8,0.1,2.8,0.1H70.6c1,0,1.9-0.1,3-0.1h0.6c8,0,16,0,24,0.1
						c1.2,0,1.8-0.3,1.8-1.7c-0.1-8.1-0.1-16.2-0.1-24.5v-0.5c0-0.6,0.1-1.1,0.1-1.7V55.8c0-0.6-0.1-1.3-0.1-1.8v-0.5
						c0-8,0.1-16.2,0.1-24.2c0-1.2-0.6-1.6-1.7-1.6C90.4,28,82.2,28,74.2,28L74.2,28z"/>
				</g>
			</g>
			<g id="Path_200" transform="translate(372.913 0.191)">
				<g id="Path_362">
					<path class="st34" d="M-60.1,27.5c0.7-0.7,1.1-1.7,1-2.7V10.4c0-0.6,0.3-1.7-0.7-1.7s-0.7,1-0.7,1.7c0,4.7-0.1,9.4,0,14.1
						c0,2.9,1.2,4.1,4,4.1c4.3,0.1,8.6,0,12.9,0c0.6,0,1.7,0.3,1.7-0.7c0-1.1-1.1-0.8-1.8-0.8c-4.3,0-8.6-0.1-12.9,0
						c-2.5,0-3,0.6-3,3v21.5c0,2.5,0.5,3,2.9,3.1c4.3,0.1,8.8,0,13.1,0c0.6,0,1.5,0.2,1.6-0.6c0.1-1.1-0.9-0.8-1.6-0.8h-13.1
						c-1.9,0-3,0.7-2.9,2.9c0.1,16.1,0.1,32.1,0,48.2c0,2,0.9,2.8,2.8,2.8H-44c0.6,0,1.7,0.2,1.6-0.8c0-0.8-0.9-0.7-1.5-0.7H-57
						c-1.8,0-2.6,0.8-2.6,2.8c0.1,7.6,0.1,15.2,0,22.8c0,1.4,0.4,2.4,1.9,2.5c5.1,0.1,10.2,0,15.2,0c0.2,0,0.3-0.3,0.5-0.4
						c-0.3-0.8-0.9-0.6-1.5-0.6c-4.3,0-8.8-0.1-13.1,0c-3,0-3.9,1-4,4c-0.1,4,0,8,0,12c0,0.6-0.3,1.7,0.8,1.6c0.8,0,0.6-0.9,0.6-1.6
						v-12.5c0-1.8-0.7-2.8-2.8-2.8c-7.6,0.1-15,0.1-22.6,0c-1.9,0-2.7,0.8-2.8,2.7v12.3c0,0.6-0.2,1.5,0.7,1.5
						c0.8,0,0.7-0.9,0.7-1.5v-12.3c0-1.8-0.7-2.7-2.7-2.7c-13.6,0.1-27.1,0.1-40.8,0c-1.9,0-2.8,0.8-2.8,2.6v12.5
						c0,0.6-0.1,1.3,0.7,1.3c0.9,0,0.8-0.8,0.8-1.4v-12.5c0-1.8-0.9-2.5-2.7-2.5h-22.6c-1.1,0-2.1,0.2-2.2,1.4
						c-0.5,5.1-0.1,10.2-0.2,15.3c1.2-0.2,1-0.8,1-1.4v-12.5c0-2.9-0.9-3.8-3.8-3.8c-4.4-0.1-8.9,0-13.3,0c-0.5,0-1-0.2-1.3,0.5
						c0.2,0.7,0.7,0.6,1.2,0.6h13.3c2.7,0,3-0.5,3-3c0-7.8,0-15.8-0.1-23.6V106c0-9.3,0.1-18.7,0.1-28.1c0-7.9-0.1-15.9-0.1-23.8
						v-0.6c0-8.1,0-16.2,0.1-24.3c0.1-1.1-0.6-2.2-1.8-2.4h-0.6c-4.7-0.1-9.4,0-14.1,0c-0.6,0-1.3,0-1.3,0.8c0,0.7,0.7,0.7,1.3,0.7
						h14.1c1.6,0.1,2.9-1.1,3-2.7v-0.2c0.1-5.4,0.1-11,0.1-16.4c0-0.2-0.2-0.3-0.4-0.5c-0.7,0.2-0.6,0.7-0.6,1.2v14.8
						c-0.1,1,0.3,2,1,2.7c0,0.3,0,0.7-0.1,1c0.1,8.4,0.1,16.9,0.2,25.3v53.3c0,8,0,16.1-0.1,24.1c0,1.3,0.5,1.8,1.8,1.8
						c7.8-0.1,15.8-0.1,23.6-0.1h46c7.8,0,15.8,0,23.6,0.1c1.3,0,1.8-0.5,1.8-1.8c-0.1-8-0.1-16.1-0.1-24.1v-0.8
						c0-7.8,0.1-15.6,0.1-23.4c0-9.5-0.1-19-0.1-28.5v-0.5c0.1-8.6,0.2-17.1,0-25.7L-60.1,27.5z"/>
				</g>
			</g>
			<g id="Path_201" transform="translate(372.913 45.198)">
				<g id="Path_363">
					<path class="st34" d="M-158.1,61.2v0.8h-17.5v-0.8h8c1.1,0,2.3,0.2,3.1-0.7l0.1-0.1c0.4-1.1,0.5-2.3,0.4-3.5
						c0-14.3,0-28.7-0.1-43c0-1,1.1-3-1.5-3c-0.3-3-2.5-1.3-3.8-1.5c-2-0.3-4.2-0.1-6.3-0.4c5.8-0.7,11.6-0.3,17.4-0.2v0.6
						c-1.4,0.1-2.9-0.5-4.1,0.7l-0.2,0.2c-0.9,0.3-0.7,1.1-0.7,1.8v46.3c0,2,0.9,3,3,3C-159.5,61.3-158.8,61.2-158.1,61.2z"/>
				</g>
			</g>
			<g id="Path_202" transform="translate(417.501 19.023)">
				<g id="Path_364">
					<path class="st34" d="M-175.6,8.7h44.3v0.6h-44.3V8.7z"/>
				</g>
			</g>
			<g id="Path_203" transform="translate(37.529 2.683)">
				<g id="Path_365">
					<path class="st36" d="M-173,9c-0.3,0.1-0.6,0.1-0.7,0.2c-0.6,0-1.1,0.2-1.2,0.9c-0.1,0.8,0.6,0.8,1.1,0.9
						c0.9,0,1.6,0.7,1.8,1.6c0.2,0.7-0.2,1.5-0.8,1.8c-0.9,0.5-2,0.4-2.7-0.4c0.6-0.6,0.9,0.1,1.4,0.1c0.7,0.1,1.3-0.4,1.4-1
						c0.1-0.5-0.1-1.1-0.6-1.3h-0.3c-1.5,0-2-0.6-1.8-2c0.4-1.7,1.7-0.7,2.4-1.1L-173,9z"/>
				</g>
			</g>
			<g id="Path_204" transform="translate(371.714 29.828)">
				<g id="Path_366">
					<path class="st38" d="M-175.6,13.8c0.6-0.5,0.8,0.2,1.3,0.2c0.7,0.1,1.5,0,1.7-0.8c0.2-0.6-0.2-1.2-0.7-1.4
						c-0.1,0-0.3-0.1-0.4,0c-1.3-0.1-1.9-0.6-1.7-1.9c0.4-1.7,1.6-1.1,2.6-1.1c0,0.6-0.3,0.6-0.6,0.6c-0.6,0.1-1.2,0.1-1.2,0.8
						c-0.1,0.8,0.6,0.8,1.1,0.9c1,0.1,1.8,1,1.8,2c0,0.8-0.6,1.2-1.2,1.5C-173.9,15.1-175,14.7-175.6,13.8z"/>
				</g>
			</g>
			<g id="Path_205" transform="translate(402.108 2.591)">
				<g id="Path_367">
					<path class="st38" d="M-172.7,8.8c-0.6,0.7-1.8,0.2-1.9,1.3s0.9,0.8,1.5,1.2c1.1,0.6,1.7,1.4,1,2.5c-0.8,1.4-2,1.3-3.3,0.4
						c0.5-0.6,0.9,0,1.3,0c0.8,0,1.4-0.3,1.5-1.1c0.1-0.6-0.3-1.1-0.9-1.2h-0.3c-1.4,0-1.9-0.6-1.7-1.9
						C-175,8.1-173.8,8.7-172.7,8.8z"/>
				</g>
			</g>
			<g id="Path_206" transform="translate(7.296 28.382)">
				<g id="Path_368">
					<path class="st36" d="M-175.5,13.8c0.4,0.2,0.7,0.3,1.1,0.4c0.6,0.2,1.3-0.2,1.5-0.8c0,0,0,0,0,0c0-0.1,0-0.2,0.1-0.3
						c0.1-0.6-0.3-1.1-0.8-1.3h-0.2c-1-0.1-2-0.1-1.8-1.7c0.3-1.7,1.4-1.5,2.7-1.4c-0.6,0.8-1.9,0.1-1.9,1.4c0,1.2,1.1,0.8,1.8,1.2
						c1.1,0.6,1.6,1.5,0.8,2.6C-173.2,15.2-174.4,14.9-175.5,13.8z"/>
				</g>
			</g>
			<g id="Path_207" transform="translate(316.97 107.99)">
				<g id="Path_369">
					<path class="st38" d="M-175.6,13.9c0.5-0.5,0.7,0,1,0.1c0.8,0.3,1.7,0.3,1.9-0.6c0.3-1-0.5-1.4-1.3-1.5
						c-1.9-0.2-1.7-1.5-1.2-2.6s1.7-0.6,2.7-0.4c-0.5,0.8-1.1,0.4-1.6,0.6c-0.4,0-0.7,0.4-0.6,0.7c0,0.5,0.1,0.8,0.6,0.9
						c0.2,0,0.3,0,0.5,0.1c0.9,0.1,1.7,0.8,1.8,1.8c0.1,0.8-0.4,1.5-1.2,1.8C-174,15.2-175.1,14.8-175.6,13.9z"/>
				</g>
			</g>
			<g id="Path_208" transform="translate(394.989 2.548)">
				<g id="Path_370">
					<path class="st38" d="M-172.1,14.3c-1.8,0.7-2.9,0.3-3.3-1.4c-0.6-1.9,0.3-4,1.8-4.2c1.8-0.3,2.4,0.8,2.7,2.2
						c0.3,1,0,2.1-0.6,3l-0.4-0.3c0.5-0.9,0.5-2,0.2-3c-0.3-0.9-1-1.7-2-1c-1.2,0.7-1.1,2-0.8,3.1c0,0.9,0.8,1.5,1.6,1.5
						c0.2,0,0.5-0.1,0.7-0.2L-172.1,14.3z"/>
				</g>
			</g>
			<g id="Path_209" transform="translate(0 28.427)">
				<g id="Path_371">
					<path class="st38" d="M-175.1,13.7c-0.6-1.1-0.7-2.4-0.2-3.6c0.3-1,1.4-1.6,2.5-1.3c1.4,0.4,2.2,2.4,1.6,4.2
						c-0.6,1.7-1.5,2.1-3.3,1.4l0.4-0.4c0.3,0.1,0.6,0.3,0.8,0.2c1.7-0.4,1.8-1.7,1.7-3c-0.1-0.9-0.5-1.9-1.6-1.8
						c-1.5,0.1-1.6,1.4-1.6,2.5c0,0.5,0.1,1,0.2,1.5L-175.1,13.7z"/>
				</g>
			</g>
			<g id="Path_210" transform="translate(391.284 19.023)">
				<g id="Path_372">
					<path class="st34" d="M-175.6,9.7c0-0.3,0-0.7,0.1-1h25.3v0.6c-7.7,0-15.2,0-22.9,0.1C-173.9,9.2-174.8,9.3-175.6,9.7z"/>
				</g>
			</g>
			<g id="Path_211" transform="translate(30.441 2.579)">
				<g id="Path_373">
					<path class="st38" d="M-174.9,13.9c-0.8-1.1-1-2.6-0.4-3.8c0.3-1.1,1.4-1.7,2.5-1.4c0,0,0,0,0.1,0c0.7,0.2,1.3,0.8,1.5,1.5
						c0.6,1.3,0.4,2.7-0.5,3.8c-0.6,0.8-1.7,1.1-2.6,0.6l0.4-0.4c1.4-0.1,2.4-1.3,2.3-2.7c0,0,0,0,0,0c0-0.4-0.2-0.8-0.4-1.1
						c-0.3-0.6-0.6-1.1-1.4-1c-0.7,0-1.2,0.5-1.4,1.1c-0.3,1-0.2,2.1,0.2,3.1L-174.9,13.9z"/>
				</g>
			</g>
			<g id="Path_212" transform="translate(372.267 68.505)">
				<g id="Path_374">
					<path class="st36" d="M-175.6,14.4c1.3-1.8,1.9-3.5,0.2-5.4c1.5,2,2.5,1.3,3.7-0.3c-1.8,1.9-1.5,3.7,0.1,5.6
						C-173.1,12.3-174.3,12.1-175.6,14.4z"/>
				</g>
			</g>
			<g id="Path_213" transform="translate(462.644 19.023)">
				<g id="Path_375">
					<path class="st34" d="M-149.8,8.7l-0.6,0.6h-25.2V8.7H-149.8z"/>
				</g>
			</g>
			<g id="Path_214" transform="translate(409.193 3.053)">
				<g id="Path_376">
					<path class="st36" d="M-171.8,8.7c-1.6,1.8-1.6,3.5,0,5.3c-1.4-1.8-2.6-2.2-3.8,0.1c1-1.8,1.8-3.5,0.3-5.3l1.3,1.5
						C-173,10-173,8.8-171.8,8.7z"/>
				</g>
			</g>
			<g id="Path_215" transform="translate(43.992 2.591)">
				<g id="Path_377">
					<path class="st36" d="M-172.7,12.5c-1.5-0.4-1.4,1.4-2.9,1.9c1.4-1.9,2.1-3.8,0.1-5.6c1.4,1.6,2.6,2.4,3.7-0.2
						C-171.7,10.2-173.5,11.1-172.7,12.5L-172.7,12.5z"/>
				</g>
			</g>
			<g id="Path_217" transform="translate(13.434 28.347)">
				<g id="Path_378">
					<path class="st36" d="M-172.6,12.6c-1.5-0.4-1.3,1.6-3,1.8c1.9-1.9,1.9-3.7,0.3-5.4c1.2,0.3,1.2,1.4,2,1.8l1.8-2.1
						C-171.4,10.3-173.4,11.1-172.6,12.6L-172.6,12.6z"/>
				</g>
			</g>
			<g id="Path_218" transform="translate(461.229 0.283)">
				<g id="Path_379">
					<path class="st34" d="M-174.1,27.4V28l-0.2,0.2h-0.6L-175,28v-0.6c0.7-0.7,1.1-1.7,1-2.7V10.4c0-0.6,0.3-1.7-0.7-1.8
						c-1.1,0-0.8,1.1-0.8,1.8v13.9C-175.6,25.6-175.4,26.8-174.1,27.4z"/>
				</g>
			</g>
			<g id="Path_219" transform="translate(416.564 0.37)">
				<g id="Path_380">
					<path class="st34" d="M-175.5,28v-0.6c1-0.5,1.6-1.6,1.5-2.8V10.2c0-0.6,0.3-1.7-0.8-1.6c-0.9,0.1-0.7,1.1-0.7,1.8v14.3
						c-0.1,1,0.3,2,1,2.7V28l-0.1,0.2h-0.6L-175.5,28z"/>
				</g>
			</g>
			<g id="Path_220" transform="translate(376.236 29.825)">
				<g id="Path_381">
					<path class="st38" d="M-175.6,8.9c1.2,1.8,2.2,2.4,3.4-0.3c-0.1,1.8-2,2.9-0.5,4.5c-0.8-0.3-1.6-0.8-2.4,0.2
						C-173.5,11.5-175.4,10.3-175.6,8.9z"/>
				</g>
			</g>
			<g id="Path_221" transform="translate(323.801 108.016)">
				<g id="Path_382">
					<path class="st36" d="M-175.6,8.7c1.3,0.9,1.4,2.4,2.8,1.9c0.6-0.2,0.7-0.6,0.5-1.4c-1,1.5-1,1.5,0.6,5.1
						C-173.5,12.7-174.8,10.8-175.6,8.7z"/>
				</g>
			</g>
			<g id="Path_222" transform="translate(292.229 135.618)">
				<g id="Path_383">
					<path class="st36" d="M-175,13.5c1.1-1.2,1-3-0.2-4c0,0-0.1-0.1-0.2-0.1c-0.1-0.1-0.2-0.2-0.3-0.2c0.4-0.2,0.9-0.1,1.1,0.3
						c0,0,0,0.1,0.1,0.1c0.2,0.3,0.5,0.6,0.6,0.8c1-0.2,0.9-1.6,2.2-1.8C-172.5,10.4-173.6,12-175,13.5z"/>
				</g>
			</g>
			<g id="Path_223" transform="translate(285.398 137.825)">
				<g id="Path_384">
					<path class="st38" d="M-173.7,8.7c0.9-0.1,1.7,0.5,1.7,1.4c0,0,0,0.1,0,0.1c0.2,0.7-0.2,1.5-0.8,1.8c-0.9,0.6-2.2,0.4-2.9-0.6
						c1.1-0.1,2.4,0.7,2.9-0.6c0.3-0.8-0.3-1.3-0.9-1.7L-173.7,8.7z"/>
				</g>
			</g>
			<g id="Path_224" transform="translate(309.766 108.126)">
				<g id="Path_385">
					<path class="st38" d="M-174.6,14.2c-1-1-1.3-2.6-0.7-3.9c0.6-1.8,1.8-2.1,3.5-1l-0.4,0.4c-1.8-0.8-2.4,0-2.7,1.6
						c-0.1,0.9,0.1,1.8,0.6,2.6L-174.6,14.2z"/>
				</g>
			</g>
			<g id="Path_225" transform="translate(365.621 30.286)">
				<g id="Path_386">
					<path class="st38" d="M-172.9,8.7c0.9,1,1.2,2.4,0.8,3.7c-0.6,1.8-1.6,2.3-3.5,1.5l0.4-0.4c2.5,0.1,3.1-1.4,1.9-4.4L-172.9,8.7
						z"/>
				</g>
			</g>
			<g id="Path_226" transform="translate(285.543 135.321)">
				<g id="Path_387">
					<path class="st36" d="M-175.6,10.8c-0.3-2.2,0.9-2.4,3.1-1.9c-1.5,0.4-2.8,0.3-2.7,1.9H-175.6z"/>
				</g>
			</g>
			<g id="Path_227" transform="translate(278.197 135.987)">
				<g id="Path_388">
					<path class="st36" d="M-174.8,13.5c-1.1-1.4-1.1-3.4,0-4.8l0.3,0.4c-0.6,1.3-0.6,2.8,0,4.1L-174.8,13.5z"/>
				</g>
			</g>
			<g id="Path_228" transform="translate(281.798 135.987)">
				<g id="Path_389">
					<path class="st36" d="M-175.3,8.7c1,1.4,1,3.3,0,4.7l-0.3-0.4c0.6-1.3,0.6-2.8,0-4.1L-175.3,8.7z"/>
				</g>
			</g>
			<g id="Path_229" transform="translate(364.559 30.655)">
				<g id="Path_390">
					<path class="st38" d="M-174.9,13.1c-0.9-1.3-0.9-3.1,0-4.4l0.4,0.4c-0.4,1.2-0.4,2.5,0,3.7L-174.9,13.1z"/>
				</g>
			</g>
			<g id="Path_230" transform="translate(313.184 108.754)">
				<g id="Path_391">
					<path class="st38" d="M-175.2,8.7c1.2,1.4,1.2,3.4,0,4.8l-0.4-0.4c0.7-1.3,0.7-2.8,0-4.1L-175.2,8.7z"/>
				</g>
			</g>
			<g id="Path_231" transform="translate(365.251 29.725)">
				<g id="Path_392">
					<path class="st38" d="M-175.6,9.6c0.6-0.9,1.8-1.2,2.7-0.6c0,0,0,0,0,0c0.1,0.1,0.3,0.2,0.4,0.3l-0.4,0.4
						c-0.8-0.4-1.8-0.2-2.4,0.4L-175.6,9.6z"/>
				</g>
			</g>
			<g id="Path_232" transform="translate(310.692 113.093)">
				<g id="Path_393">
					<path class="st38" d="M-172.7,9c-0.6,0.8-1.7,1-2.5,0.5c0,0,0,0,0,0c-0.1-0.1-0.2-0.2-0.4-0.3l0.4-0.4c0.7,0.3,1.5,0.2,2.1-0.2
						L-172.7,9z"/>
				</g>
			</g>
			<g id="Path_233" transform="translate(279.49 140.696)">
				<g id="Path_394">
					<path class="st36" d="M-173.5,9c-0.6,0.5-1.5,0.5-2.1,0l0.4-0.4h1.5L-173.5,9z"/>
				</g>
			</g>
			<g id="Path_234" transform="translate(279.49 135.272)">
				<g id="Path_395">
					<path class="st36" d="M-175.6,9c0.6-0.5,1.5-0.5,2.1,0l-0.4,0.4h-1.5L-175.6,9z"/>
				</g>
			</g>
			<g id="Path_236" transform="translate(285.583 137.834)">
				<g id="Path_396">
					<path class="st36" d="M-173.8,8.7v0.5c-0.6,0-1.3,0.3-1.8-0.4l0.6-0.1H-173.8z"/>
				</g>
			</g>
			<g id="Path_237" transform="translate(0.51 33.055)">
				<g id="Path_397">
					<path class="st38" d="M-175,9.7l-0.6-0.6l0.4-0.4l0.6,0.6L-175,9.7z"/>
				</g>
			</g>
			<g id="Path_238" transform="translate(31.252 7.484)">
				<g id="Path_398">
					<path class="st38" d="M-175,9.7l-0.6-0.6l0.4-0.4l0.6,0.6L-175,9.7z"/>
				</g>
			</g>
			<g id="Path_239" transform="translate(279.028 135.618)">
				<g id="Path_399">
					<path class="st36" d="M-175.6,9l0.5-0.4l0.4,0.4l-0.5,0.4L-175.6,9z"/>
				</g>
			</g>
			<g id="Path_240" transform="translate(365.251 34.717)">
				<g id="Path_400">
					<path class="st38" d="M-175.2,9.4l-0.4-0.4l0.4-0.4l0.4,0.4L-175.2,9.4z"/>
				</g>
			</g>
			<g id="Path_241" transform="translate(281.335 135.618)">
				<g id="Path_401">
					<path class="st36" d="M-175.3,8.7l0.5,0.4l-0.3,0.4l-0.5-0.4L-175.3,8.7z"/>
				</g>
			</g>
			<g id="Path_242" transform="translate(285.514 137.465)">
				<g id="Path_402">
					<path class="st38" d="M-174.9,9l-0.6,0.1c-0.1-0.1-0.1-0.3,0-0.5h0.5C-175,8.8-174.9,8.9-174.9,9z"/>
				</g>
			</g>
			<g id="Path_243" transform="translate(398.116 7.576)">
				<g id="Path_403">
					<path class="st38" d="M-174.8,8.9l-0.5,0.5l-0.4-0.4l0.4-0.4L-174.8,8.9z"/>
				</g>
			</g>
			<g id="Path_246" transform="translate(279.028 140.418)">
				<g id="Path_406">
					<path class="st36" d="M-175.1,9.4c-0.2-0.1-0.3-0.3-0.5-0.4l0.3-0.4l0.5,0.4L-175.1,9.4z"/>
				</g>
			</g>
			<g id="Path_247" transform="translate(281.335 140.326)">
				<g id="Path_407">
					<path class="st36" d="M-174.9,9l-0.5,0.4l-0.3-0.4l0.5-0.4L-174.9,9z"/>
				</g>
			</g>
			<g id="Path_248" transform="translate(383.991 96.938)">
				<g id="Path_408">
					<path class="st39" d="M-175.6,8.7L-175.6,8.7L-175.6,8.7L-175.6,8.7z"/>
				</g>
			</g>
			<g id="Path_250" transform="translate(75.378 19.3)">
				<g id="Path_409">
					<path class="st34" d="M23.2,8.7v22.2c0,3.3,0.2,3.5,3.4,3.5H49v0.5H26.4c-2.9,0-3.1,0.4-3.1,3.1c0,4.4,0,8.9-0.1,13.3l-0.5-0.1
						V38.7c0-3.8-0.1-3.9-3.9-3.9h-189.4c-1.1-0.1-2.1,0-3.1,0.4c-0.7,0-1.3-0.2-1.8-0.6c1.8-0.1,3.5-0.2,5.3-0.2H18.2
						c4.5,0,4.5,0,4.6-4.5V8.7L23.2,8.7z"/>
				</g>
			</g>
			<g id="Path_251" transform="translate(74.825 83.276)">
				<g id="Path_410">
					<path class="st34" d="M49.6,24.1H26.8c-2.7,0-3,0.4-3,3c0,7.7,0,15.3,0.1,22.9h-0.6c0-7.8,0-15.6,0.1-23.4
						c0-1.8-0.7-2.6-2.5-2.6h-191.3c-1.8,0.2-3.5,0-5.3-0.4c0.5-0.3,1.1-0.5,1.8-0.5c1.3,0.4,2.6,0.5,4,0.4H20.7
						c1.9,0.1,2.9-0.7,2.8-2.8c-0.1-4,0-8,0-12c0.1,0,0.2,0,0.3-0.1c0,4,0.1,8,0.1,12c0,2.1,0.8,2.9,2.9,2.9
						c7.7-0.1,15.3,0,22.9-0.1L49.6,24.1z"/>
				</g>
			</g>
			<g id="Path_252" transform="translate(26.083 94.722)">
				<g id="Path_411">
					<path class="st34" d="M-149.8,38.6c0-7.8,0-15.4,0.1-23.2c0-2.1-0.9-2.9-3-2.9c-7.7,0.1-15.3,0-22.9,0v-0.5h22.3
						c3.2,0,3.3-0.1,3.6-3.4c0.1,0,0.2,0,0.3,0.1c0.5,1.6,1.8,2.5,3,3.4c-2.4,0.2-3,1.6-3,3.9c0.2,7.5,0.1,15,0.1,22.5H-149.8z"/>
				</g>
			</g>
			<g id="Path_253" transform="translate(26.083 19.3)">
				<g id="Path_412">
					<path class="st34" d="M-175.6,34.3h22.5c3,0,3.2-0.3,3.2-3.3V8.7h0.5v22.5c0,2,0.6,3.2,2.7,3.4c-0.9,1.1-2.3,2-2.7,3.5
						c-0.1,0-0.2,0.1-0.3,0.1c-0.3-3.2-0.5-3.4-3.7-3.4h-22.2V34.3z"/>
				</g>
			</g>
			<g id="Path_254" transform="translate(391.377 19.669)">
				<g id="Path_413">
					<path class="st34" d="M-150.3,113.3V90.7c0-2.8-0.4-3.2-3.1-3.2h-22.2v-0.8c7.3,0,14.6,0,21.9,0.1c2,0,3.4-0.6,4-2.6
						c1.8,2.2,4.2,2.7,6.9,2.6c5.9-0.2,11.9,0.3,17.8-0.6c0.8,0.4,1.6,0.5,2.5,0.5c4.8,0,9.7-0.1,14.5,0c2,0,3-0.7,2.9-2.9
						c-0.1-5.1,0-10.2,0-15.1c-0.1-0.8-0.2-1.5-0.4-2.3l-0.1-2.2c0.6-2.4,0.6-5,0-7.4v-2.3c0.6-1.8,0.4-3.8,0.4-5.6V37.1
						c0-1.1-0.2-2.3-1.6-2.3c-5.8-0.1-11.6-0.5-17.4,0.2c-0.5,0-1-0.3-1.4-0.6c1.3-0.4,2.8-0.5,4.2-0.5h12.6c3.2,0,3.5-0.3,3.5-3.5
						c0-7.2,0-14.5,0.1-21.7h0.6c0,7.4,0.1,14.8,0.1,22.2c0,3.1,0.3,3.4,3.4,3.4h22v0.5h-22.2c-2.8,0-3.1,0.4-3.1,3.2v45.6
						c0,2.9,0.4,3.2,3.1,3.2H-79v0.8h-22.2c-2.8,0-3.1,0.4-3.2,3.1v22.5h-0.8V90.7c0-2.8-0.4-3.1-3.2-3.1h-37.8
						c-3.1,0-3.4,0.3-3.4,3.4v22.3L-150.3,113.3z"/>
				</g>
			</g>
			<g id="Path_255" transform="translate(391.469 19.854)">
				<g id="Path_414">
					<path class="st34" d="M-175.6,34.1h22.3c2.5,0,3-0.4,3-3c0-7.5,0.1-15,0.1-22.5h0.6c0,7.5,0.1,14.9,0,22.3
						c0,1.7,0.5,2.9,2.2,3.3l-2.6,2.9c-0.4-1.8-1.5-2.6-3.4-2.6c-7.4,0.1-14.9,0.1-22.2,0.1L-175.6,34.1z"/>
				</g>
			</g>
			<g id="Path_262" transform="translate(52.3 90.601)">
				<g id="Path_415">
					<path class="st33" d="M-172.6,16.4c-1.2-1-2.5-1.8-3-3.4c0.4-1.4,0.5-2.8,0.5-4.2h35.5c0.6,0,1.3-0.3,1.5,0.4s-0.5,0.9-0.9,1.3
						c-3.5,3-7.8,4.9-12.4,5.6c-0.6,0-1.2,0.1-1.8,0.5C-159.6,16.6-166.1,16.7-172.6,16.4z"/>
				</g>
			</g>
			<g id="Path_263" transform="translate(52.3 45.066)">
				<g id="Path_416">
					<path class="st33" d="M-175.6,12.3c0.5-1.6,1.8-2.4,2.7-3.5c6.8-0.3,13.7-0.2,20.5,0c0.5,0.4,1.2,0.6,1.8,0.6
						c3.4,0.9,6.8,1.9,9.7,4.2l0.8,0.9c0-0.1,0.1-0.1,0.2-0.1c-0.7,1.4-2.1,1.4-3.5,1.4h-27.5c-1.2,0-2.4-0.2-3.4,0.7h-0.8
						C-175,15.1-175.2,13.7-175.6,12.3z"/>
				</g>
			</g>
			<g id="Path_264" transform="translate(52.023 48.749)">
				<g id="Path_417">
					<path class="st33" d="M-175.3,8.7c0.4,1.3,0.6,2.8,0.5,4.2c-1,1.7-0.5,3.6-0.6,5.4c-0.1,1.4,0.7,2,2.1,2c1.9,0,4,0,5.9,0.1
						c1.9,0,3.5,1.6,3.5,3.5c0,0,0,0,0,0.1v0.2c0.2,2-1.3,3.7-3.2,3.9c0,0-0.1,0-0.1,0h-0.3c-1.2,0.1-2.4,0.1-3.6,0.1
						c-4.5,0-4.4,0-4.4,4.6c0,1.9,0.6,2.8,2.7,2.8c5.2-0.1,10.2,0,15.4,0c1.2,0,2.4-0.1,3.4,0.7c-6,0-12,0.1-18,0.1
						c-2,0-3,0.7-2.9,2.9c0.1,1.3,0,2.7,0,4c-0.9,2.4-0.9,5.1,0,7.6c0.1,1.4,0,2.9-0.5,4.2c-0.1,0-0.2-0.1-0.3-0.1
						c0-7.2,0.1-14.3,0.1-21.5c0-8.1-0.1-16.3-0.1-24.5C-175.5,8.7-175.4,8.7-175.3,8.7z"/>
				</g>
			</g>
			<g id="Path_265" transform="translate(260.193 55.869)">
				<g id="Path_418">
					<path class="st33" d="M-161.7,36.2c-0.1,0-0.2,0-0.3,0.1c-1.2,0-2.4,0-3.6-0.1c-4.2-0.3-6-2.1-6.3-6.2
						c-0.2-2.3-0.1-4.6-0.1-6.9c0-1.7-0.2-3-2.3-3c-1.2,0-1.5-1-1.3-1.9c0.1-1.1-0.6-3,0.9-3c3-0.2,2.7-2,2.7-4
						c0-0.8-0.1-1.8,0.9-2.1c2.7-1,4.5,0.2,4.6,3c0.1,2.9,0.2,3,3,2.9c0.5,0,0.8-0.1,1.3-0.1l0.5,0.1
						C-161.7,21.8-161.7,29-161.7,36.2z M-161.8,25.6L-161.8,25.6v-3.8c0-1.6-1-1.8-2.3-1.8c-1.2,0-2.1,0.3-2.1,1.7V29
						c0.1,1.5,1.1,2,2.5,2c1.5,0.1,1.9-0.8,1.9-2.1V25.6z"/>
				</g>
			</g>
			<g id="Path_267" transform="translate(416.94 75.336)">
				<g id="Path_419">
					<path class="st33" d="M-150.6,30.6c-5.9,0.8-11.9,0.3-17.8,0.6c-2.8,0.1-5.1-0.4-6.9-2.6c-0.5-2.2-0.1-4.3-0.1-6.6
						c0-3.7-0.1-7.5-0.2-11.2c-0.1-1.7,0.6-2.2,2.2-2.2c5.5,0.1,11.2,0,16.7,0c2.7,0,4.2,1.4,4.2,3.7c0,2.4-1.5,3.9-4.2,3.9
						c-5.2,0.1-10.4,0-15.6,0c-2.7,0-2.9,0.2-3,2.9c-0.1,4.4-0.1,4.4,4.3,4.4h30.4c0.8,0,1.7-0.3,2.6,0.6
						C-141.3,27.8-145.8,29.6-150.6,30.6z"/>
				</g>
			</g>
			<g id="Path_268" transform="translate(417.012 45.274)">
				<g id="Path_420">
					<path class="st33" d="M-172.9,8.9c7.3-0.4,14.5-0.3,21.8,0c0.4,0.3,0.9,0.6,1.4,0.6c4.5,0.9,8.6,3.1,11.8,6.4
						c-0.9,0.7-1.8,0.5-2.8,0.6h-31.7c-2.9,0-3,0.2-3,3v1.9c-0.1,1.7,0.6,2.4,2.4,2.4c1.8-0.1,3.5-0.1,5.3,0.1
						c1.9-0.1,3.5,1.4,3.6,3.4c0,0.1,0,0.3,0,0.4c0,2.2-1.3,3.6-3.7,3.8c-1.6,0.1-3.1,0.1-4.6,0.1c-2.8,0.1-3,0.3-3,3v2.1
						c-0.5-8.4,0-16.6-0.2-24.8L-172.9,8.9z"/>
				</g>
			</g>
			<g id="Path_269" transform="translate(436.322 60.265)">
				<g id="Path_421">
					<path class="st33" d="M-150.5,14v2.3h-20.7c-1.8,0-3.2-0.4-4.1-2.1c-1.1-2.5,0.3-5.4,3.1-5.4c6.3-0.2,12.6-0.1,18.8-0.1
						c0.9-0.1,1.7,0.5,1.8,1.4C-151.1,11.4-150.8,12.7-150.5,14z"/>
				</g>
			</g>
			<g id="Path_270" transform="translate(447.966 75.313)">
				<g id="Path_422">
					<path class="st33" d="M-162.1,8.7c0,0.7,0,1.5,0.1,2.2c-1.2,5.4-1.2,5.4-6.7,5.4h-3c-2.5-0.2-3.9-1.5-3.9-3.8s1.3-3.7,3.9-3.8
						C-168.6,8.6-165.4,8.7-162.1,8.7z"/>
				</g>
			</g>
			<g id="Path_271" transform="translate(387.038 47.364)">
				<g id="Path_423">
					<path class="st39" d="M-175.5,8.7L-175.5,8.7L-175.5,8.7L-175.5,8.7z"/>
				</g>
			</g>
			<g id="Path_272" transform="translate(53.685 50.78)">
				<g id="Path_424">
					<path class="st33" d="M-141.3,8.7c0.3,0.2,0.6,0.4,0.9,0.6c0.4,0.3,0.9,0.6,0.8,1.1c-0.2,0.7-0.9,0.5-1.4,0.5
						c-11.5,0-23.2,0-34.7-0.1c1-0.8,2.2-0.7,3.4-0.7h27.5C-143.4,10-142,10-141.3,8.7z"/>
				</g>
			</g>
			<g id="Path_273" transform="translate(87.011 49.949)">
				<g id="Path_425">
					<path class="st40" d="M-175.6,8.7c0.4,0.2,0.7,0.5,0.8,0.9L-175.6,8.7z"/>
				</g>
			</g>
			<g id="Path_274" transform="translate(52.848 76.167)">
				<g id="Path_426">
					<path class="st33" d="M-154.7,8.7l0.6,0.6l0.7,1.2c0.6,3.7-0.6,5.2-4.3,5.2h-17.9v-4c-0.1-2,0.8-2.9,2.9-2.9
						C-166.7,8.7-160.7,8.7-154.7,8.7z"/>
				</g>
			</g>
			<g id="Path_276" transform="translate(235.473 61.229)">
				<g id="Path_427">
					<path class="st33" d="M-175.5,24.2V12.4c0-1-0.5-2.6,0.9-3c1.5-0.4,3.2-0.9,4.5,0.6c0.3,0.5,0.9,0.6,1.4,0.4
						c0.1,0,0.1-0.1,0.2-0.1c3.9-2.3,7.7-2.2,11.3,0.5c3.8,2.8,4.9,6.7,4.2,11.3c-1.1,7.6-8.6,11.4-15.3,7.7
						c-1.3-0.7-1.7-0.4-1.7,0.9c0,2.2-0.1,4.3,0,6.6c0,2.1-1.5,2-2.9,2s-2.7-0.1-2.7-2V24.2z M-158.4,20.1c0-3.2-2.6-5.9-5.8-5.9
						c-3.2,0-5.9,2.6-5.9,5.8c0,3.2,2.5,5.8,5.6,5.9c3.1,0.2,5.7-2,6-5.1C-158.3,20.6-158.3,20.3-158.4,20.1L-158.4,20.1z"/>
				</g>
			</g>
			<g id="Path_277" transform="translate(114.921 53.438)">
				<g id="Path_428">
					<path class="st33" d="M-152.8,23.4v12.5c0,0.9,0.3,2.2-1.1,2.4c-1.5,0.2-3.2,0.9-4.2-0.7c-0.6-1-0.9-0.6-1.6-0.2
						c-4.6,3-10.8,1.8-13.8-2.8c-0.3-0.4-0.5-0.9-0.7-1.4c-3.9-7.9,1.7-17,10.1-16.4c1.5,0,2.9,0.5,4.2,1.4c1.6,1.2,1.8,0.5,1.8-1
						c0-2.1,0.1-4.2,0-6.4c-0.1-2.2,1.5-1.9,2.9-2c1.5-0.1,2.7,0.1,2.6,2L-152.8,23.4L-152.8,23.4z M-158.3,27.8
						c0-3.2-2.7-5.8-5.9-5.8c-3.2,0-5.8,2.7-5.8,5.9c0,3.2,2.7,5.8,5.9,5.8h0.1c3,0.1,5.6-2.3,5.7-5.3c0,0,0-0.1,0-0.1L-158.3,27.8
						L-158.3,27.8z"/>
				</g>
			</g>
			<g id="Path_278" transform="translate(141.696 61.237)">
				<g id="Path_429">
					<path class="st33" d="M-163.3,31.2c-6.6,0-11.1-3.4-12.1-8.9c-1.2-5.3,1.6-10.7,6.6-12.7c5.5-2.4,11.9,0.1,14.3,5.6
						c0,0,0,0.1,0,0.1c0.6,1.4,0.9,2.8,0.9,4.3c0.1,1.8-0.5,2.8-2.5,2.7c-3.7-0.1-7.5,0-11.2,0c-0.7,0-1.8-0.3-1.9,0.7
						c-0.2,0.8,0.6,1.4,1.2,1.8c1.9,1.6,5.3,1.7,7.8,0.2c1.3-0.7,4.2,0,4.9,1.3c0.5,0.7-0.1,1.2-0.6,1.7
						C-157.8,30-160.5,31.2-163.3,31.2z M-164.5,18h3.6c1.7-0.1,1.7-0.9,0.9-2.1c-1.9-3-7.4-3-9.2,0.3c-0.7,1.3-0.3,1.8,1.1,1.8
						C-166.9,18-165.7,18-164.5,18L-164.5,18z"/>
				</g>
			</g>
			<g id="Path_279" transform="translate(185.414 61.396)">
				<g id="Path_430">
					<path class="st33" d="M-166,8.7c5.2,0,8,1.2,10.2,3.9c0.9,1,0.8,1.8-0.5,2.5c-1.8,1-3,2-5.1,0c-1.8-1.8-5.5-1.1-7.3,0.8
						c-2,2.3-1.9,5.7,0.1,7.9c2,2.1,5.2,2.4,7.6,0.7c0.6-0.5,1.1-1.6,2-1.3c1.3,0.5,2.4,1.1,3.5,1.9c1,0.8-0.1,1.6-0.6,2.1
						c-4.8,5.6-14.3,4.7-18.1-1.8C-178.4,17.9-173.1,8.7-166,8.7z"/>
				</g>
			</g>
			<g id="Path_280" transform="translate(165.998 61.356)">
				<g id="Path_431">
					<path class="st33" d="M-166.8,31.1c-3.4-0.1-6.2-0.9-8.1-3.3c-0.8-1-1.1-1.8,0.4-2.7c1.7-0.8,3-2.2,4.8,0.1
						c0.8,1.1,2.6,1,4,0.6c0.7-0.1,1.3-0.7,1.4-1.4c0.1-0.7-0.4-1.4-1.1-1.6c-1.7-0.6-3.5-1.2-5.2-1.8c-1.9-0.7-3.5-1.8-4.2-3.9
						c-0.7-2.4,0-5.1,1.9-6.7c3.3-2.9,9.8-2.4,12.7,0.9c1,1.1,1,1.8-0.4,2.6c-1.6,0.8-3,1.9-4.6,0.1c-0.5-0.4-1.2-0.6-1.9-0.6
						c-0.9,0.1-1.9,0.3-2.1,1.4c-0.3,1.1,0.6,1.7,1.5,1.9c1.5,0.6,3,0.9,4.4,1.4c3.5,1.3,5,3.3,4.8,6.6c-0.2,3-2.1,5.1-5.4,5.9
						C-164.9,30.9-165.9,31-166.8,31.1z"/>
				</g>
			</g>
			<g id="Path_281" transform="translate(71.502 60.281)">
				<g id="Path_432">
					<path class="st33" d="M-161.8,16.5c-3.1,0-6.2,0.1-9.3,0c-3-0.1-4.4-1.5-4.4-4c0-2.4,1.6-3.8,4.3-3.8c5.8-0.1,11.6,0,17.5-0.1
						c1.3-0.1,2.5,0.8,2.7,2c1.8,5.5,1.7,5.8-4.1,5.8L-161.8,16.5z"/>
				</g>
			</g>
			<g id="Path_282" transform="translate(209.168 61.606)">
				<g id="Path_433">
					<path class="st33" d="M-169.7,11.4c1-1.1,2.3-1.9,3.6-2.5c1.9-0.6,2.5-0.3,2.6,1.7v2.1c0.1,0.9-0.6,1.8-1.5,1.9
						c-0.1,0-0.1,0-0.2,0c-3.5,0.7-4.7,2.3-4.8,5.8c-0.1,2.5-0.1,5.1,0,7.6c0.1,2.1-1.3,2.1-2.8,2.1c-1.6,0-2.8-0.1-2.8-2.2
						c0.1-5.4,0-10.7,0-16.1c0-1.2-0.6-2.9,1.5-3.1C-171.2,8.5-170.5,8.9-169.7,11.4z"/>
				</g>
			</g>
			<g id="Path_283" transform="translate(225.018 61.95)">
				<g id="Path_434">
					<path class="st33" d="M-175.6,19.2c0-2.8,0.1-5.6,0-8.4c-0.1-2.1,1.2-2.1,2.8-2.1c1.5,0,2.6,0.2,2.6,2.1
						c-0.1,5.6-0.1,11.3,0,16.9c0,1.9-1,2.3-2.7,2.3c-1.6,0-2.8-0.2-2.7-2.2C-175.5,24.8-175.5,22-175.6,19.2z"/>
				</g>
			</g>
			<g id="Path_284" transform="translate(83.221 75.405)">
				<g id="Path_435">
					<path class="st33" d="M-168.7,16.3c-1.1,0-2.2,0.1-3.3,0c-2.3-0.2-3.5-1.4-3.6-3.6c-0.3-1.9,1.1-3.7,3-3.9c0.1,0,0.3,0,0.4,0
						c3-0.2,6-0.1,9-0.1c1.1,0,1.5,0.6,1.4,1.7c0,0.1-0.1,0.3-0.1,0.4C-162.7,16.2-162.9,16.3-168.7,16.3z"/>
				</g>
			</g>
			<g id="Path_285" transform="translate(224.923 53.45)">
				<g id="Path_436">
					<path class="st33" d="M-170.1,11.4c0,2.6-0.3,2.8-2.8,2.8c-2.4,0-2.6-0.3-2.7-2.9c-0.1-1.9,0.6-2.8,2.7-2.7
						C-170.3,8.7-170.1,8.8-170.1,11.4z"/>
				</g>
			</g>
			<g id="Path_286" transform="translate(74.364 76.72)">
				<g id="Path_437">
					<path class="st40" d="M-174.9,9.9l-0.7-1.2C-175.2,9-175,9.4-174.9,9.9z"/>
				</g>
			</g>
		</g>
	</g>
	<g class="st41">
		<path class="st42" d="M410.8,147.6c1.2,1.2,1.8,2.7,1.8,4.6c0,1.6-0.3,3.2-1,4.8l-22.2,56.4l-1,0.5l-12.4-39.4l-15.3,38.9l-1,0.5
			l-20.9-66.3h8l16.8,55.6l11.9-30.3l-8-25.4h8l16.8,55.6l18.1-46.2c0.7-1.6,1-3.2,1-4.9s-0.5-3-1.4-3.9L410.8,147.6z"/>
	</g>
	<g class="st41">
		<path class="st42" d="M422.7,196.8c0,5.6,1,9.7,3,12.4c2,2.6,4.6,3.9,7.8,3.9c4.5,0,8.6-0.7,12.1-2l0.2,0.5
			c-3.6,1.4-7.7,2.1-12.3,2.1c-4.6,0-8.3-1.4-11.1-4.1c-2.9-2.7-4.3-6.9-4.3-12.6s1.5-10.1,4.5-13.2s6.8-4.7,11.4-4.7
			c3.7,0,6.8,1.1,9.4,3.3c2.5,2.2,3.8,5.5,3.8,9.9c0,0.2,0,0.5,0,0.7H423C422.8,194.2,422.7,195.5,422.7,196.8z M440.1,182.8
			c-1.6-2.1-3.7-3.1-6.3-3.1s-4.9,1.1-6.9,3.4c-2,2.3-3.3,5.4-3.8,9.4h19.6C442.6,188.1,441.7,184.9,440.1,182.8z"/>
		<path class="st42" d="M474.4,166.4c5.3-0.4,9.9-0.5,13.9-0.5c11.2,0,16.9,4,16.9,11.9c0,3.7-1,6.9-2.9,9.7c-1,1.5-2.5,2.7-4.6,3.6
			c-2.1,0.9-4.6,1.3-7.5,1.3h-10.1v21.1h-5.6V166.4z M488.4,166.5c-2.6,0-5.4,0.2-8.3,0.5v24.6h10.1c6.4-0.3,9.6-4.9,9.6-13.7
			c0-3.6-1-6.4-2.9-8.4S492.1,166.5,488.4,166.5z"/>
		<path class="st42" d="M516,205.6c0,3.6,1,5.9,2.9,6.9c0.9,0.5,2.1,0.7,3.5,0.7c2.9,0,5.4-1.1,7.6-3.3s3.5-4.2,3.6-6.1v-24.4h4.8
			v29.2c0,1.3,0.3,2.3,0.8,3c0.5,0.7,1.1,1.1,1.6,1.1l0.7,0.1h2.1v0.5h-4.1c-1.9,0-3.3-0.4-4.3-1.2c-1-0.8-1.5-1.6-1.5-2.4l-0.1-1.2
			v-2.9c-0.8,1.9-2.3,3.8-4.4,5.5c-2.1,1.7-4.4,2.6-6.8,2.6c-2.5,0-4.5-0.2-6.1-0.7c-1.6-0.5-2.7-1.1-3.4-2
			c-1.2-1.4-1.8-3.2-1.8-5.4v-26.1h4.8V205.6z"/>
		<path class="st42" d="M546.7,180v-0.5h1.4v-6.8h4.8v6.8h10.4v0.5h-10.4v24.8c0,2.9,0.3,5.1,1,6.4c0.7,1.3,2,2,4.1,2
			c2.1,0,4.3-0.4,6.4-1.3l0.2,0.5c-2.3,0.9-4.9,1.3-7.8,1.3s-5.1-0.6-6.6-1.8c-1.5-1.2-2.2-3.6-2.2-7.2V180H546.7z"/>
		<path class="st42" d="M592.1,166.4c5.3-0.4,9.9-0.5,13.9-0.5c11.2,0,16.8,3.7,16.8,11.2c0,2.8-0.8,5.2-2.4,7.2
			c-1.6,2-4.2,3.4-7.8,4.1c3.4,0.4,6.2,1.5,8.2,3.1c2,1.7,3,4.6,3,8.8c0,8.8-5.6,13.1-16.8,13.1h-14.8V166.4z M606.1,166.5
			c-2.6,0-5.4,0.2-8.3,0.5v21.2h10.1c6.4-0.3,9.6-3.9,9.6-11c0-3.4-1-6.1-2.9-7.9S609.8,166.5,606.1,166.5z M597.8,212.7h9.2
			c4,0,6.9-1.1,8.6-3.2c1.7-2.1,2.5-5.3,2.5-9.7c0-4.4-0.9-7.3-2.6-8.7c-1.7-1.5-4.3-2.2-7.7-2.3h-10.1V212.7z"/>
		<path class="st42" d="M641.8,182.3v-1.4c-2,0.8-3.9,2.5-5.6,4.9c-1.7,2.5-2.6,4.8-2.7,7v20.6h-4.8v-34h4.8v10.8
			c0.7-2.6,2.1-5.1,4.1-7.4s4.4-3.5,6.9-3.6h0.3c0.9,0,1.7,0.3,2.3,0.9c0.6,0.6,0.9,1.4,0.9,2.3c0,0.9-0.3,1.7-0.9,2.2
			c-0.6,0.6-1.4,0.9-2.3,0.9c-0.9,0-1.7-0.3-2.2-0.9C642.1,184,641.8,183.2,641.8,182.3z"/>
		<path class="st42" d="M679.3,213.4c-3.1,0-5.2-0.6-6.3-1.8c-1-1-1.6-1.9-1.6-2.6v-1.4c-2.2,4-5.8,6.1-10.7,6.1
			c-5.7,0-9-2.6-9.7-7.8c-0.1-0.5-0.1-1.1-0.1-1.7c0-0.6,0.1-1.2,0.3-1.9c0.2-0.7,0.7-1.4,1.6-2.2c1.7-1.6,5.5-2.6,11.4-3
			c1.5-0.1,2.8-0.2,4-0.2c1.2,0,2.3,0,3.3,0.1v-11.3c-0.1,0-0.1-0.3,0-0.6c0.1-0.4,0-0.9-0.2-1.5c-0.3-0.6-0.6-1.2-1-1.8
			c-0.4-0.6-1.1-1.1-2.2-1.5c-1-0.4-2.4-0.6-4.1-0.6c-1.7,0-3.6,0.3-5.9,0.9c-2.2,0.6-3.9,1.2-4.9,1.8l-0.3-0.5
			c4-1.9,8.1-2.8,12.3-2.8c4.7,0,7.8,0.8,9.2,2.5c1.2,1.3,1.8,2.7,1.8,4.1v22.8c0,1.3,0.3,2.3,0.8,3c0.5,0.7,1.1,1.1,1.6,1.1
			l0.7,0.1h2.1v0.5H679.3z M661.8,213.1c2.4,0,4.6-0.8,6.5-2.5c1.9-1.7,3-3.3,3.1-4.8v-8.2c-1.2-0.1-2.5-0.1-3.7-0.1
			c-1.2,0-2.5,0.1-3.7,0.2c-3.4,0.4-5.7,1.2-6.7,2.3c-1,1.1-1.6,2.7-1.6,4.7c0,0.4,0,0.8,0.1,1.2
			C656.2,210.7,658.2,213.1,661.8,213.1z"/>
		<path class="st42" d="M713.4,213.4c-1.9,0-3.3-0.4-4.3-1.2c-1-0.8-1.5-1.6-1.5-2.4l-0.1-1.2v-21.4c0-3.6-0.9-5.9-2.8-6.9
			c-1-0.5-2.1-0.7-3.5-0.7c-2.9,0-5.5,1.1-7.8,3.4c-2.3,2.3-3.5,4.3-3.5,6.2v24.1h-4.8v-34h4.8v7.8c0.8-1.9,2.2-3.8,4.3-5.5
			c2.1-1.7,4.4-2.6,6.9-2.6c2.5,0,4.5,0.2,6.1,0.7c1.6,0.5,2.7,1.1,3.4,2c1.1,1.4,1.7,3.2,1.7,5.4v21.3c0,1.3,0.3,2.3,0.8,3
			c0.5,0.7,1.1,1.1,1.6,1.1l0.7,0.1h2.1v0.5H713.4z"/>
		<path class="st42" d="M720.2,197.6c0-5.9,1.4-10.4,4.3-13.7c2.9-3.2,7.1-4.8,12.9-4.8c2.7,0,5.4,0.7,8.1,2v-18.7h4.8v46.1
			c0,1.3,0.3,2.3,0.8,3c0.5,0.7,1.1,1.1,1.6,1.1l0.7,0.1h2.1v0.5h-4.1c-1.9,0-3.3-0.4-4.3-1.2c-1-0.8-1.5-1.6-1.5-2.4l-0.1-1.2v-1.1
			c-0.9,1.6-2.3,3-4.3,4.2c-2,1.2-4.4,1.8-7.1,1.8C724.9,213.3,720.2,208,720.2,197.6z M734.2,213c3,0,5.6-0.8,7.8-2.4
			c2.2-1.6,3.3-3.2,3.5-4.8v-23.9c-3.2-1.4-6-2.1-8.3-2.1c-4,0-7.1,1.6-9.1,4.7c-2,3.2-3.1,7.6-3.1,13.2
			C725,207.9,728.1,213,734.2,213z"/>
		<path class="st42" d="M780.1,181.8c-0.7-0.6-1.9-1.1-3.5-1.5c-1.6-0.4-2.8-0.6-3.6-0.6c-0.8,0-1.3,0-1.4,0c-2.4,0-4.2,0.7-5.3,1.9
			c-1.1,1.2-1.6,2.6-1.6,4c0,1.5,0.5,2.8,1.4,3.8c1,1,2.1,1.8,3.6,2.4c1.4,0.6,3,1.2,4.6,1.9c1.7,0.7,3.2,1.5,4.6,2.2
			c1.4,0.7,2.6,1.8,3.6,3.3s1.4,3.2,1.4,5.3c0,2.1-0.7,3.9-2.2,5.4s-3.2,2.5-5,3c-1.8,0.5-3.8,0.7-6,0.7c-4.6,0-8.1-1-10.4-3.1
			l0.4-0.4c0.9,0.9,2.3,1.6,4,2.1c1.8,0.5,3.5,0.8,5.2,0.8c2.7,0,4.9-0.7,6.6-2.2c1.7-1.5,2.6-3.3,2.6-5.5c0-2.2-0.7-4-2-5.3
			c-1.3-1.3-2.9-2.4-4.8-3.1c-1.9-0.7-3.8-1.5-5.7-2.2c-1.9-0.7-3.5-1.8-4.8-3.1c-1.3-1.3-2-2.9-2-4.7c0-1.8,0.4-3.2,1.2-4.3
			c0.8-1.1,1.9-1.9,3.3-2.3c2.3-0.8,4.6-1.2,6.9-1.2c3.9,0,6.9,0.7,9.1,2.2L780.1,181.8z"/>
	</g>
	<g class="st41">
		<path class="st42" d="M339.3,259.8c0-8.3,2-14.5,6-18.8c4-4.3,9.2-6.4,15.5-6.4c6.3,0,11.3,1.9,15.1,5.6c3.7,3.7,5.6,9.7,5.6,17.8
			c0,8.2-2,14.3-6,18.5c-4,4.2-9.3,6.3-16,6.3c-5.8,0-10.5-1.7-14.1-5c-1.9-1.7-3.4-4.1-4.5-7.2
			C339.8,267.5,339.3,263.9,339.3,259.8z M360.6,235.2c-4.6,0-8.3,2-11.3,6.1s-4.4,10.1-4.4,18c0,7.9,1.4,13.6,4.1,17.3
			c2.8,3.6,6.4,5.4,11.1,5.4c4.6,0,8.4-2.1,11.3-6.2c2.9-4.1,4.4-10.1,4.4-17.9c0-7.8-1.4-13.6-4.2-17.2
			C368.8,237.1,365.1,235.2,360.6,235.2z"/>
		<path class="st42" d="M415.8,282.4c-1.9,0-3.3-0.4-4.3-1.2c-1-0.8-1.5-1.6-1.5-2.4l-0.1-1.2v-21.4c0-3.6-0.9-5.9-2.8-6.9
			c-1-0.5-2.1-0.7-3.5-0.7c-2.9,0-5.5,1.1-7.8,3.4c-2.3,2.3-3.5,4.3-3.5,6.2v24.1h-4.8v-34h4.8v7.8c0.8-1.9,2.2-3.8,4.3-5.5
			c2.1-1.7,4.4-2.6,6.9-2.6c2.5,0,4.5,0.2,6.1,0.7c1.6,0.5,2.7,1.1,3.4,2c1.1,1.4,1.7,3.2,1.7,5.4v21.3c0,1.3,0.3,2.3,0.8,3
			c0.5,0.7,1.1,1.1,1.6,1.1l0.7,0.1h2.1v0.5H415.8z"/>
		<path class="st42" d="M443.3,249v-0.5h1.4v-6.8h4.8v6.8h10.4v0.5h-10.4v24.8c0,2.9,0.3,5.1,1,6.4c0.7,1.3,2,2,4.1,2
			c2.1,0,4.3-0.4,6.4-1.3l0.2,0.5c-2.3,0.9-4.9,1.3-7.8,1.3s-5.1-0.6-6.6-1.8c-1.5-1.2-2.2-3.6-2.2-7.2V249H443.3z"/>
		<path class="st42" d="M492.9,282.4c-1.9,0-3.3-0.4-4.3-1.2c-1-0.8-1.5-1.6-1.5-2.4l-0.1-1.2v-21.4c0-3.6-1-5.9-2.9-6.9
			c-0.9-0.5-2.1-0.7-3.5-0.7c-2.8,0-5.3,1.1-7.6,3.4c-2.2,2.3-3.4,4.3-3.4,6.2v24.1H465v-50.9h4.8v24.7c0.7-1.9,2.1-3.8,4.1-5.5
			c2-1.7,4.3-2.6,6.9-2.6c4.4,0,7.3,0.8,8.8,2.3c1.5,1.5,2.2,3.5,2.2,5.9v21.3c0,1.3,0.3,2.3,0.8,3c0.5,0.7,1,1.1,1.5,1.1l0.8,0.1
			h2.1v0.5H492.9z"/>
		<path class="st42" d="M505.4,265.8c0,5.6,1,9.7,3,12.4c2,2.6,4.6,3.9,7.8,3.9c4.5,0,8.6-0.7,12.1-2l0.2,0.5
			c-3.6,1.4-7.7,2.1-12.3,2.1c-4.6,0-8.3-1.4-11.1-4.1c-2.9-2.7-4.3-6.9-4.3-12.6s1.5-10.1,4.5-13.2s6.8-4.7,11.4-4.7
			c3.7,0,6.8,1.1,9.4,3.3c2.5,2.2,3.8,5.5,3.8,9.9c0,0.2,0,0.5,0,0.7h-24.3C505.5,263.2,505.4,264.5,505.4,265.8z M522.7,251.8
			c-1.6-2.1-3.7-3.1-6.3-3.1s-4.9,1.1-6.9,3.4c-2,2.3-3.3,5.4-3.8,9.4h19.6C525.2,257.1,524.4,253.9,522.7,251.8z"/>
		<path class="st42" d="M596,256.2c0-2.8-0.4-4.7-1.1-5.8c-0.7-1.1-2.1-1.7-4.1-1.7c-2.7,0-5.1,1.1-7.2,3.4
			c-2.1,2.3-3.2,4.3-3.2,6.1v24.2h-4.8v-26.2c0-2.8-0.4-4.7-1.1-5.8c-0.7-1.1-2.3-1.7-4.6-1.7c-2.4,0-4.6,1.1-6.7,3.3
			c-2.1,2.2-3.3,4.2-3.4,6.1v24.4H555v-34h4.8v7.7c0.7-1.9,2.1-3.8,4-5.4c1.9-1.7,4.1-2.5,6.5-2.5c2.4,0,4.3,0.2,5.7,0.6
			c1.4,0.4,2.4,1.1,3,2c0.6,0.9,1,1.7,1.1,2.4c0.1,0.7,0.2,1.6,0.2,2.9c0.7-1.9,2-3.8,3.9-5.4c1.9-1.7,3.9-2.5,6.1-2.5
			s3.9,0.2,5.2,0.5c1.3,0.4,2.3,0.8,3,1.2s1.2,1.1,1.5,2c0.3,0.9,0.5,1.6,0.6,2.1c0,0.5,0.1,1.3,0.1,2.3v21.3c0,1.3,0.3,2.3,0.8,3
			c0.5,0.7,1.1,1.1,1.6,1.1l0.7,0.1h2.1v0.5h-4.1c-1.9,0-3.3-0.4-4.3-1.2c-1-0.8-1.5-1.6-1.5-2.4l-0.1-1.2V256.2z"/>
		<path class="st42" d="M636.2,282.4c-3.1,0-5.2-0.6-6.3-1.8c-1-1-1.6-1.9-1.6-2.6v-1.4c-2.2,4-5.8,6.1-10.7,6.1
			c-5.7,0-9-2.6-9.7-7.8c-0.1-0.5-0.1-1.1-0.1-1.7c0-0.6,0.1-1.2,0.3-1.9c0.2-0.7,0.7-1.4,1.6-2.2c1.7-1.6,5.5-2.6,11.4-3
			c1.5-0.1,2.8-0.2,4-0.2c1.2,0,2.3,0,3.3,0.1v-11.3c-0.1,0-0.1-0.3,0-0.6c0.1-0.4,0-0.9-0.2-1.5c-0.3-0.6-0.6-1.2-1-1.8
			c-0.4-0.6-1.1-1.1-2.2-1.5c-1-0.4-2.4-0.6-4.1-0.6c-1.7,0-3.6,0.3-5.9,0.9c-2.2,0.6-3.9,1.2-4.9,1.8l-0.3-0.5
			c4-1.9,8.1-2.8,12.3-2.8c4.7,0,7.8,0.8,9.2,2.5c1.2,1.3,1.8,2.7,1.8,4.1v22.8c0,1.3,0.3,2.3,0.8,3c0.5,0.7,1.1,1.1,1.6,1.1
			l0.7,0.1h2.1v0.5H636.2z M618.7,282.1c2.4,0,4.6-0.8,6.5-2.5c1.9-1.7,3-3.3,3.1-4.8v-8.2c-1.2-0.1-2.5-0.1-3.7-0.1
			s-2.5,0.1-3.7,0.2c-3.4,0.4-5.7,1.2-6.7,2.3c-1,1.1-1.6,2.7-1.6,4.7c0,0.4,0,0.8,0.1,1.2C613,279.7,615.1,282.1,618.7,282.1z"/>
		<path class="st42" d="M642.7,248.4h4.8v8.4c0.8-2.1,2.2-4.1,4.3-5.9c2.1-1.9,4.4-2.8,7.1-2.8c9.2,0,13.8,5.4,13.8,16.2
			c0,12.2-5.9,18.4-17.8,18.4c-2.1,0-4.6-0.5-7.3-1.5v18.2h-4.8V248.4z M658.7,248.7c-2.8,0-5.3,1.2-7.6,3.6
			c-2.3,2.4-3.5,4.6-3.7,6.6v21.7c2.8,1,5.2,1.6,7.3,1.6c8.7,0,13.1-6,13.1-17.9C667.9,253.9,664.8,248.7,658.7,248.7z"/>
	</g>
	<g class="st43">
		<g>
			<path class="st44" d="M0-61.5v72.8c9.5-0.2,19-0.5,28.5-1l2.2-1.8h10.3c5.4,4.9,12.1,4.5,18.4,4.5C110.1,20.8,155.3,40,193,75
				c2.2,2.2,6.7,4,4.9,8.1c-1.3,3.6-6.3,2.2-9.4,2.2H0v221.2c5.2,0,10.3,0.1,15.5,0.2c23.7,0.4,37.6,15.2,37.6,38.1
				c0,22.9-14.3,37.2-38.5,37.2C9.7,382,4.9,382,0,382v73.4h189.8c0.7,0,1.5-0.1,2.3-0.1c0.9-0.1,1.8-0.2,2.7-0.2
				c2.5,0,3.8,0.6,4.4,2.1c1.4,3.2-1.5,5.3-4.1,7.2c-0.6,0.5-1.2,0.9-1.8,1.3c-33.1,30.9-73.4,50.9-123.2,60.9
				c-0.7,0.1-1.3,0.2-2,0.2c-1.4,0-2.8,0.2-4.1,0.8l-0.6,0.1L34,531l0.3,1.1c-11.6,0-23.1,0-34.3,0.1v29.1h304.5V-61.5H0z
				 M268.7,318.7c-3.2,3.9-4.8,8.9-4.5,13.9c-2.9,14.1-6.6,28-11.2,41.7c-1.4,5.4-6.5,9.1-12.1,8.5c-25.1-0.4-50.6,0.4-75.7-0.4
				c-22.4-0.4-35.9-15.7-35.9-37.6s13.4-37.2,35.9-37.6c28.2-0.9,56.5,0,85.1-0.4c5.4,0,10.8-0.4,16.1-0.9l2.7,4.9
				C269.2,313.4,269.1,316.1,268.7,318.7z M269.6,232.3v2.2l-2.7,0.4c-13.4-0.4-26.4-0.4-39.9-0.9H55.9c-28.7,0-44.8-20.2-39.4-47.1
				c2.2-15.6,15.2-27.4,30.9-28.2c5.4-0.4,10.8-0.9,16.6-0.9c57.8,0,115.6,0,173.4-0.4c10.3,0,15.7,3.1,18.4,13
				c3.6,12.5,7.2,25.1,9.9,37.6c-1.3,5.8,0,10.8,3.6,14.3l0.4,8.1C269.2,230.9,269.6,231.8,269.6,232.3z"/>
		</g>
		<g>
			<path class="st32" d="M34,531l29.6-3.3l0.6-0.1c1.3-0.6,2.7-0.9,4.1-0.8c0.7,0,1.3-0.1,2-0.2c49.9-10.1,90.2-30,123.2-60.9
				c0.5-0.4,1.1-0.9,1.8-1.3c2.6-1.8,5.5-3.9,4.1-7.2c-0.6-1.4-2-2.1-4.4-2.1c-0.9,0-1.8,0.1-2.7,0.2c-0.8,0.1-1.6,0.1-2.3,0.1H0
				v76.8c11.2,0,22.6,0,34.3-0.1L34,531z"/>
		</g>
		<g>
			<path class="st32" d="M197.9,83c1.8-4-2.7-5.8-4.9-8.1c-37.6-35-82.9-54.2-133.5-61.8c-6.3,0-13,0.4-18.4-4.5H30.8l-2.2,1.8
				c-9.5,0.5-19,0.8-28.5,1v73.9h188.5C191.6,85.3,196.6,86.6,197.9,83z"/>
		</g>
		<g>
			<path class="st32" d="M269.2,222.4c-3.6-3.6-4.9-8.5-3.6-14.3c-2.7-12.5-6.3-25.1-9.9-37.6c-2.7-9.9-8.1-13-18.4-13
				c-57.8,0.4-115.6,0.4-173.4,0.4c-5.8,0-11.2,0.5-16.6,0.9c-15.7,0.8-28.7,12.6-30.9,28.2c-5.4,26.9,10.8,47.1,39.4,47.1H227
				c13.4,0.4,26.4,0.4,39.9,0.9l2.7-0.4v-2.2c0-0.4-0.4-1.3,0-1.8L269.2,222.4z"/>
		</g>
		<g>
			<path class="st32" d="M53.2,344.7c0-22.9-13.9-37.6-37.6-38.1c-5.2-0.1-10.4-0.1-15.5-0.2V382c4.9,0,9.7-0.1,14.6-0.1
				C38.8,381.9,53.2,367.6,53.2,344.7z"/>
		</g>
		<g>
			<path class="st32" d="M266.5,305.8c-5.4,0.4-10.8,0.9-16.1,0.9c-28.7,0.4-56.9-0.5-85.1,0.4c-22.4,0.4-35.9,15.7-35.9,37.6
				s13.4,37.2,35.9,37.6c25.1,0.9,50.6,0,75.7,0.4c5.6,0.6,10.7-3.1,12.1-8.5c4.6-13.7,8.3-27.6,11.2-41.7c-0.3-5,1.3-10,4.5-13.9
				c0.4-2.7,0.5-5.4,0.4-8.1L266.5,305.8z"/>
		</g>
	</g>
</g>
</svg>
