<svg width="310" height="699" viewBox="0 0 310 699" fill="none" xmlns="http://www.w3.org/2000/svg">
<path d="M43.5945 530.845C42.9053 530.845 42.13 530.974 41.2685 531.233C40.407 531.491 39.5886 531.836 38.8133 532.266C38.038 532.697 37.3919 533.257 36.875 533.946C36.3581 534.549 36.0996 535.239 36.0996 536.014L34.1613 536.014L34.1613 502.416L36.0996 502.416C36.0996 503.192 36.3581 503.924 36.875 504.613C37.3919 505.216 38.038 505.733 38.8133 506.164C39.5886 506.594 40.407 506.939 41.2685 507.197C42.13 507.456 42.9053 507.585 43.5945 507.585L134.567 507.585C135.17 507.585 135.902 507.456 136.764 507.197C137.625 506.939 138.443 506.594 139.219 506.164C139.994 505.733 140.683 505.216 141.286 504.613C141.803 503.924 142.062 503.192 142.062 502.416L144 502.416L144 536.014L142.062 536.014C142.062 535.239 141.803 534.549 141.286 533.946C140.683 533.257 139.994 532.697 139.219 532.266C138.443 531.836 137.625 531.491 136.764 531.233C135.902 530.974 135.17 530.845 134.567 530.845L43.5945 530.845ZM134.567 371.405C135.17 371.405 135.902 371.276 136.764 371.018C137.625 370.759 138.443 370.415 139.219 369.984C139.994 369.553 140.683 369.036 141.286 368.433C141.803 367.744 142.062 367.012 142.062 366.236L144 366.236L144 397.25L142.062 397.25C142.062 396.474 141.803 395.785 141.286 395.182C140.683 394.493 139.994 393.933 139.219 393.502C138.443 393.071 137.625 392.727 136.764 392.468C135.902 392.21 135.17 392.081 134.567 392.081L83.9118 392.081C79.0013 392.081 75.4262 393.115 73.1863 395.182C70.8603 397.163 69.6974 400.006 69.6974 403.711C69.6974 406.467 70.4727 409.181 72.0233 411.852C73.4879 414.436 75.9 416.978 79.2598 419.476C80.2074 419.304 81.155 419.174 82.1027 419.088C82.9642 418.916 83.9549 418.83 85.0748 418.83L134.567 418.83C135.17 418.83 135.902 418.7 136.764 418.442C137.625 418.184 138.443 417.839 139.219 417.408C139.994 416.978 140.683 416.461 141.286 415.858C141.803 415.168 142.062 414.436 142.062 413.661L144 413.661L144 444.674L142.062 444.674C142.062 443.899 141.803 443.21 141.286 442.607C140.683 441.917 139.994 441.357 139.219 440.927C138.443 440.496 137.625 440.151 136.764 439.893C135.902 439.634 135.17 439.505 134.567 439.505L83.9118 439.505C79.0013 439.505 75.4262 440.539 73.1863 442.607C70.8604 444.588 69.6974 447.431 69.6974 451.135C69.6974 453.806 70.3865 456.39 71.7649 458.889C73.1433 461.387 75.3401 463.842 78.3552 466.254L134.567 466.254C135.17 466.254 135.902 466.125 136.764 465.867C137.625 465.608 138.443 465.264 139.219 464.833C139.994 464.402 140.683 463.885 141.286 463.282C141.803 462.593 142.062 461.861 142.062 461.085L144 461.085L144 492.099L142.062 492.099C142.062 491.323 141.803 490.634 141.286 490.031C140.683 489.342 139.994 488.782 139.219 488.351C138.443 487.92 137.625 487.576 136.764 487.317C135.902 487.059 135.17 486.93 134.567 486.93L82.3611 486.93C81.4135 486.93 80.4228 487.016 79.389 487.188C78.2691 487.274 77.2784 487.533 76.4169 487.964C75.5554 488.308 74.8662 488.825 74.3493 489.514C73.7463 490.117 73.4448 490.979 73.4448 492.099L71.5065 492.099C71.5065 489.342 71.2049 486.542 70.6019 483.699C69.9989 480.856 69.2235 478.315 68.2759 476.075C67.2421 473.749 66.1222 471.854 64.9161 470.389C63.7101 468.925 62.4609 468.193 61.1687 468.193L61.1687 466.254L75.3831 466.254C72.0234 463.325 69.482 459.836 67.759 455.787C66.0361 451.652 65.1746 447.086 65.1746 442.09C65.1746 437.265 66.0361 432.829 67.759 428.78C69.482 424.731 72.5833 421.845 77.063 420.122C73.1002 417.193 70.1281 413.575 68.1467 409.267C66.1653 404.96 65.1746 400.093 65.1746 394.665C65.1746 391.65 65.5192 388.764 66.2084 386.007C66.8114 383.164 67.8882 380.666 69.4389 378.512C70.9896 376.359 73.0571 374.636 75.6416 373.344C78.1399 372.051 81.2843 371.405 85.0748 371.405L134.567 371.405ZM134.567 293.263C135.17 293.263 135.902 293.134 136.764 292.876C137.625 292.617 138.443 292.273 139.219 291.842C139.994 291.411 140.683 290.894 141.286 290.291C141.803 289.602 142.062 288.87 142.062 288.094L144 288.094L144 301.792C144 302.309 143.957 303.084 143.871 304.118C143.785 305.152 143.612 306.272 143.354 307.478C143.009 308.598 142.492 309.674 141.803 310.708C141.028 311.742 139.994 312.56 138.702 313.163C140.511 314.456 142.062 316.308 143.354 318.72C144.646 321.046 145.292 324.147 145.292 328.024C145.292 331.901 144.905 335.519 144.129 338.879C143.44 342.238 142.32 345.211 140.769 347.795C139.219 350.293 137.28 352.275 134.954 353.739C132.542 355.204 129.699 355.936 126.426 355.936C123.152 355.936 120.309 355.161 117.897 353.61C115.399 351.973 113.202 349.906 111.307 347.407C109.412 344.823 107.689 341.937 106.138 338.749C104.587 335.562 103.123 332.418 101.744 329.316C100.366 326.215 98.9877 323.329 97.6093 320.658C96.2309 317.902 94.7233 315.662 93.0865 313.939L88.0469 313.939C85.204 313.939 82.5334 314.154 80.0351 314.585C77.5368 314.929 75.34 315.576 73.4448 316.523C71.4634 317.385 69.9127 318.634 68.7928 320.271C67.6729 321.821 67.1129 323.846 67.1129 326.344C67.1129 327.981 67.3714 329.704 67.8882 331.513C68.4051 333.236 69.1374 334.83 70.085 336.294C71.0326 337.673 72.1956 338.836 73.574 339.783C74.8662 340.645 76.3307 341.075 77.9676 341.075C79.3459 341.075 80.4228 340.774 81.1981 340.171C81.9734 339.482 82.7488 338.749 83.5241 337.974C84.2133 337.199 85.0317 336.51 85.9793 335.907C86.8408 335.217 88.0469 334.873 89.5975 334.873C91.4067 334.873 93.0865 335.562 94.6372 336.94C96.1017 338.319 96.834 340.214 96.834 342.626C96.834 345.383 95.7571 347.709 93.6034 349.604C91.3636 351.499 88.6499 352.447 85.4624 352.447C82.6196 352.447 79.949 351.585 77.4507 349.863C74.9524 348.14 72.7987 345.943 70.9896 343.272C69.1805 340.515 67.759 337.543 66.7252 334.356C65.6915 331.082 65.1746 327.981 65.1746 325.052C65.1746 318.935 65.9068 313.853 67.3713 309.804C68.7497 305.669 70.645 302.395 73.0571 299.983C75.3831 297.485 78.1399 295.762 81.3273 294.814C84.4287 293.78 87.7023 293.263 91.1482 293.263L134.567 293.263ZM142.579 323.889C142.579 321.477 141.976 319.452 140.769 317.815C139.563 316.179 138.056 314.843 136.247 313.81C135.988 313.896 135.73 313.939 135.471 313.939C135.127 313.939 134.825 313.939 134.567 313.939L95.671 313.939C97.5662 315.662 99.4615 317.772 101.357 320.271C103.166 322.683 105.233 325.009 107.559 327.249C109.885 329.488 112.599 331.384 115.7 332.934C118.802 334.485 122.592 335.26 127.072 335.26C129.226 335.26 131.25 335.045 133.145 334.614C134.954 334.097 136.591 333.365 138.056 332.418C139.434 331.47 140.554 330.307 141.416 328.929C142.191 327.464 142.579 325.784 142.579 323.889ZM121.774 274.083C123.583 274.083 125.047 273.221 126.167 271.498C127.287 269.689 128.235 267.363 129.01 264.52C129.699 261.591 130.346 258.318 130.949 254.7C131.465 250.995 132.069 247.205 132.758 243.328C133.447 239.451 134.308 235.704 135.342 232.086C136.376 228.381 137.754 225.108 139.477 222.265C141.114 219.336 143.182 217.01 145.68 215.287C148.178 213.478 151.28 212.573 154.984 212.573C158.861 212.573 162.134 213.693 164.805 215.933C167.562 218.087 169.758 220.843 171.395 224.203C173.118 227.563 174.367 231.31 175.143 235.445C175.918 239.494 176.306 243.457 176.306 247.334C176.306 249.229 176.219 251.469 176.047 254.053C175.961 256.552 175.702 259.136 175.272 261.807C174.841 264.391 174.238 266.976 173.463 269.56C172.773 272.058 171.826 274.298 170.62 276.28C169.414 278.261 167.949 279.855 166.226 281.061C164.503 282.267 162.436 282.87 160.024 282.87C158.128 282.87 156.491 282.396 155.113 281.449C153.735 280.501 152.529 279.338 151.495 277.96C150.461 276.495 149.557 274.901 148.781 273.178C148.092 271.369 147.532 269.646 147.101 268.009C145.378 271.714 143.095 274.729 140.253 277.055C137.41 279.381 133.576 280.544 128.752 280.544C124.875 280.544 121.731 279.51 119.319 277.443C116.82 275.375 114.882 273.178 113.504 270.852C111.091 273.609 108.206 275.806 104.846 277.443C101.486 279.079 97.6093 279.898 93.2158 279.898C88.6499 279.898 84.644 279.036 81.1981 277.313C77.7522 275.504 74.8232 273.135 72.411 270.206C69.9989 267.277 68.1898 263.96 66.9837 260.256C65.7776 256.466 65.1746 252.632 65.1746 248.755C65.1746 247.032 65.3038 245.353 65.5622 243.716C63.3224 242.768 61.2118 241.648 59.2304 240.356C57.249 238.978 55.526 237.427 54.0615 235.704C52.597 233.981 51.434 232.086 50.5725 230.018C49.711 227.864 49.2803 225.495 49.2803 222.911C49.2803 221.446 49.4956 220.068 49.9264 218.776C50.271 217.397 50.8309 216.191 51.6063 215.158C52.2954 214.038 53.2 213.176 54.3199 212.573C55.3537 211.884 56.5598 211.539 57.9381 211.539C60.3503 211.539 62.1594 212.573 63.3655 214.641C64.5715 216.622 65.1746 218.991 65.1746 221.748C65.1746 223.126 65.0023 224.419 64.6577 225.625C64.3131 226.745 63.9685 227.864 63.6239 228.984C63.1932 230.018 62.8055 231.052 62.4609 232.086C62.1163 233.119 61.944 234.153 61.944 235.187C61.944 236.565 62.2886 237.858 62.9778 239.064C63.667 240.184 64.6146 241.088 65.8207 241.777C66.4237 238.504 67.5006 235.402 69.0512 232.473C70.5158 229.544 72.411 226.96 74.737 224.72C76.9769 222.48 79.6474 220.714 82.7488 219.422C85.8501 218.044 89.3391 217.354 93.2158 217.354C97.7816 217.354 101.831 218.259 105.363 220.068C108.809 221.877 111.738 224.246 114.15 227.175C116.562 230.104 118.371 233.464 119.577 237.255C120.783 240.959 121.386 244.793 121.386 248.755C121.386 252.546 120.826 256.207 119.706 259.739C118.586 263.271 116.95 266.502 114.796 269.431C115.485 270.723 116.39 271.843 117.51 272.791C118.629 273.652 120.051 274.083 121.774 274.083ZM67.1129 248.755C67.1129 250.564 67.8021 252.158 69.1805 253.537C70.4727 254.829 72.2818 255.906 74.6078 256.767C76.9338 257.542 79.6905 258.145 82.878 258.576C86.0655 259.007 89.5114 259.222 93.2158 259.222C97.0063 259.222 100.495 259.007 103.683 258.576C106.87 258.145 109.627 257.542 111.953 256.767C114.279 255.906 116.131 254.829 117.509 253.537C118.802 252.158 119.448 250.564 119.448 248.755C119.448 246.946 118.802 245.352 117.509 243.974C116.131 242.596 114.279 241.476 111.953 240.614C109.627 239.753 106.87 239.107 103.683 238.676C100.495 238.245 97.0063 238.03 93.2158 238.03C89.5114 238.03 86.0655 238.245 82.878 238.676C79.6905 239.107 76.9338 239.753 74.6078 240.614C72.2818 241.476 70.4727 242.596 69.1805 243.974C67.8021 245.352 67.1129 246.946 67.1129 248.755ZM174.367 247.334C174.367 245.094 174.195 242.639 173.85 239.968C173.506 237.212 172.903 234.67 172.041 232.344C171.266 229.932 170.189 227.951 168.811 226.4C167.432 224.763 165.752 223.945 163.771 223.945C161.014 223.945 158.947 225.237 157.568 227.821C156.19 230.32 155.07 233.55 154.209 237.513C153.347 241.39 152.572 245.654 151.883 250.306C151.28 254.958 150.289 259.352 148.91 263.487C149.944 264.779 151.366 265.985 153.175 267.105C154.984 268.225 157.267 268.785 160.024 268.785C162.436 268.785 164.546 268.268 166.355 267.234C168.165 266.2 169.629 264.736 170.749 262.841C171.955 260.945 172.86 258.705 173.463 256.121C174.066 253.45 174.367 250.521 174.367 247.334ZM57.4213 190.695C57.4213 193.969 56.3013 196.726 54.0615 198.965C51.8216 201.205 49.0649 202.325 45.7913 202.325C42.5176 202.325 39.7609 201.205 37.5211 198.965C35.2812 196.726 34.1613 193.969 34.1613 190.695C34.1613 187.422 35.2812 184.665 37.5211 182.425C39.7609 180.185 42.5176 179.065 45.7913 179.065C49.0649 179.065 51.8216 180.185 54.0615 182.425C56.3013 184.665 57.4213 187.422 57.4213 190.695ZM134.567 177.902C135.17 177.902 135.902 177.773 136.764 177.515C137.625 177.256 138.443 176.912 139.219 176.481C139.994 176.05 140.683 175.533 141.286 174.93C141.803 174.241 142.062 173.509 142.062 172.733L144 172.733L144 203.747L142.062 203.747C142.062 202.971 141.803 202.282 141.286 201.679C140.683 200.99 139.994 200.43 139.219 199.999C138.443 199.569 137.625 199.224 136.764 198.965C135.902 198.707 135.17 198.578 134.567 198.578L82.3611 198.578C81.4135 198.578 80.4228 198.664 79.389 198.836C78.2691 198.922 77.2784 199.181 76.4169 199.612C75.5554 199.956 74.8662 200.473 74.3493 201.162C73.7463 201.765 73.4448 202.627 73.4448 203.747L71.5065 203.747C71.5065 200.99 71.2049 198.19 70.6019 195.347C69.9989 192.504 69.2235 189.963 68.2759 187.723C67.2421 185.397 66.1222 183.502 64.9161 182.037C63.7101 180.573 62.4609 179.841 61.1687 179.841L61.1687 177.902L134.567 177.902ZM134.567 89.0864C135.17 89.0864 135.902 88.9572 136.764 88.6987C137.625 88.4403 138.443 88.0957 139.219 87.6649C139.994 87.2342 140.683 86.7173 141.286 86.1143C141.803 85.4251 142.062 84.6928 142.062 83.9175L144 83.9175L144 114.931L142.062 114.931C142.062 114.155 141.803 113.466 141.286 112.863C140.683 112.174 139.994 111.614 139.219 111.183C138.443 110.753 137.625 110.408 136.764 110.15C135.902 109.891 135.17 109.762 134.567 109.762L83.9118 109.762C79.0013 109.762 75.4262 110.796 73.1863 112.863C70.8603 114.845 69.6973 117.688 69.6973 121.392C69.6973 124.062 70.3865 126.647 71.7649 129.145C73.1433 131.644 75.34 134.099 78.3552 136.511L134.567 136.511C135.17 136.511 135.902 136.382 136.764 136.123C137.625 135.865 138.443 135.52 139.219 135.089C139.994 134.659 140.683 134.142 141.286 133.539C141.803 132.85 142.062 132.117 142.062 131.342L144 131.342L144 162.355L142.062 162.355C142.062 161.58 141.803 160.891 141.286 160.288C140.683 159.599 139.994 159.039 139.219 158.608C138.443 158.177 137.625 157.833 136.764 157.574C135.902 157.316 135.17 157.186 134.567 157.186L82.3611 157.186C81.4135 157.186 80.4228 157.273 79.389 157.445C78.2691 157.531 77.2784 157.789 76.4169 158.22C75.5554 158.565 74.8662 159.082 74.3493 159.771C73.7463 160.374 73.4448 161.235 73.4448 162.355L71.5064 162.355C71.5064 159.599 71.2049 156.799 70.6019 153.956C69.9989 151.113 69.2235 148.572 68.2759 146.332C67.2421 144.006 66.1222 142.11 64.9161 140.646C63.7101 139.181 62.4609 138.449 61.1687 138.449L61.1687 136.511L75.3831 136.511C72.0233 133.582 69.482 130.093 67.759 126.044C66.0361 121.909 65.1746 117.343 65.1746 112.346C65.1746 109.331 65.5192 106.445 66.2083 103.688C66.8114 100.846 67.8882 98.3473 69.4389 96.1936C70.9896 94.0399 73.0571 92.3169 75.6416 91.0247C78.1398 89.7325 81.2843 89.0864 85.0748 89.0864L134.567 89.0864ZM106.138 5.64024L106.138 54.0985C111.824 54.0124 116.95 53.4955 121.515 52.5478C126.081 51.6002 130.001 50.2649 133.275 48.542C136.462 46.819 138.96 44.7514 140.769 42.3393C142.492 39.9272 143.354 37.2566 143.354 34.3275C143.354 29.0725 141.932 24.2482 139.09 19.8547C136.247 15.375 132.025 12.0152 126.426 9.77535L127.072 7.96624C132.585 9.94765 137.022 13.3505 140.382 18.1748C143.655 22.9129 145.292 28.5987 145.292 35.2321C145.292 40.5733 144.474 45.656 142.837 50.4803C141.114 55.2184 138.573 59.3966 135.213 63.0148C131.853 66.633 127.675 69.519 122.678 71.6727C117.682 73.8264 111.867 74.9033 105.233 74.9033C98.6 74.9033 92.785 73.9126 87.7884 71.9312C82.7918 69.8636 78.6137 67.193 75.2539 63.9194C71.8941 60.6458 69.3958 56.9414 67.759 52.8063C66.036 48.6712 65.1746 44.493 65.1746 40.2718C65.1746 35.7059 65.993 31.3554 67.6298 27.2203C69.1805 22.9991 71.5926 19.2947 74.8662 16.1072C78.1398 12.9198 82.2319 10.3784 87.1423 8.48313C92.0527 6.58787 97.8247 5.64025 104.458 5.64024L106.138 5.64024ZM104.458 26.3158C97.8247 26.3158 92.182 26.5742 87.53 27.0911C82.7918 27.608 78.9152 28.4264 75.9 29.5463C72.8848 30.6662 70.688 32.1308 69.3097 33.9399C67.8452 35.6628 67.1129 37.7735 67.1129 40.2718C67.1129 42.77 67.9744 44.8807 69.6973 46.6036C71.4203 48.3266 73.9186 49.748 77.1922 50.868C80.3797 51.9879 84.2994 52.8063 88.9514 53.3232C93.5173 53.8401 98.6861 54.0985 104.458 54.0985L104.458 26.3158Z" fill="#453614"/>
<path d="M253.371 597.431C261.125 600.533 267.37 605.228 272.109 611.517C276.761 617.719 279.087 625.731 279.087 635.552C279.087 643.65 277.88 651.102 275.468 657.907C272.97 664.713 269.352 670.614 264.614 675.611C259.789 680.521 253.888 684.355 246.91 687.112C239.932 689.868 231.92 691.247 222.875 691.247C213.829 691.247 205.818 689.739 198.84 686.724C191.862 683.623 186.004 679.617 181.265 674.706C176.441 669.796 172.823 664.196 170.411 657.907C167.913 651.619 166.663 645.244 166.663 638.783C166.663 632.924 167.482 627.583 169.119 622.759C170.755 617.935 172.866 613.757 175.45 610.224C177.949 606.692 180.749 603.979 183.85 602.083C186.865 600.102 189.837 599.111 192.766 599.111C195.092 599.111 197.117 599.844 198.84 601.308C200.476 602.687 201.295 604.496 201.295 606.735C201.295 608.975 200.433 610.957 198.71 612.68C196.987 614.316 194.618 615.135 191.603 615.135C187.554 615.135 184.108 615.867 181.265 617.332C178.336 618.71 175.924 620.519 174.029 622.759C172.134 624.999 170.755 627.54 169.894 630.383C169.032 633.14 168.602 635.94 168.602 638.783C168.602 644.727 170.195 649.594 173.383 653.385C176.57 657.175 180.749 660.147 185.917 662.301C191 664.455 196.772 665.962 203.233 666.824C209.694 667.599 216.242 667.987 222.875 667.987C229.164 667.987 235.496 667.427 241.871 666.307C248.246 665.101 254.017 663.162 259.186 660.492C264.269 657.821 268.447 654.375 271.721 650.154C274.908 645.847 276.502 640.549 276.502 634.26C276.502 625.473 274.391 618.236 270.17 612.55C265.949 606.865 260.177 602.428 252.854 599.241L253.371 597.431ZM198.969 539.001C198.969 536.933 199.227 534.909 199.744 532.927C200.261 530.946 200.993 529.18 201.941 527.629C202.802 526.079 203.879 524.83 205.172 523.882C206.464 522.934 207.885 522.46 209.436 522.46C212.02 522.46 214.045 523.279 215.509 524.916C216.888 526.466 217.577 528.534 217.577 531.118C217.577 533.358 216.888 535.21 215.509 536.675C214.045 538.053 212.451 539.346 210.728 540.552C209.005 541.758 207.454 542.964 206.076 544.17C204.612 545.376 203.879 546.927 203.879 548.822C203.879 550.803 204.525 552.871 205.818 555.024C207.11 557.178 208.704 559.246 210.599 561.227L268.361 561.227C268.964 561.227 269.696 561.098 270.558 560.839C271.419 560.581 272.238 560.236 273.013 559.806C273.788 559.375 274.478 558.858 275.081 558.255C275.598 557.566 275.856 556.834 275.856 556.058L277.794 556.058L277.794 587.072L275.856 587.072C275.856 586.296 275.598 585.607 275.081 585.004C274.478 584.315 273.788 583.755 273.013 583.324C272.238 582.893 271.419 582.549 270.558 582.29C269.696 582.032 268.964 581.903 268.361 581.903L216.155 581.903C215.208 581.903 214.217 581.989 213.183 582.161C212.063 582.247 211.073 582.506 210.211 582.936C209.35 583.281 208.661 583.798 208.144 584.487C207.541 585.09 207.239 585.952 207.239 587.072L205.301 587.072C205.301 584.315 204.999 581.515 204.396 578.672C203.793 575.829 203.018 573.288 202.07 571.048C201.036 568.722 199.916 566.827 198.71 565.362C197.504 563.898 196.255 563.165 194.963 563.165L194.963 561.227L207.885 561.227C205.128 558.126 202.975 554.68 201.424 550.889C199.787 547.099 198.969 543.136 198.969 539.001ZM239.932 448.024L239.932 496.482C245.618 496.396 250.744 495.879 255.31 494.931C259.876 493.984 263.795 492.648 267.069 490.925C270.256 489.202 272.755 487.135 274.564 484.723C276.287 482.31 277.148 479.64 277.148 476.711C277.148 471.456 275.727 466.632 272.884 462.238C270.041 457.758 265.82 454.399 260.22 452.159L260.866 450.35C266.38 452.331 270.816 455.734 274.176 460.558C277.45 465.296 279.087 470.982 279.087 477.615C279.087 482.957 278.268 488.039 276.631 492.864C274.908 497.602 272.367 501.78 269.007 505.398C265.647 509.016 261.469 511.902 256.473 514.056C251.476 516.21 245.661 517.287 239.028 517.287C232.394 517.287 226.579 516.296 221.583 514.314C216.586 512.247 212.408 509.576 209.048 506.303C205.688 503.029 203.19 499.325 201.553 495.19C199.83 491.054 198.969 486.876 198.969 482.655C198.969 478.089 199.787 473.739 201.424 469.604C202.975 465.382 205.387 461.678 208.661 458.491C211.934 455.303 216.026 452.762 220.937 450.866C225.847 448.971 231.619 448.024 238.252 448.024L239.932 448.024ZM238.252 468.699C231.619 468.699 225.976 468.958 221.324 469.474C216.586 469.991 212.709 470.81 209.694 471.93C206.679 473.05 204.482 474.514 203.104 476.323C201.639 478.046 200.907 480.157 200.907 482.655C200.907 485.153 201.769 487.264 203.492 488.987C205.215 490.71 207.713 492.131 210.987 493.251C214.174 494.371 218.094 495.19 222.746 495.706C227.312 496.223 232.48 496.482 238.252 496.482L238.252 468.699ZM268.361 374.986C268.964 374.986 269.696 374.857 270.558 374.598C271.419 374.34 272.238 373.995 273.013 373.564C273.788 373.134 274.478 372.617 275.081 372.014C275.598 371.325 275.856 370.592 275.856 369.817L277.794 369.817L277.794 383.515C277.794 384.031 277.751 384.807 277.665 385.84C277.579 386.874 277.407 387.994 277.148 389.2C276.804 390.32 276.287 391.397 275.598 392.431C274.822 393.465 273.788 394.283 272.496 394.886C274.305 396.178 275.856 398.03 277.148 400.443C278.44 402.769 279.087 405.87 279.087 409.747C279.087 413.623 278.699 417.241 277.924 420.601C277.234 423.961 276.114 426.933 274.564 429.518C273.013 432.016 271.075 433.997 268.749 435.462C266.337 436.926 263.494 437.659 260.22 437.659C256.946 437.659 254.104 436.883 251.691 435.333C249.193 433.696 246.996 431.628 245.101 429.13C243.206 426.545 241.483 423.659 239.932 420.472C238.382 417.285 236.917 414.14 235.539 411.039C234.16 407.937 232.782 405.052 231.404 402.381C230.025 399.624 228.518 397.384 226.881 395.661L221.841 395.661C218.998 395.661 216.328 395.877 213.829 396.307C211.331 396.652 209.134 397.298 207.239 398.246C205.258 399.107 203.707 400.356 202.587 401.993C201.467 403.544 200.907 405.568 200.907 408.067C200.907 409.704 201.166 411.426 201.683 413.236C202.199 414.959 202.932 416.552 203.879 418.017C204.827 419.395 205.99 420.558 207.368 421.506C208.661 422.367 210.125 422.798 211.762 422.798C213.14 422.798 214.217 422.496 214.992 421.893C215.768 421.204 216.543 420.472 217.318 419.697C218.008 418.921 218.826 418.232 219.774 417.629C220.635 416.94 221.841 416.595 223.392 416.595C225.201 416.595 226.881 417.285 228.431 418.663C229.896 420.041 230.628 421.937 230.628 424.349C230.628 427.105 229.551 429.431 227.398 431.327C225.158 433.222 222.444 434.17 219.257 434.17C216.414 434.17 213.743 433.308 211.245 431.585C208.747 429.862 206.593 427.665 204.784 424.995C202.975 422.238 201.553 419.266 200.52 416.078C199.486 412.805 198.969 409.704 198.969 406.774C198.969 400.658 199.701 395.575 201.166 391.526C202.544 387.391 204.439 384.118 206.851 381.705C209.177 379.207 211.934 377.484 215.122 376.537C218.223 375.503 221.497 374.986 224.942 374.986L268.361 374.986ZM276.373 405.611C276.373 403.199 275.77 401.175 274.564 399.538C273.358 397.901 271.85 396.566 270.041 395.532C269.783 395.618 269.524 395.661 269.266 395.661C268.921 395.661 268.62 395.661 268.361 395.661L229.465 395.661C231.361 397.384 233.256 399.495 235.151 401.993C236.96 404.405 239.028 406.731 241.354 408.971C243.68 411.211 246.393 413.106 249.495 414.657C252.596 416.208 256.387 416.983 260.866 416.983C263.02 416.983 265.044 416.768 266.94 416.337C268.749 415.82 270.386 415.088 271.85 414.14C273.228 413.192 274.348 412.029 275.21 410.651C275.985 409.187 276.373 407.507 276.373 405.611ZM202.199 333.61L264.743 333.61C268.447 333.61 271.333 333.05 273.401 331.93C275.382 330.81 276.373 329.13 276.373 326.89L277.794 326.89L277.794 336.969C277.794 339.295 277.536 341.492 277.019 343.56C276.416 345.627 275.511 347.479 274.305 349.116C273.013 350.667 271.376 351.916 269.395 352.864C267.413 353.811 264.958 354.285 262.029 354.285L202.199 354.285L202.199 363.331L200.261 363.331L200.261 354.285L178.81 354.285C178.81 347.996 177.475 343.129 174.804 339.683C172.134 336.151 168.559 334.385 164.079 334.385L164.079 333.61L200.261 333.61L200.261 318.103L202.199 318.103L202.199 333.61ZM239.932 248.89L239.932 297.349C245.618 297.263 250.744 296.746 255.31 295.798C259.876 294.85 263.795 293.515 267.069 291.792C270.256 290.069 272.755 288.002 274.564 285.589C276.287 283.177 277.148 280.507 277.148 277.578C277.148 272.323 275.727 267.498 272.884 263.105C270.041 258.625 265.82 255.265 260.22 253.026L260.866 251.216C266.38 253.198 270.816 256.601 274.176 261.425C277.45 266.163 279.087 271.849 279.087 278.482C279.087 283.823 278.268 288.906 276.631 293.73C274.908 298.469 272.367 302.647 269.007 306.265C265.647 309.883 261.469 312.769 256.473 314.923C251.476 317.077 245.661 318.153 239.028 318.153C232.394 318.153 226.579 317.163 221.583 315.181C216.586 313.114 212.408 310.443 209.048 307.17C205.688 303.896 203.19 300.192 201.553 296.056C199.83 291.921 198.969 287.743 198.969 283.522C198.969 278.956 199.787 274.606 201.424 270.47C202.975 266.249 205.387 262.545 208.661 259.357C211.934 256.17 216.026 253.629 220.937 251.733C225.847 249.838 231.619 248.89 238.252 248.89L239.932 248.89ZM238.252 269.566C231.619 269.566 225.976 269.824 221.324 270.341C216.586 270.858 212.709 271.677 209.694 272.796C206.679 273.916 204.482 275.381 203.104 277.19C201.639 278.913 200.907 281.024 200.907 283.522C200.907 286.02 201.769 288.131 203.492 289.854C205.215 291.577 207.713 292.998 210.987 294.118C214.174 295.238 218.094 296.056 222.746 296.573C227.312 297.09 232.48 297.349 238.252 297.349L238.252 269.566ZM279.087 229.48C279.087 231.978 278.225 234.132 276.502 235.941C274.693 237.664 272.539 238.525 270.041 238.525C267.543 238.525 265.432 237.664 263.709 235.941C261.9 234.132 260.995 231.978 260.995 229.48C260.995 226.982 261.9 224.871 263.709 223.148C265.432 221.339 267.543 220.434 270.041 220.434C272.539 220.434 274.693 221.339 276.502 223.148C278.225 224.871 279.087 226.982 279.087 229.48Z" fill="#453614"/>
</svg>
