<svg width="633" height="427" viewBox="0 0 633 427" fill="none" xmlns="http://www.w3.org/2000/svg">
<path d="M171.459 171.795V190.839H170.651V176.615C170.651 171.684 170.651 171.684 165.608 171.684C134.414 171.684 103.333 171.684 72.1396 171.795C70.301 171.795 68.4624 171.684 66.6363 171.684C65.7295 170.963 64.6735 170.454 63.5431 170.193C59.866 168.329 57.5678 164.565 57.5802 160.441C57.4684 158.839 57.5802 157.348 57.5802 155.733C57.5802 152.068 57.692 152.068 61.2449 152.068H150.924C151.731 152.068 152.986 151.72 153.334 152.528C153.794 153.559 152.527 154.13 151.843 154.702C142.899 163.075 132.228 167.895 120.302 170.305C119.619 170.416 118.7 170.193 118.24 171.112C118.662 171.435 119.209 171.572 119.731 171.46H167.434C168.49 171.534 169.546 171.373 170.527 171L171.446 171.224L171.459 171.795Z" fill="#A6A5A5"/>
<path d="M66.1655 37.73H67.3084C67.3084 37.8418 67.4202 37.9536 67.4202 38.0778C70.3519 38.4753 73.3085 38.5996 76.2527 38.4256C87.3834 38.3014 98.5141 38.7611 109.632 38.1896L110.204 37.73H112.837C114.216 38.9971 115.931 38.8729 117.533 38.8729C130.49 40.8232 142.08 45.755 151.708 54.6993C152.279 55.2708 153.435 55.7304 152.975 56.7615C152.627 57.6808 151.372 57.3329 150.565 57.3329H61.1219C57.6808 57.3453 57.569 57.2211 57.569 53.78V49.0843C57.7926 44.2643 59.8672 40.7114 64.4512 38.8729C65.1468 38.7238 65.7556 38.3138 66.1655 37.73Z" fill="#A6A5A5"/>
<path d="M616.29 79.9311V120.752H615.383C616.303 112.267 615.731 103.658 615.731 95.1737C615.818 94.1302 615.048 93.211 614.004 93.1116H606.774C605.284 93.1116 604.253 93.683 604.253 95.4098V116.056C604.153 118.479 605.967 120.541 608.377 120.764C610.688 121.224 613.06 121.224 615.371 120.764C615.855 125.038 615.806 129.348 615.259 133.609C610.787 133.833 606.315 134.181 601.954 133.15C595.992 131.771 592.203 128.218 590.948 122.255C590.488 119.684 590.252 117.075 590.265 114.454V96.329C590.265 94.2669 589.569 93.3476 587.395 93.2358C580.973 92.888 580.973 92.7762 580.973 86.2418V86.0182C580.973 78.7883 580.737 79.9436 587.047 79.9436C589.569 79.9436 590.488 78.9125 590.377 76.5025C590.265 73.6329 590.377 70.7757 590.377 67.906C590.265 65.8439 591.06 64.8128 593.246 64.9246C595.992 65.0364 598.638 65.0364 601.383 64.9246C603.445 64.8128 604.364 65.7321 604.364 67.906C604.253 71.1111 604.364 74.3285 604.364 77.6578C604.364 79.2603 605.06 80.0678 606.774 80.0678C609.644 80.0678 612.514 80.0678 615.371 79.956L616.29 79.9311Z" fill="#A6A5A5"/>
<path d="M615.372 120.874H616.291C616.639 125.917 616.403 130.961 616.403 136.129V166.055C616.403 170.987 616.403 170.987 621.447 170.987H629.82C630.751 170.862 631.708 171.098 632.453 171.67C631.198 172.254 629.807 172.465 628.441 172.241C625.571 172.241 622.701 172.353 619.72 172.241C617.31 172.13 616.167 173.161 616.279 175.682C616.391 179.931 616.279 184.279 616.279 188.527C616.279 189.447 616.167 190.366 616.167 191.857C615.459 190.95 615.161 189.782 615.36 188.652C615.36 184.291 615.248 179.931 615.36 175.583C615.36 173.173 614.328 172.254 612.03 172.254H221.798C215.835 172.254 215.835 172.254 215.835 178.328V188.875C215.835 189.683 216.183 190.602 215.151 191.509C214.804 189.857 214.692 188.155 214.804 186.465V175.918C214.804 172.825 214.232 172.254 211.139 172.254H176.728C175.014 172.254 173.287 172.142 171.449 172.03V171.098L171.672 170.875C184.517 170.875 197.362 170.987 210.207 170.987C214.568 170.987 214.791 170.763 214.791 166.403V114.687C214.679 113.11 214.791 111.532 215.139 109.979C215.81 111.085 216.17 112.352 216.17 113.656C215.735 114.985 215.574 116.389 215.711 117.78V164.8C215.711 170.987 215.711 170.987 221.785 170.987H611.819C614.117 171.098 615.148 170.067 615.148 167.782C615.037 156.539 615.037 145.185 615.037 133.955C615.72 129.619 615.832 125.234 615.372 120.874Z" fill="#15A191"/>
<path d="M616.289 79.9372L615.146 79.8254C615.146 67.3282 615.258 54.831 615.258 42.3214C615.258 41.6382 615.494 40.7189 614.686 40.4829C613.879 40.2468 613.543 41.0543 612.96 41.514C611.692 42.545 610.786 44.1476 608.947 44.955C609.183 43.4643 610.214 43.0047 610.786 42.1972C611.593 41.1661 613.655 40.3587 613.084 38.9922C612.624 37.8493 610.674 38.5325 609.419 38.5325H219.037C218.578 38.5325 217.894 38.4207 217.658 38.9922C217.422 39.5636 218.006 39.9114 218.342 40.3711C219.485 41.75 221.211 42.7811 221.783 44.7314C220.292 43.601 218.876 42.3711 217.534 41.0667C216.503 40.0357 215.807 40.2593 215.807 41.75V96.3351C215.671 97.5401 215.832 98.7575 216.267 99.888C216.217 101.192 215.82 102.459 215.124 103.553C214.776 102.012 214.665 100.422 214.776 98.8445V42.2096C214.665 40.6071 213.969 40.3711 212.826 41.4022C211.447 42.6693 210.416 44.2718 208.13 45.3029C208.938 42.8929 210.888 41.8618 212.031 40.3711C212.379 39.9114 213.062 39.5636 212.714 38.8804C212.491 38.3089 211.795 38.4207 211.335 38.4207H175.695C175.011 38.4207 173.968 38.0729 173.633 39.104C173.409 39.9114 174.204 40.2468 174.664 40.8307C175.807 42.2096 177.533 43.1289 178.217 45.4147C176.043 44.4954 175.123 42.8929 173.744 41.75C173.285 41.4022 172.937 40.7189 172.254 40.9425C171.57 41.1661 171.682 41.9736 171.57 42.545V87.9498C171.682 89.5275 171.57 91.1052 171.223 92.6456C170.403 91.6518 169.993 90.3722 170.08 89.0927C170.552 87.9747 170.738 86.7572 170.651 85.5398V42.545C170.651 38.7561 170.428 38.5325 166.527 38.5325H121.221C120.004 38.371 118.774 38.5698 117.669 39.104C115.954 39.104 114.339 39.2158 112.973 37.9611C114.588 37.6257 116.252 37.5014 117.905 37.6132H166.415C170.316 37.6132 170.539 37.3896 170.539 33.4889C170.539 28.7807 170.651 24.085 170.651 19.265C170.713 19.0165 170.825 18.7805 170.999 18.5817C171.57 19.3271 171.782 20.2961 171.57 21.2154V33.6007C171.57 34.284 171.347 35.2033 172.142 35.5511C172.937 35.8989 173.409 35.0914 173.869 34.6318C175.136 33.4889 176.39 32.3336 177.769 31.3025C177.31 33.1411 175.595 34.1722 174.44 35.4269C174.092 35.8865 173.409 36.2343 173.633 36.9176C173.856 37.6008 174.664 37.489 175.235 37.489H211.248C211.82 37.489 212.627 37.6008 212.851 36.9176C213.074 36.2343 212.391 35.8865 212.043 35.4269C210.901 34.0479 209.286 33.1287 208.254 30.7187C209.944 31.874 211.472 33.2156 212.838 34.7312C213.298 35.079 213.646 35.7623 214.329 35.5387C215.012 35.1908 214.901 34.5076 214.901 33.9361V21.911C214.901 20.8799 215.012 19.8489 215.012 18.2463C215.721 19.1532 216.019 20.3209 215.82 21.4638V34.0728C215.82 34.6442 215.708 35.4517 216.391 35.6753C217.075 35.8989 217.422 35.3275 217.882 34.8678C219.249 33.3026 220.826 31.9485 222.578 30.8553C221.895 33.2653 220.056 34.1846 218.901 35.6753C218.553 36.135 217.87 36.4828 218.217 37.2778C218.441 37.8493 219.137 37.7375 219.596 37.7375H609.171C610.55 37.7375 612.5 38.4207 613.071 37.166C613.643 35.9113 611.581 35.1039 610.773 34.0728C610.202 33.2653 609.394 32.5821 608.251 31.3274C610.202 31.6752 610.773 32.8181 611.581 33.3895C612.612 34.197 613.419 36.135 614.562 35.5635C615.941 34.9921 615.133 33.0417 615.245 31.7746C615.357 28.2217 615.245 24.7807 615.245 21.2278C615.245 20.4203 614.897 19.5134 615.817 18.706C616.624 19.6253 616.276 20.7681 616.276 21.6874V31.4392C616.276 37.6381 616.276 37.6381 622.587 37.6381H629.469C630.463 37.5387 631.457 37.7375 632.339 38.2095C629.817 39.017 627.519 38.5574 625.345 38.6692C623.432 38.781 621.519 38.781 619.606 38.6692C617.084 38.5574 616.276 39.7003 616.276 42.1102C616.413 54.4708 616.289 67.204 616.289 79.9372Z" fill="#15A191"/>
<path d="M66.1717 37.7363C65.7493 38.2581 65.1903 38.6432 64.5692 38.8792C64.0847 38.668 63.5878 38.519 63.0784 38.4196H33.3759C32.9163 38.4196 32.233 38.3078 31.997 38.8792C31.7609 39.4507 32.3448 39.7985 32.6802 40.1463C34.0591 41.637 35.5499 43.016 36.9288 44.5067L36.2455 45.0781C35.438 44.2706 34.643 43.4756 33.8355 42.7799C32.9163 41.9725 32.233 40.2581 31.0777 40.7178C29.6988 41.2892 30.3945 43.016 30.3945 44.2706V167.093C30.3945 167.553 30.3945 168.236 30.9659 168.472C31.5373 168.708 31.8852 168.124 32.3448 167.789C33.7237 166.646 34.7548 164.919 37.1648 163.777C36.1337 165.839 34.7548 166.646 33.7237 167.789C33.1523 168.472 31.997 168.932 32.4566 169.851C32.8044 170.77 33.9473 170.423 34.8666 170.423H60.3206C61.4759 170.534 62.6312 170.298 63.6499 169.739C64.7679 170.05 65.8114 170.559 66.7431 171.23C65.476 171.342 64.1095 171.578 62.8424 171.578H20.6427C19.4501 171.789 18.2203 171.541 17.2016 170.895C19.3756 169.864 21.562 170.547 23.6241 170.323C24.767 170.211 26.4937 170.895 26.9534 169.64C27.413 168.497 25.8105 167.926 25.1148 167.006C23.9595 166.05 23.0527 164.832 22.4812 163.454C24.1086 164.634 25.649 165.938 27.0652 167.354C27.5248 167.702 27.8727 168.385 28.5559 168.162C29.2391 167.814 29.1273 167.131 29.1273 166.559V44.3825C29.1273 43.0035 29.8106 41.0532 28.4441 40.5935C27.0776 40.1339 26.3819 42.0843 25.2266 42.8917C24.4192 43.4632 23.9595 44.4943 22.4688 44.7303C23.2763 42.6681 24.9906 41.637 26.1459 40.2581C26.4937 39.7985 27.177 39.4507 27.0652 38.7674C26.8292 37.8481 25.9099 38.196 25.2266 38.0717C22.5433 38.1836 19.86 38.0717 17.1892 37.7363C17.9097 37.1028 18.8911 36.8419 19.8228 37.0531H63.0536C64.0598 37.4382 65.1033 37.6742 66.1717 37.7363Z" fill="#15A191"/>
<path d="M416.176 11.4748C417.779 12.6177 418.934 13.6488 420.536 13.3134C421.903 13.3134 423.058 12.2699 423.17 10.9034C423.506 9.58658 422.71 8.25736 421.394 7.93437C421.381 7.92195 421.356 7.92195 421.332 7.92195C419.617 7.46231 419.394 6.76664 420.536 5.40015C421.108 4.71691 422.263 3.90943 421.804 2.99016C421.332 1.95908 419.965 2.53052 418.934 2.41872C418.213 2.30691 417.481 2.26964 416.748 2.29449C417.58 1.61124 418.686 1.36279 419.729 1.61124C420.996 1.61124 422.822 1.0398 423.394 2.18269C423.965 3.21377 422.474 4.24485 421.791 5.27593C420.76 6.54304 421.568 7.00267 422.599 7.57412C424.189 8.39401 424.835 10.3195 424.089 11.9345C423.53 13.5867 421.915 14.6302 420.189 14.4563C418.313 14.5432 416.636 13.2885 416.176 11.4748Z" fill="#575F6A"/>
<path d="M189.453 12.1594C190.521 12.9296 191.801 13.3644 193.13 13.4141C194.608 13.5383 195.913 12.4699 196.111 11.0041C196.472 9.74937 195.751 8.43257 194.496 8.07232C194.422 8.05989 194.347 8.04747 194.273 8.03505C192.67 7.57541 192.086 7.00397 193.354 5.62505C193.925 4.94181 195.08 4.13434 194.621 3.21506C194.161 2.07218 192.782 2.75542 191.751 2.64362C191.105 2.65604 190.471 2.49455 189.912 2.18398C191.826 1.6995 193.813 1.62496 195.764 1.94795C196.571 2.17156 196.447 2.75542 195.987 3.43867C195.527 4.12191 195.08 4.70578 194.621 5.38902C193.925 6.3083 193.577 6.87974 194.956 7.45118C196.546 8.15927 197.366 9.91087 196.906 11.5879C196.621 13.1283 195.366 14.2836 193.813 14.4576C191.975 14.5694 190.26 14.2215 189.453 12.1594Z" fill="#575F6A"/>
<path d="M439.116 1.95281C438.433 3.21992 437.625 4.36281 436.818 5.62992C435.687 6.74796 435.675 8.58651 436.805 9.72939L436.818 9.74182C437.762 10.9717 438.532 12.3257 439.116 13.7543C437.389 13.0711 436.818 11.3568 435.898 10.0896C435.091 8.94677 434.631 8.94677 433.836 10.0896C433.004 11.5058 432.01 12.8226 430.855 13.9904C430.991 12.4624 431.687 11.0338 432.805 9.97785C434.072 8.78527 434.134 6.78522 432.929 5.51811C432.892 5.46842 432.842 5.43116 432.805 5.39389C431.886 4.12678 431.091 2.87209 430.283 1.60498C431.998 1.95281 432.234 2.98389 432.805 3.77894C434.755 6.76038 434.755 6.76038 436.706 3.89075C437.389 3.0957 437.737 2.17642 439.116 1.95281Z" fill="#575F6A"/>
<path d="M204.589 1.4895C205.396 2.75661 206.303 4.0113 207.11 5.27841C207.918 6.54552 208.378 6.42129 209.173 5.27841C209.98 4.0113 210.899 2.75661 211.694 1.60131L212.378 2.06094C211.657 3.36532 210.85 4.63243 209.98 5.84985C208.949 6.90578 208.949 8.58283 209.98 9.63876C210.999 10.9556 211.819 12.4339 212.39 13.9991C211.011 13.527 210.551 12.2724 209.868 11.2413C208.253 8.83129 208.253 8.83129 206.651 11.1295C206.042 12.3593 205.185 13.4649 204.129 14.3469C203.992 13.3656 204.39 12.409 205.16 11.8127C207.682 9.06732 207.57 6.54552 205.048 3.8995C204.626 3.37774 204.278 2.8063 204.017 2.18517L204.589 1.4895Z" fill="#575F6A"/>
<path d="M0 99.2036C1.71433 99.8868 2.29819 101.489 3.21747 102.645C3.90071 103.564 4.36035 103.564 4.93179 102.645C5.73926 101.378 6.64612 100.123 7.6772 98.3961C8.03745 99.3278 7.76416 100.396 6.99395 101.03C4.47215 103.676 4.70818 106.086 7.10575 108.719C7.88838 109.353 8.1741 110.421 7.789 111.353C6.88215 109.974 5.96287 108.719 5.0436 107.34C4.36035 106.198 3.77649 106.073 3.09324 107.34C2.28577 108.719 1.25469 110.086 0.111804 111.813C-0.136649 110.632 0.248453 109.415 1.14288 108.608C3.20504 106.198 3.66468 103.788 1.25469 101.378C0.732936 100.719 0.310566 99.9862 0 99.2036Z" fill="#575F6A"/>
<path d="M176.497 13.6475C175.926 11.1257 176.385 8.60395 176.261 5.97035C176.149 3.10072 176.261 3.10072 173.168 3.10072C174.013 2.10691 175.317 1.63484 176.609 1.83361C177.752 2.29324 177.18 3.67216 177.18 4.70324C177.292 7.68467 177.18 10.6661 177.18 13.6475H176.497Z" fill="#575F6A"/>
<path d="M109.632 38.0778C98.5141 38.6493 87.3834 38.1896 76.2651 38.3014C73.321 38.5375 70.3519 38.4256 67.4326 37.9536C67.5444 37.8418 67.5444 37.73 67.6562 37.73H109.297L109.632 38.0778Z" fill="#15A191"/>
<path d="M179.819 15.4786L186.701 0L187.384 0.347834L180.502 15.8265L179.819 15.4786Z" fill="#4D545F"/>
<path d="M109.636 38.0755L109.176 37.7276L110.22 37.6158L109.636 38.0755Z" fill="#15A191"/>
<path d="M67.665 37.7276C67.6526 37.8519 67.5532 37.9513 67.4414 37.9513C67.4289 37.8395 67.3171 37.7276 67.3171 37.6158C67.4041 37.7028 67.5407 37.7525 67.665 37.7276Z" fill="#15A191"/>
<path d="M170.647 170.643C170.647 155.388 170.647 140.021 170.536 124.766C170.685 123.374 170.486 121.958 169.952 120.641C169.877 119.362 170.287 118.095 171.107 117.089C171.455 118.703 171.567 120.368 171.455 122.02C171.455 138.195 171.567 154.481 171.567 170.643L171.331 170.879L170.647 170.643Z" fill="#15A191"/>
<path d="M215.256 109.755V103.445C215.914 102.327 216.299 101.072 216.399 99.7801C219.728 87.3947 227.865 79.7051 239.219 78.5622C245.865 77.8789 251.952 79.2454 256.996 83.8418C257.456 84.3014 257.915 85.2207 258.71 84.7611C259.394 84.4132 259.17 83.494 259.17 82.8107V62.3879C259.182 58.599 259.294 58.4872 262.959 58.4872H269.27C272.947 58.4872 273.059 58.599 273.059 62.3879V101.954C273.059 111.358 272.947 120.65 273.059 130.054C273.059 132.576 272.251 133.719 269.617 133.607C267.207 133.495 264.922 133.495 262.512 133.607C260.102 133.719 258.835 132.924 259.071 130.402C259.071 129.83 259.182 129.023 258.611 128.799C258.04 128.452 257.692 129.147 257.344 129.371C242.896 140.837 222.598 134.191 217.094 116.178C216.871 115.37 216.635 114.464 216.411 113.656C216.287 112.29 215.889 110.96 215.256 109.755ZM258.946 106.774C258.946 97.9415 252.76 91.519 244.151 91.6308C235.555 91.6308 229.467 97.9415 229.356 106.65C229.356 115.482 235.542 121.793 244.263 121.793C252.872 121.793 258.946 115.607 258.946 106.774Z" fill="#A6A5A5"/>
<path d="M171.221 92.4381L171.333 94.5003C171.221 94.6121 171.333 94.8481 171.333 94.9599V95.5314L170.65 95.6432C167.209 95.5314 163.88 95.5314 160.438 95.4196H116.636C109.294 95.4196 105.17 90.2642 106.549 83.382C107.12 79.3943 110.437 76.3756 114.462 76.152C115.829 76.0402 117.208 75.916 118.698 75.916C133.494 75.916 148.289 75.916 163.085 75.8042C165.718 75.8042 167.097 76.6117 167.78 79.1335C168.7 82.3385 169.619 85.556 170.302 88.7734C169.917 90.0654 170.277 91.4692 171.221 92.4381Z" fill="#A6A5A5"/>
<path d="M83.7112 113.988C91.2766 113.988 98.7302 113.876 106.308 113.988C112.383 114.1 115.948 117.888 115.948 123.74C115.948 129.591 112.271 133.255 106.084 133.255C94.5065 133.367 83.028 133.255 71.4501 133.255C67.7854 133.255 64.1083 133.143 60.4436 133.255C58.4933 133.255 57.574 132.572 57.6858 130.51C57.7976 125.926 57.7976 121.454 57.6858 116.87C57.574 114.559 58.369 113.764 60.6672 113.764C68.3444 114.1 76.0341 113.988 83.7112 113.988Z" fill="#A6A5A5"/>
<path d="M171.215 115.031C171.24 115.727 171.19 116.41 171.103 117.093C170.284 118.087 169.874 119.367 169.961 120.646C169.215 124.261 168.259 127.814 167.091 131.305C166.743 132.696 165.426 133.628 163.998 133.479C157.575 133.367 151.041 133.591 144.618 133.367C138.879 133.255 135.438 129.367 135.438 123.74C135.438 118.112 138.879 114.224 144.618 114.1C151.848 113.876 159.066 114.1 166.408 113.988C167.787 113.988 169.165 113.876 170.532 113.764L171.215 115.031Z" fill="#A6A5A5"/>
<path d="M69.2712 76.1471C72.029 76.1471 74.8862 76.0353 77.644 76.1471C82.9237 76.3707 86.3647 79.7 86.5883 84.8678C86.9362 90.7189 84.0665 94.7314 78.6751 95.3028C72.3644 95.9861 65.9419 95.5264 59.5194 95.5264C58.0287 95.5264 57.569 94.7314 57.569 93.3525V78.6813C57.569 76.8428 58.3641 76.1595 60.0908 76.1595L69.2712 76.1471Z" fill="#A6A5A5"/>
<path d="M171.214 115.02L170.531 113.765V95.6407L171.214 95.5289C171.798 102.014 171.798 108.535 171.214 115.02Z" fill="#15A191"/>
<path d="M518.816 117.432V84.6367C518.816 79.9285 518.816 79.9285 523.636 79.9285C525.35 79.9285 527.189 80.0403 528.915 79.9285C531.549 79.7049 533.164 80.5 532.816 83.4814C532.704 83.941 532.704 84.6243 533.276 84.8603C533.847 85.0963 534.195 84.5125 534.543 84.1771C545.201 75.6924 559.202 76.7235 568.481 86.5871C579.836 98.6246 578.457 119.271 565.612 129.482C556.556 136.924 543.475 136.824 534.53 129.246C534.183 128.899 533.723 128.327 533.263 128.563C532.456 128.911 532.692 129.83 532.692 130.402V151.384C532.692 154.713 532.468 154.936 529.139 154.936H522.605C519.052 154.936 518.816 154.7 518.816 151.272V117.432ZM562.394 106.538C562.394 97.8171 556.195 91.5189 547.599 91.5189C538.878 91.5189 532.804 97.8296 532.804 106.774C532.804 115.495 538.99 121.793 547.599 121.793C556.208 121.793 562.394 115.482 562.394 106.538Z" fill="#A6A5A5"/>
<path d="M317.672 112.386H300.926C299.895 112.386 298.628 111.927 298.057 113.07C297.597 114.101 298.404 115.02 298.976 115.939C301.846 120.871 308.839 123.393 315.722 122.014C318.417 121.604 320.939 120.412 322.952 118.573C323.734 117.48 325.262 117.219 326.355 118.002C326.405 118.039 326.455 118.076 326.504 118.113L326.616 118.225C328.79 119.604 331.088 120.983 333.387 122.126C335.449 123.157 335.225 124.188 333.958 125.679C329.436 130.747 323.175 133.94 316.405 134.623C300.802 136.586 287.622 128.325 283.945 114.337C280.851 102.411 285.087 89.7897 294.616 83.2554C304.256 76.5968 317.784 76.485 326.952 83.1436C336.008 89.8021 339.101 98.97 338.194 109.865C338.082 111.703 337.051 112.163 335.325 112.163C329.362 112.275 323.511 112.386 317.672 112.386ZM310.554 101.728H321.56C324.194 101.728 324.43 101.156 323.511 98.7464C321.448 93.8146 316.865 90.945 311.013 90.945C304.939 90.945 300.119 94.0382 298.057 99.0818C297.249 101.032 297.833 101.84 299.895 101.84C303.448 101.728 307.001 101.728 310.554 101.728Z" fill="#A6A5A5"/>
<path d="M423.169 134.977C408.026 134.977 397.255 126.716 394.038 114.107C389.814 99.1004 398.572 83.4976 413.579 79.2739C423.628 76.4415 434.411 79.3981 441.629 86.9387C446.101 91.6344 445.989 91.8704 440.486 95.0755C440.026 95.2991 439.567 95.6469 439.107 95.883C437.505 96.8022 436.014 98.0569 434.287 98.4048C432.113 98.8644 431.654 96.2308 430.275 95.0755C424.2 90.3425 415.504 91.0878 410.324 96.7898C405.168 102.989 405.727 112.119 411.591 117.66C417.206 122.703 426.61 122.48 431.542 116.852C433.492 114.554 434.871 114.554 437.157 116.045C439.045 117.337 441.033 118.442 443.12 119.374C445.418 120.517 445.418 121.784 443.927 123.623C438.2 131.312 430.511 134.753 423.169 134.977Z" fill="#A6A5A5"/>
<path d="M364.456 134.98C356.89 134.756 349.437 132.458 344.381 125.004C342.666 122.482 342.666 122.259 345.524 120.644C348.045 119.265 350.567 117.898 353.089 116.395C354.232 115.712 354.927 115.936 355.611 117.079C358.418 121.551 363.897 123.538 368.915 121.899C370.754 121.327 372.356 120.408 372.58 118.346C372.928 116.172 371.313 114.905 369.599 114.221C367.3 113.302 365.015 112.619 362.605 111.811C359.499 110.942 356.468 109.836 353.549 108.482C341.859 102.867 343.586 88.7673 350.803 82.9163C360.207 75.3509 376.953 77.413 384.059 87.0406C385.45 88.8791 385.45 90.022 383.152 91.0531C380.742 92.196 378.332 93.5749 376.046 94.9538C375.214 95.7116 373.909 95.6619 373.152 94.8172C373.127 94.7799 373.089 94.755 373.065 94.7178C372.953 94.606 372.829 94.3699 372.717 94.2581C370.195 90.9289 366.754 90.1338 362.853 90.9289C360.952 91.1276 359.449 92.5935 359.188 94.4818C358.965 96.5439 360.456 97.6868 362.058 98.3825C364.89 99.5253 367.797 100.445 370.779 101.128C373.636 101.91 376.406 102.979 379.04 104.333C386.444 108.644 388.953 118.134 384.655 125.551C383.624 127.364 382.22 128.93 380.531 130.135C376.158 133.837 370.878 134.98 364.456 134.98Z" fill="#A6A5A5"/>
<path d="M466.636 87.2716C468.698 85.433 470.189 83.3708 472.251 81.8801C474.611 80.377 477.269 79.3956 480.052 79.0105C481.891 78.7869 482.922 79.2341 482.922 81.3087V91.5201C482.922 93.2468 482.239 93.9301 480.512 94.1537C470.76 94.9612 466.747 99.4333 466.636 109.297C466.636 116.291 466.524 123.285 466.636 130.279C466.636 132.577 465.952 133.72 463.542 133.484C461.021 133.372 458.499 133.372 455.977 133.484C453.455 133.608 452.76 132.577 452.76 130.279C452.871 121.446 452.76 112.614 452.76 103.781C452.76 96.9115 452.871 90.0294 452.76 83.023C452.76 80.6254 453.567 79.7062 455.977 79.818C458.722 79.9298 461.368 79.9298 464.114 79.818C465.841 79.818 466.747 80.5012 466.636 82.3398V87.2716Z" fill="#A6A5A5"/>
<path d="M492.44 106.653C492.44 98.7401 492.552 90.9387 492.44 83.0255C492.44 80.6155 493.248 79.6962 495.645 79.8204C498.279 79.9323 500.925 79.9323 503.558 79.8204C505.397 79.8204 506.304 80.3919 506.304 82.3422V130.853C506.304 132.691 505.496 133.374 503.782 133.374C501.037 133.374 498.167 133.263 495.409 133.374C493.235 133.486 492.539 132.455 492.539 130.393C492.44 122.592 492.44 114.567 492.44 106.653Z" fill="#A6A5A5"/>
<path d="M492.441 65.5928C492.441 64.2139 492.553 62.835 492.441 61.3443C492.329 59.2821 493.124 58.251 495.311 58.3628C498.069 58.4746 500.926 58.3628 503.684 58.3628C505.41 58.3628 506.317 58.9343 506.205 60.7728C506.094 63.8661 506.094 67.0835 506.205 70.1768C506.404 71.3818 505.584 72.4998 504.379 72.6986C504.143 72.7358 503.907 72.7358 503.671 72.6986H495.075C493.124 72.6986 492.441 71.8911 492.553 69.9407C492.441 68.5742 492.441 67.0835 492.441 65.5928Z" fill="#A6A5A5"/>
<path d="M171.219 95.0706C171.107 94.934 171.107 94.7476 171.219 94.611V95.0706Z" fill="#2D313B"/>
<path d="M34.4691 302.475V274.611L34.6928 271.406C36.1835 270.947 36.2953 269.568 36.2953 268.425V251.108C36.2953 250.077 36.4071 248.698 34.9164 248.698C33.4256 248.698 33.5499 250.077 33.5499 251.108V267.853C33.5499 270.263 34.5809 271.518 37.2145 271.518C46.8421 271.406 56.4821 271.406 66.1096 271.518C68.4078 271.518 69.4389 270.487 69.5507 268.189V250.872C69.5507 249.952 69.5507 248.698 68.2836 248.698C66.7929 248.586 66.7929 249.841 66.7929 250.872V268.189C66.7929 270.487 67.824 271.63 70.234 271.518H339.048C344.899 271.518 345.011 271.518 345.011 265.555V251.331C345.011 250.3 345.358 248.698 343.632 248.698C341.905 248.698 342.253 250.3 342.253 251.331C342.253 256.723 342.141 262.226 342.253 267.617C342.253 270.947 342.936 271.518 346.377 271.518H373.906C377.458 271.518 378.03 270.947 378.03 267.394V251.331C378.03 250.3 378.378 248.698 376.651 248.698C375.048 248.698 375.272 250.3 375.272 251.331C375.272 256.835 375.16 262.338 375.272 267.841C375.272 271.046 376.999 272.773 380.092 272.773C385.707 272.885 391.335 272.773 396.838 272.773C397.645 272.773 398.676 272.885 398.676 271.854C398.676 270.586 397.533 270.823 396.726 270.823C391.335 270.823 386.067 270.711 380.676 270.823C377.471 270.823 376.775 271.742 376.775 274.947V301.668C376.775 304.873 377.583 305.792 380.788 305.792C386.067 305.904 391.335 305.792 396.502 305.792C397.534 305.792 398.912 305.904 398.912 304.413C398.912 302.923 397.534 303.034 396.502 303.034C391.111 303.034 385.831 302.923 380.452 303.034C377.583 303.034 376.663 303.954 376.663 306.935V368.055C376.663 370.576 377.583 371.843 380.104 371.955H396.614C397.533 371.955 398.788 371.955 398.788 370.576C398.788 369.086 397.521 369.086 396.502 369.086H380.216C377.806 369.086 376.552 370.229 376.552 372.75C376.663 382.154 376.663 391.67 376.552 401.074C376.552 403.484 377.471 404.739 379.881 404.739C385.496 404.85 391.123 404.739 396.627 404.739C397.546 404.739 398.689 404.627 398.689 403.248C398.689 401.869 397.422 401.869 396.515 401.869C390.9 401.869 385.272 401.757 379.769 401.869C377.111 401.881 374.974 404.031 374.949 406.689V406.801C374.837 412.764 374.837 418.727 374.949 424.689C374.949 425.609 374.949 426.863 376.328 426.863C377.707 426.863 377.707 425.721 377.707 424.801V407.26C377.707 404.962 376.564 403.931 374.266 403.931H345.371C343.073 403.931 341.93 404.962 341.93 407.26V424.814C341.93 425.733 341.93 426.876 343.309 426.988C344.688 426.988 344.688 425.845 344.688 424.925V407.385C344.899 405.695 343.694 404.155 341.992 403.944C341.743 403.919 341.495 403.919 341.246 403.944H71.7371C67.1531 403.944 66.5817 404.403 66.5817 408.987V423.671C66.5568 424.366 66.6065 425.05 66.6935 425.733C66.6935 426.429 67.2649 426.988 67.9606 427H68.0724C68.706 427 69.2153 426.491 69.2153 425.857C69.3147 424.826 69.3519 423.795 69.3271 422.764V407.509C69.3271 405.211 68.296 403.956 65.7742 403.956C56.0224 404.068 46.3949 404.068 36.6431 404.068C34.2331 404.416 34.4691 402.577 34.3449 401.086V371.632L34.2331 370.713C34.3325 370.378 34.3698 370.03 34.3449 369.682C34.4691 347.545 34.4691 324.96 34.4691 302.475ZM343.88 272.661H343.309C342.166 272.661 341.01 272.549 339.868 272.549H71.2899C70.2588 272.549 69.2277 272.661 68.1966 272.661H67.6252C57.538 272.661 47.5502 272.661 37.463 272.549C36.0841 272.549 35.289 272.897 35.289 274.388C35.4008 284.363 35.0654 294.45 35.5126 304.438V305.01C35.4257 305.146 35.376 305.308 35.4008 305.469V370.266C35.4008 370.378 35.4008 370.489 35.5126 370.489V371.061C35.5126 381.148 35.4008 391.359 35.289 401.447C35.289 402.937 35.8605 403.397 37.3512 403.397C47.4384 403.285 57.4262 403.285 67.5134 403.285H68.1966C69.3395 403.285 70.4948 403.397 71.6377 403.397H339.42C340.687 403.397 341.83 403.285 343.085 403.285H343.768C353.744 403.285 363.607 403.285 373.583 403.397C375.073 403.397 375.881 403.049 375.881 401.335C375.769 391.248 375.769 381.148 375.769 370.949V370.378C375.769 369.694 375.881 368.999 375.881 368.315V307.196C375.881 306.389 375.769 305.593 375.769 304.898V304.326C375.769 294.351 375.881 284.264 375.881 274.276C375.881 272.785 375.185 272.326 373.819 272.326C363.955 272.673 353.855 272.673 343.88 272.661Z" fill="#15A191"/>
<path d="M609.941 272.314C610.86 271.47 611.332 270.24 611.208 268.985V251.109C611.208 250.302 611.556 249.047 610.289 249.047C609.022 249.047 609.369 250.314 609.369 251.109C609.369 256.96 609.258 262.811 609.369 268.662C609.369 272.215 610.86 273.706 614.301 273.706C619.693 273.818 624.96 273.706 630.351 273.706C631.159 273.706 632.413 274.054 632.413 272.787C632.413 271.408 631.034 271.755 630.239 271.755C624.848 271.755 619.581 271.644 614.189 271.755C611.096 271.755 610.525 272.439 610.525 275.544V302.265C610.525 305.359 611.096 306.054 614.078 306.166C619.469 306.278 624.972 306.166 630.364 306.166C631.047 306.166 632.202 306.39 632.314 305.359C632.426 303.98 631.171 304.328 630.364 304.328H614.078C611.668 304.328 610.413 305.247 610.525 307.881C610.636 327.831 610.636 347.794 610.525 367.745C610.525 370.267 611.668 371.186 613.966 371.186H630.016C630.823 371.186 632.078 371.41 631.966 370.155C631.966 369.124 630.823 369.236 630.128 369.236H613.842C611.556 369.236 610.636 370.267 610.636 372.677C610.748 382.081 610.748 391.597 610.636 401.001C610.636 402.715 611.096 403.982 613.046 404.094C619.357 404.206 625.655 404.094 631.966 404.094C632.19 404.094 632.314 403.746 632.538 403.634C632.19 402.603 631.395 402.951 630.699 402.951C625.308 402.951 619.804 402.839 614.413 402.951C610.748 402.951 609.593 404.218 609.481 407.883C609.369 412.815 609.481 417.858 609.481 422.79C609.481 423.598 609.133 424.852 610.512 424.74C611.543 424.74 611.32 423.598 611.32 422.79V407.311C611.32 405.013 610.4 403.87 607.879 403.87C598.475 403.982 589.183 403.982 579.779 403.87C577.369 403.87 576.449 404.901 576.338 407.2V422.455C576.338 423.138 576.102 424.293 577.257 424.293C578.288 424.293 578.176 423.15 578.176 422.455V407.187C578.176 405.013 577.257 403.858 574.847 403.858C557.989 403.97 541.132 403.97 524.162 403.858C521.752 403.858 520.721 404.889 520.721 407.075V422.554C520.721 423.237 520.61 424.157 521.641 424.157C522.784 424.157 522.672 423.125 522.672 422.442V406.964C522.672 404.79 521.529 403.87 519.342 403.87H491.242C489.863 403.87 488.609 404.094 488.497 405.597C487.926 411.908 488.385 418.219 488.261 424.629C489.752 424.405 489.528 423.598 489.528 422.914V407.423C489.528 403.87 488.385 402.727 484.82 402.727C479.317 402.616 473.813 402.727 468.31 402.727C467.739 402.727 467.043 402.504 466.708 403.299C466.944 404.218 467.627 403.982 468.198 403.982H484.708C488.037 403.982 488.497 403.411 488.497 400.193C488.497 390.441 488.497 380.578 488.385 370.839V369.795C488.385 358.217 488.497 346.515 488.497 334.937C488.497 325.073 488.385 315.21 488.385 305.346V304.663C488.385 294.576 488.385 284.6 488.497 274.501C488.683 273.085 487.727 271.768 486.323 271.519H485.627C479.776 271.408 473.925 271.519 468.087 271.519C467.403 271.519 466.484 271.519 466.484 272.551C466.484 273.47 467.403 273.47 468.087 273.47H485.627C487.59 273.582 489.28 272.103 489.416 270.141V269.917C489.528 263.147 489.528 256.277 489.528 249.507C489.528 249.283 489.292 249.159 489.068 248.935C488.149 249.159 488.385 249.854 488.385 250.426V268.774C488.249 270.016 488.721 271.259 489.64 272.103C489.665 272.526 489.615 272.948 489.528 273.37C489.64 283.805 489.64 294.352 489.752 304.8V370.975C489.752 380.951 489.752 390.926 489.64 400.901C489.64 402.504 490.211 403.075 491.814 403.075C501.566 402.963 511.429 402.963 521.169 402.963H578.275C588.027 402.963 597.891 402.963 607.63 403.075C609.233 403.075 609.804 402.504 609.804 400.901C609.692 390.926 609.692 380.951 609.692 370.975V369.919C609.692 360.167 609.804 350.54 609.804 340.788C609.804 328.974 609.692 317.16 609.692 305.346V304.775C609.804 294.116 609.928 283.557 609.692 272.898L609.941 272.314Z" fill="#15A191"/>
<path d="M488.261 370.151V371.182H466.472V370.151H476.447C477.826 370.151 479.317 370.375 480.348 369.232L480.46 369.12C480.956 367.729 481.118 366.226 480.919 364.76C480.919 346.983 480.919 329.095 480.807 311.318C480.807 310.051 482.186 307.529 478.969 307.653C478.633 303.976 475.876 306.038 474.273 305.815C471.751 305.467 469.105 305.69 466.472 305.355C473.689 304.436 480.919 305.007 488.149 305.131V305.815C486.422 305.926 484.596 305.243 483.106 306.734L482.87 306.957C481.727 307.305 481.95 308.336 481.95 309.131V366.698C481.95 369.22 483.093 370.487 485.615 370.375C486.485 370.176 487.379 370.102 488.261 370.151Z" fill="#15A191"/>
<path d="M521.862 272.317H576.907V273.124H521.862V272.317Z" fill="#15A191"/>
<path d="M53.041 252.478C52.7056 252.59 52.3578 252.59 52.1342 252.702C51.3267 252.702 50.7553 252.925 50.6435 253.844C50.5192 254.888 51.3267 254.888 52.01 255C53.1032 255.049 54.01 255.869 54.1839 256.95C54.4324 257.832 53.9976 258.751 53.1653 259.124C52.0845 259.795 50.6932 259.609 49.836 258.677C50.5192 257.981 50.9789 258.789 51.5627 258.789C52.3826 258.9 53.1404 258.341 53.2771 257.522C53.4634 256.863 53.1156 256.167 52.4696 255.919H52.1342C50.2956 255.919 49.6124 255.112 49.9602 253.397C50.4074 251.335 52.01 252.478 52.9292 252.018L53.041 252.478Z" fill="#4D545F"/>
<path d="M464.982 292.162C465.79 291.591 466.013 292.386 466.585 292.386C467.504 292.498 468.423 292.386 468.647 291.355C468.846 290.634 468.436 289.876 467.728 289.64C467.616 289.64 467.38 289.529 467.268 289.64C465.665 289.516 464.87 288.945 465.206 287.23C465.665 285.168 467.156 285.851 468.411 285.851C468.411 286.535 468.063 286.535 467.728 286.535C467.044 286.646 466.237 286.646 466.237 287.566C466.125 288.609 466.933 288.609 467.616 288.721C468.883 288.883 469.815 289.963 469.79 291.243C469.79 292.274 469.106 292.734 468.299 293.081C467.131 293.69 465.678 293.293 464.982 292.162Z" fill="#48505B"/>
<path d="M506.379 252.128C505.696 253.047 504.094 252.364 503.969 253.742C503.845 255.121 505.112 254.774 505.808 255.233C507.187 255.916 507.87 256.96 507.075 258.326C506.032 260.053 504.553 259.929 502.938 258.786C503.51 257.979 504.081 258.786 504.541 258.786C505.572 258.786 506.255 258.438 506.379 257.407C506.442 256.687 505.945 256.041 505.237 255.916H504.889C503.174 255.916 502.479 255.109 502.827 253.506C503.51 251.221 505.001 252.016 506.379 252.128Z" fill="#48505B"/>
<path d="M12.4525 290.329C12.8873 290.527 13.3469 290.676 13.8314 290.788C14.6016 291.012 15.4215 290.565 15.6575 289.782C15.6575 289.77 15.6575 289.757 15.6699 289.745C15.6575 289.62 15.6948 289.496 15.7817 289.397C15.906 288.676 15.4587 287.981 14.7507 287.794H14.5146C13.2475 287.683 11.9928 287.683 12.3282 285.732C12.6761 283.67 14.055 283.894 15.6575 284.005C14.9743 285.049 13.2475 284.13 13.2475 285.732C13.2475 287.223 14.6264 286.763 15.4215 287.223C16.8004 288.03 17.3718 289.061 16.4526 290.428C15.1979 292.043 13.7072 291.695 12.4525 290.329Z" fill="#4D545F"/>
<path d="M396.976 389.409C397.547 388.838 397.895 389.409 398.243 389.521C399.274 389.869 400.305 389.869 400.653 388.713C401.001 387.446 400.081 386.999 399.05 386.875C396.628 386.651 396.976 385.049 397.547 383.67C398.119 382.291 399.609 382.987 400.876 383.21C400.305 384.241 399.498 383.67 398.926 383.906C398.454 383.943 398.106 384.353 398.119 384.825C398.119 385.397 398.23 385.856 398.926 385.968C399.125 385.943 399.324 385.993 399.498 386.08C400.665 386.154 401.597 387.086 401.672 388.254C401.783 389.248 401.15 390.179 400.181 390.428C399.013 390.912 397.659 390.477 396.976 389.409Z" fill="#48505B"/>
<path d="M498.244 258.907C495.946 259.814 494.691 259.242 494.107 257.18C493.424 254.77 494.455 252.248 496.281 251.9C498.455 251.553 499.263 252.931 499.61 254.658C499.933 255.938 499.635 257.292 498.803 258.323L498.356 257.987C498.952 256.807 499.027 255.441 498.592 254.199C498.244 253.056 497.325 252.136 496.058 252.944C494.567 253.863 494.679 255.466 495.026 256.845C495.076 257.913 495.995 258.733 497.064 258.683C497.349 258.671 497.635 258.584 497.896 258.447L498.244 258.907Z" fill="#48505B"/>
<path d="M3.84854 290.211C3.09076 288.832 3.0038 287.179 3.61251 285.738C4.03488 284.446 5.41379 283.738 6.70575 284.136C8.42007 284.595 9.46358 287.117 8.6561 289.415C7.97286 291.465 6.82997 292.049 4.53178 291.13L4.99142 290.67C5.33926 290.782 5.67467 291.018 6.0225 290.894C8.08466 290.434 8.20889 288.832 8.08466 287.229C7.97286 286.074 7.51322 284.819 6.13431 284.931C4.30818 285.043 4.19637 286.658 4.19637 288.024C4.22122 288.645 4.29575 289.254 4.41998 289.863L3.84854 290.211Z" fill="#48505B"/>
<path d="M489.293 273.584C489.269 273.162 489.318 272.727 489.405 272.317H520.822V273.124C511.306 273.124 501.902 273.124 492.387 273.236C491.343 273 490.262 273.124 489.293 273.584Z" fill="#15A191"/>
<path d="M41.9252 258.448C40.919 257.082 40.7451 255.28 41.4656 253.752C41.8507 252.398 43.2669 251.628 44.6085 252.013C44.6334 252.013 44.6582 252.013 44.6706 252.026C45.5526 252.287 46.2483 252.97 46.5092 253.864C47.1924 255.417 46.9688 257.218 45.9377 258.572C45.2172 259.604 43.8135 259.914 42.7203 259.243L43.1799 258.784C44.8818 258.659 46.1738 257.181 46.0495 255.479C46.0495 255.467 46.0495 255.467 46.0495 255.454C45.9998 254.97 45.8508 254.498 45.5899 254.088C45.2545 253.28 44.7948 252.709 43.8756 252.821C43.0557 252.846 42.36 253.405 42.1612 254.2C41.7761 255.479 41.8507 256.858 42.3849 258.1L41.9252 258.448Z" fill="#48505B"/>
<path d="M465.669 340.892C467.272 338.594 468.079 336.532 465.905 334.122C467.731 336.656 468.998 335.737 470.489 333.787C468.303 336.197 468.651 338.371 470.601 340.781C468.762 338.371 467.272 338.035 465.669 340.892Z" fill="#4D545F"/>
<path d="M609.942 272.317L609.246 273.124H577.941V272.317H609.942Z" fill="#15A191"/>
<path d="M516.249 252.478C514.299 254.776 514.299 256.838 516.249 259.012C514.522 256.838 513.032 256.267 511.541 259.124C512.808 256.826 513.839 254.764 511.889 252.59L513.491 254.428C514.758 254.205 514.758 252.702 516.249 252.478Z" fill="#4D545F"/>
<path d="M61.4176 256.724C59.579 256.264 59.7032 258.438 57.8647 259.134C59.579 256.724 60.4983 254.438 57.9765 252.14C59.7032 254.078 61.194 255.122 62.5604 251.904C62.6847 253.854 60.4983 254.997 61.4176 256.724Z" fill="#4D545F"/>
<path d="M23.5807 288.832C21.7421 288.372 21.9657 290.782 19.9036 291.13C22.3136 288.72 22.3136 286.546 20.2514 284.359C21.7421 284.707 21.7421 286.074 22.7732 286.533L24.9472 283.9C25.059 285.962 22.6614 286.881 23.5807 288.832Z" fill="#4D545F"/>
<path d="M578.059 272.317V273.124L577.823 273.348H577.028L576.917 273.124V272.317C577.836 271.472 578.308 270.242 578.184 268.988V251.223C578.171 250.416 578.519 249.149 577.252 249.037C575.873 249.037 576.221 250.416 576.221 251.335V268.652C576.221 270.143 576.444 271.634 578.059 272.317Z" fill="#15A191"/>
<path d="M520.834 273.121V272.313C522.114 271.667 522.847 270.288 522.673 268.872V251.108C522.673 250.3 523.021 249.046 521.642 249.157C520.487 249.269 520.723 250.536 520.723 251.331V269.108C520.611 270.35 521.083 271.58 521.99 272.437V273.245L521.878 273.469H521.058L520.834 273.121Z" fill="#15A191"/>
<path d="M470.6 286.084C472.09 288.369 473.357 289.065 474.848 285.736C474.724 287.922 472.326 289.289 474.264 291.363C473.233 291.015 472.326 290.332 471.283 291.587C473.233 289.289 470.836 287.798 470.6 286.084Z" fill="#48505B"/>
<path d="M405.462 382.87C407.064 384.013 407.188 385.851 408.903 385.28C409.71 385.056 409.822 384.472 409.474 383.553C408.219 385.392 408.219 385.392 410.17 389.864C408.083 387.926 406.468 385.541 405.462 382.87Z" fill="#4D545F"/>
<path d="M367.048 423.122C368.353 421.668 368.228 419.432 366.775 418.115C366.713 418.066 366.651 418.004 366.589 417.954C366.477 417.854 366.353 417.73 366.241 417.73C366.75 417.457 367.396 417.656 367.669 418.165C367.694 418.215 367.719 418.252 367.732 418.302C367.968 418.65 368.303 418.997 368.539 419.333C369.794 419.109 369.682 417.395 371.284 417.159C370.117 419.308 368.7 421.32 367.048 423.122Z" fill="#4D545F"/>
<path d="M360.165 419.913C361.246 419.789 362.215 420.571 362.339 421.652C362.339 421.689 362.351 421.714 362.351 421.751C362.587 422.633 362.153 423.553 361.32 423.925C360.14 424.708 358.55 424.397 357.755 423.23C359.134 423.118 360.736 424.149 361.308 422.422C361.656 421.391 360.96 420.82 360.165 420.36V419.913Z" fill="#48505B"/>
<path d="M389.294 389.864C388.039 388.597 387.679 386.696 388.374 385.044C389.182 382.87 390.548 382.41 392.735 383.777L392.275 384.249C390.101 383.218 389.294 384.249 388.946 386.199C388.821 387.317 389.058 388.448 389.629 389.417L389.294 389.864Z" fill="#48505B"/>
<path d="M460.742 286.309C461.86 287.551 462.258 289.29 461.773 290.893C461.078 293.191 459.823 293.762 457.413 292.731L457.873 292.271C460.966 292.383 461.773 290.545 460.283 286.768L460.742 286.309Z" fill="#48505B"/>
<path d="M357.985 419.461C357.637 416.703 359.128 416.479 361.885 417.051C360.047 417.51 358.444 417.386 358.556 419.461H357.985Z" fill="#4D545F"/>
<path d="M349.84 423.58C348.461 421.828 348.461 419.369 349.84 417.617L350.176 418.077C349.368 419.667 349.368 421.543 350.176 423.12L349.84 423.58Z" fill="#4D545F"/>
<path d="M353.631 417.617C354.885 419.369 354.885 421.717 353.631 423.468L353.283 423.009C354.09 421.419 354.09 419.543 353.283 417.965L353.631 417.617Z" fill="#4D545F"/>
<path d="M456.951 292.27C455.808 290.618 455.808 288.419 456.951 286.767L457.411 287.227C456.951 288.717 456.951 290.32 457.411 291.811L456.951 292.27Z" fill="#48505B"/>
<path d="M392.732 383.787C394.223 385.489 394.223 388.048 392.732 389.749L392.272 389.29C393.192 387.737 393.192 385.799 392.272 384.246L392.732 383.787Z" fill="#48505B"/>
<path d="M456.954 286.767C457.649 285.624 459.14 285.264 460.283 285.959C460.395 286.071 460.631 286.183 460.743 286.307L460.283 286.767C459.289 286.282 458.096 286.456 457.301 287.227L456.954 286.767Z" fill="#48505B"/>
<path d="M392.73 389.636C392.046 390.655 390.667 390.916 389.661 390.22C389.649 390.22 389.649 390.208 389.636 390.208C389.5 390.071 389.351 389.947 389.177 389.872L389.636 389.413C390.494 389.785 391.487 389.699 392.27 389.177L392.73 389.636Z" fill="#48505B"/>
<path d="M353.049 423.927C352.267 424.498 351.198 424.498 350.416 423.927L350.875 423.467H352.714L353.049 423.927Z" fill="#4D545F"/>
<path d="M350.416 417.164C351.198 416.592 352.267 416.592 353.049 417.164L352.589 417.623H350.763L350.416 417.164Z" fill="#4D545F"/>
<path d="M360.159 419.912V420.483C359.364 420.483 358.556 420.831 357.985 420.023L358.792 419.912H360.159Z" fill="#4D545F"/>
<path d="M4.65601 291.016L3.84854 290.208L4.30818 289.748L4.99142 290.556L4.65601 291.016Z" fill="#48505B"/>
<path d="M42.7215 259.25L42.0383 258.442L42.4979 257.982L43.3054 258.79L42.7215 259.25Z" fill="#48505B"/>
<path d="M349.842 417.618L350.413 417.159L350.873 417.618L350.301 418.078L349.842 417.618Z" fill="#4D545F"/>
<path d="M457.413 292.732L456.954 292.273L457.413 291.813L457.873 292.273L457.413 292.732Z" fill="#48505B"/>
<path d="M353.055 417.159L353.627 417.618L353.279 418.078L352.708 417.618L353.055 417.159Z" fill="#4D545F"/>
<path d="M358.793 419.913L357.986 420.025C357.874 419.851 357.874 419.627 357.986 419.453H358.557C358.669 419.689 358.793 419.801 358.793 419.913Z" fill="#48505B"/>
<path d="M498.812 258.445L498.24 259.016L497.781 258.556L498.24 258.097L498.812 258.445Z" fill="#48505B"/>
<path d="M350.413 424.041C350.19 423.929 350.078 423.693 349.842 423.581L350.19 423.122L350.761 423.581L350.413 424.041Z" fill="#4D545F"/>
<path d="M353.627 423.467L353.055 423.927L352.708 423.467L353.279 423.007L353.627 423.467Z" fill="#4D545F"/>
<path d="M480.234 369.22V369.108H480.345L480.234 369.22Z" fill="#262B33"/>
<path d="M343.879 272.661V300.19C343.879 304.314 344.102 304.55 348.127 304.55H375.88V305.121H347.78C344.227 305.121 343.879 305.581 343.879 309.022C343.879 314.525 343.879 320.029 343.767 325.532L343.196 325.42V309.929C343.196 305.221 343.084 305.109 338.376 305.109H103.053C101.737 304.972 100.407 305.134 99.1527 305.569C98.3328 305.569 97.5377 305.333 96.8545 304.885C99.0285 304.774 101.215 304.662 103.389 304.662H337.568C343.183 304.662 343.183 304.662 343.295 299.047V272.773L343.879 272.661Z" fill="#15A191"/>
<path d="M375.876 371.292H347.664C344.335 371.292 343.875 371.751 343.875 375.081C343.875 384.597 343.875 394.112 343.987 403.529H343.304C343.304 393.777 343.304 384.149 343.415 374.398C343.415 372.224 342.496 371.18 340.322 371.18H102.702C100.515 371.366 98.3042 371.217 96.1675 370.72C96.8383 370.36 97.5837 370.161 98.3414 370.149C99.944 370.584 101.609 370.745 103.273 370.609H339.974C342.384 370.72 343.527 369.689 343.415 367.168C343.304 362.236 343.415 357.192 343.415 352.26C343.54 352.273 343.664 352.236 343.763 352.149C343.763 357.08 343.875 362.124 343.875 367.056C343.875 369.689 344.906 370.609 347.428 370.609C356.944 370.497 366.459 370.609 375.876 370.497V371.292Z" fill="#15A191"/>
<path d="M67.6177 403.511C67.6177 393.871 67.6177 384.356 67.7295 374.728C67.7295 372.094 66.5866 371.175 64.0524 371.175C54.5366 371.287 45.0209 371.175 35.6169 371.175V370.604H63.3691C67.3817 370.604 67.4935 370.492 67.8413 366.355C67.9655 366.343 68.0897 366.38 68.1891 366.467C68.7606 368.417 70.3631 369.56 71.8662 370.715C68.8848 370.939 68.0773 372.666 68.1891 375.535C68.4127 384.828 68.3009 394.232 68.3009 403.524H67.6177V403.511Z" fill="#15A191"/>
<path d="M35.6169 304.55H63.6052C67.2699 304.55 67.6177 304.202 67.6177 300.426V272.661H68.1891V300.637C68.1891 303.159 68.8724 304.649 71.5184 304.885C70.3755 306.264 68.6488 307.407 68.1891 309.246C68.0773 309.246 67.9655 309.358 67.8413 309.358C67.4935 305.345 67.2699 305.109 63.2573 305.109H35.6169V304.55Z" fill="#15A191"/>
<path d="M520.826 403.048V375.072C520.826 371.631 520.366 371.06 516.925 371.06H489.409V370.029C498.465 370.029 507.534 370.029 516.59 370.14C519.111 370.14 520.838 369.457 521.521 366.923C523.82 369.681 526.677 370.252 530.118 370.14C537.46 369.917 544.913 370.488 552.255 369.457C553.212 369.929 554.28 370.128 555.348 370.029C561.311 370.029 567.386 369.917 573.349 370.029C575.871 370.029 577.013 369.109 576.902 366.476C576.79 360.165 576.902 353.854 576.902 347.668C576.802 346.699 576.653 345.742 576.442 344.798L576.33 342.053C577.138 339.046 577.138 335.879 576.33 332.872V330.003C577.138 327.705 576.79 325.307 576.79 323.009V308.437C576.79 307.058 576.554 305.567 574.839 305.567C567.61 305.456 560.392 304.996 553.274 305.791C552.615 305.766 551.994 305.48 551.559 304.984C553.237 304.512 554.976 304.313 556.715 304.412H572.429C576.442 304.412 576.79 304.064 576.79 300.052C576.79 291.107 576.79 282.051 576.902 273.107H577.709C577.709 282.287 577.821 291.455 577.821 300.636C577.821 304.536 578.169 304.884 582.069 304.884H609.362V305.456H581.846C578.405 305.456 577.945 305.915 577.945 309.468V366.128C577.945 369.681 578.405 370.14 581.846 370.14H609.374V371.171H581.846C578.405 371.171 577.945 371.631 577.833 375.072V403.06H576.802V375.072C576.802 371.631 576.343 371.171 572.79 371.171H525.882C521.981 371.171 521.633 371.519 521.633 375.42V403.172L520.826 403.048Z" fill="#15A191"/>
<path d="M489.523 305.002H517.275C520.369 305.002 520.94 304.543 520.94 301.337C520.94 292.045 521.052 282.641 521.052 273.362H521.859C521.859 282.654 521.971 291.822 521.859 301.114C521.859 303.176 522.431 304.667 524.617 305.238L521.412 308.791C520.952 306.493 519.574 305.586 517.164 305.586C507.983 305.685 498.691 305.685 489.523 305.685V305.002Z" fill="#15A191"/>
<path d="M71.8626 370.826C70.3719 369.571 68.7569 368.54 68.1855 366.59C68.67 364.876 68.8563 363.099 68.7569 361.31H112.795C113.478 361.31 114.398 360.962 114.634 361.77C114.87 362.577 114.062 362.913 113.491 363.372C109.093 367.037 103.776 369.459 98.1241 370.366C97.3539 370.329 96.5961 370.528 95.9501 370.938C88.0245 371.062 79.9994 371.174 71.8626 370.826Z" fill="#A6A5A5"/>
<path d="M68.1855 309.241C68.7569 307.29 70.3594 306.259 71.5148 304.88C79.9994 304.533 88.4841 304.657 96.9688 304.88C97.6272 305.377 98.4346 305.626 99.267 305.564C103.515 306.707 107.752 307.974 111.304 310.719L112.336 311.862C112.336 311.75 112.447 311.75 112.559 311.75C111.652 313.489 109.926 313.489 108.211 313.489H74.0366C72.5458 313.489 71.0551 313.266 69.788 314.409H68.7569C68.9184 312.669 68.7197 310.905 68.1855 309.241Z" fill="#A6A5A5"/>
<path d="M68.1891 309.245C68.7109 310.909 68.9097 312.661 68.7606 314.4C67.4935 316.462 68.1891 318.872 68.0773 321.058C67.9655 322.773 68.9966 323.58 70.7109 323.58C73.1209 323.58 75.6427 323.58 78.0527 323.692C80.4751 323.704 82.4255 325.68 82.4131 328.102C82.4131 328.127 82.4131 328.152 82.4131 328.164V328.388C82.6367 330.81 80.8478 332.972 78.4254 333.195C78.3757 333.195 78.3384 333.208 78.2888 333.208H77.9285C76.4378 333.32 74.9471 333.32 73.4563 333.32C67.8413 333.32 67.9531 333.32 67.9531 339.059C67.9531 341.469 68.7606 342.5 71.2824 342.5C77.7049 342.388 84.0156 342.5 90.4381 342.5C91.9288 342.5 93.4195 342.388 94.6867 343.419C87.2331 343.419 79.7795 343.531 72.3259 343.531C69.8041 343.531 68.537 344.45 68.773 347.084C68.8848 348.686 68.773 350.413 68.773 352.016C67.6301 355.047 67.6301 358.389 68.773 361.42C68.9221 363.196 68.7233 364.985 68.2016 366.699C68.0898 366.699 67.978 366.587 67.8537 366.587C67.8537 357.643 67.9655 348.811 67.9655 339.866C67.9531 329.767 67.8413 319.568 67.8413 309.468C67.9531 309.356 68.0649 309.245 68.1891 309.245Z" fill="#A6A5A5"/>
<path d="M343.761 352.252C343.637 352.239 343.512 352.277 343.413 352.364C341.922 352.364 340.432 352.364 338.941 352.252C333.785 351.904 331.487 349.618 331.139 344.575C330.916 341.705 331.04 338.835 331.04 335.966C331.04 333.903 330.816 332.301 328.17 332.301C326.68 332.301 326.332 331.034 326.568 329.891C326.68 328.512 325.76 326.226 327.711 326.102C331.375 325.878 331.04 323.58 331.04 321.17C331.04 320.139 330.928 318.996 332.183 318.537C335.512 317.27 337.798 318.76 337.91 322.201C338.022 325.754 338.133 325.866 341.699 325.754C342.27 325.754 342.73 325.642 343.301 325.642L343.873 325.754C343.761 334.475 343.761 343.419 343.761 352.252ZM343.537 339.183V334.475C343.537 332.525 342.27 332.301 340.668 332.301C339.177 332.301 338.034 332.649 338.034 334.363V343.307C338.146 345.146 339.413 345.829 341.127 345.829C342.966 345.941 343.537 344.798 343.537 343.196V339.183Z" fill="#A6A5A5"/>
<path d="M552.259 369.565C544.917 370.596 537.464 369.913 530.122 370.248C526.681 370.36 523.811 369.789 521.525 367.031C520.954 364.273 521.413 361.639 521.413 358.894C521.413 354.31 521.302 349.602 521.177 345.018C521.066 342.956 521.985 342.273 523.923 342.273C530.805 342.384 537.811 342.273 544.681 342.273C548.01 342.273 549.836 343.987 549.836 346.857C549.836 349.838 547.998 351.677 544.557 351.677C538.134 351.788 531.6 351.677 525.178 351.677C521.848 351.677 521.625 351.9 521.513 355.229C521.401 360.733 521.401 360.733 526.904 360.733H564.644C565.675 360.733 566.706 360.385 567.849 361.416C563.725 366.012 558.222 368.298 552.259 369.565Z" fill="#A6A5A5"/>
<path d="M524.608 305.226C533.665 304.766 542.609 304.878 551.677 305.226C552.162 305.648 552.758 305.934 553.392 306.033C558.945 307.188 564.05 309.946 568.075 313.946C566.932 314.866 565.777 314.518 564.634 314.642H525.304C521.751 314.642 521.639 314.866 521.515 318.307V320.717C521.403 322.779 522.323 323.698 524.497 323.698C526.683 323.561 528.869 323.599 531.043 323.81C533.428 323.723 535.441 325.586 535.528 327.971C535.54 328.145 535.528 328.332 535.515 328.506C535.515 331.251 533.913 332.978 530.932 333.201C528.981 333.313 527.031 333.313 525.192 333.313C521.751 333.425 521.528 333.661 521.528 337.102V339.736C520.956 329.301 521.528 319.089 521.292 308.89L524.608 305.226Z" fill="#A6A5A5"/>
<path d="M576.448 330.234V333.103H550.758C548.584 333.103 546.746 332.644 545.715 330.47C544.336 327.376 546.062 323.811 549.615 323.699C557.417 323.463 565.206 323.575 573.007 323.575C574.1 323.476 575.094 324.221 575.305 325.302C575.653 327.016 576.1 328.631 576.448 330.234Z" fill="#A6A5A5"/>
<path d="M576.453 342.269C576.428 343.188 576.478 344.107 576.565 345.014C575.074 351.785 575.074 351.785 568.192 351.785H564.528C561.422 351.561 559.708 349.959 559.708 347.089C559.708 344.219 561.31 342.505 564.528 342.393C568.428 342.157 572.441 342.269 576.453 342.269Z" fill="#A6A5A5"/>
<path d="M484.13 307.524V307.636H484.019L484.13 307.524Z" fill="#262B33"/>
<path d="M112.565 311.768C112.913 311.991 113.373 312.227 113.708 312.451C114.168 312.799 114.851 313.134 114.739 313.83C114.516 314.749 113.596 314.401 113.013 314.401C98.6769 314.401 84.2294 314.401 69.8936 314.289C71.1607 313.258 72.6514 313.37 74.1546 313.37H108.329C109.919 313.494 111.646 313.494 112.565 311.768Z" fill="#A6A5A5"/>
<path d="M111.306 310.735C111.815 310.934 112.188 311.356 112.337 311.878L111.306 310.735Z" fill="#3B404E"/>
<path d="M94.7923 343.305L95.5997 343.988L96.519 345.479C97.2023 350.063 95.7115 351.901 91.1276 351.901H68.8786V346.982C68.7668 344.46 69.9097 343.429 72.4315 343.429C79.8851 343.417 87.3387 343.305 94.7923 343.305Z" fill="#A6A5A5"/>
<path d="M295.822 344.115V329.431C295.822 328.164 295.25 326.226 296.965 325.767C298.803 325.307 300.977 324.624 302.58 326.45C302.952 327.034 303.71 327.232 304.306 326.909C304.431 326.909 304.431 326.798 304.542 326.798C309.362 323.928 314.058 324.052 318.53 327.369C323.226 330.81 324.605 335.742 323.81 341.357C322.431 350.761 313.139 355.469 304.778 350.873C303.176 349.953 302.716 350.413 302.716 352.016C302.716 354.773 302.604 357.407 302.716 360.152C302.716 362.786 300.878 362.674 299.163 362.674C297.449 362.674 295.834 362.562 295.834 360.152V344.115H295.822ZM317.151 338.947C317.176 334.922 313.946 331.642 309.921 331.605C305.909 331.58 302.617 334.823 302.592 338.848C302.567 342.773 305.66 346.028 309.586 346.177C313.387 346.488 316.717 343.668 317.04 339.866C317.189 339.581 317.226 339.258 317.151 338.947Z" fill="#A6A5A5"/>
<path d="M174.264 333.331V348.809C174.264 349.952 174.612 351.555 172.885 351.791C171.046 352.014 168.872 352.934 167.605 350.872C166.798 349.604 166.462 350.188 165.655 350.648C159.953 354.4 152.288 352.872 148.462 347.207C148.114 346.66 147.803 346.089 147.543 345.493C142.735 335.629 149.617 324.386 160.052 325.07C161.903 325.119 163.704 325.716 165.22 326.784C167.17 328.275 167.506 327.355 167.506 325.517C167.506 322.883 167.618 320.237 167.506 317.604C167.394 314.846 169.344 315.194 171.059 315.082C172.897 314.97 174.388 315.194 174.276 317.604L174.264 333.331ZM167.493 338.834C167.456 334.809 164.177 331.579 160.152 331.604C156.127 331.641 152.897 334.921 152.922 338.946C152.959 342.971 156.238 346.201 160.263 346.176H160.375C164.152 346.312 167.344 343.368 167.481 339.579C167.481 339.517 167.481 339.468 167.481 339.405L167.493 338.834Z" fill="#A6A5A5"/>
<path d="M194.568 352.709C186.432 352.709 180.804 348.46 179.549 341.702C178.034 335.143 181.475 328.46 187.686 325.876C194.506 322.907 202.444 326.037 205.413 332.857C205.426 332.895 205.451 332.944 205.463 332.982C206.184 334.696 206.569 336.522 206.606 338.373C206.718 340.671 206.035 341.814 203.513 341.702C198.929 341.59 194.221 341.702 189.637 341.702C188.717 341.702 187.463 341.354 187.227 342.622C187.003 343.653 187.91 344.348 188.717 344.92C191.127 346.87 195.252 346.982 198.357 345.143C199.96 344.224 203.513 345.143 204.432 346.746C205.003 347.665 204.32 348.237 203.749 348.808C201.339 351.305 198.022 352.721 194.568 352.709ZM193.078 336.311H197.55C199.612 336.199 199.612 335.168 198.693 333.677C196.283 329.888 189.512 330.013 187.227 334.025C186.307 335.628 186.879 336.311 188.606 336.311C190.096 336.423 191.587 336.311 193.078 336.311Z" fill="#A6A5A5"/>
<path d="M245.486 324.955C251.909 324.955 255.462 326.446 258.22 329.775C259.363 331.042 259.251 331.949 257.648 332.869C255.474 334.136 253.859 335.39 251.337 332.869C249.039 330.583 244.455 331.49 242.269 333.9C239.834 336.757 239.884 340.968 242.381 343.763C244.865 346.322 248.841 346.707 251.785 344.682C252.592 344.111 253.164 342.732 254.307 343.08C255.872 343.651 257.35 344.471 258.667 345.49C259.934 346.521 258.555 347.44 257.984 348.124C252.021 355.118 240.207 353.975 235.511 345.95C230.12 336.421 236.654 324.955 245.486 324.955Z" fill="#A6A5A5"/>
<path d="M220.373 352.82C216.124 352.708 212.696 351.677 210.286 348.695C209.255 347.428 208.907 346.397 210.745 345.366C212.807 344.335 214.534 342.621 216.708 345.478C217.739 346.857 219.926 346.745 221.64 346.285C222.547 346.186 223.255 345.465 223.354 344.571C223.479 343.664 222.87 342.819 221.975 342.621C219.913 341.813 217.615 341.13 215.553 340.447C213.143 339.527 211.193 338.273 210.385 335.627C209.466 332.595 210.41 329.316 212.795 327.254C216.919 323.701 224.957 324.272 228.621 328.397C229.889 329.775 229.889 330.695 228.162 331.602C226.212 332.633 224.485 334.012 222.423 331.713C221.764 331.167 220.882 330.918 220.025 331.03C218.87 331.154 217.615 331.378 217.379 332.757C217.044 334.136 218.186 334.819 219.218 335.167C221.056 335.85 222.895 336.31 224.721 336.894C229.081 338.496 230.907 341.018 230.684 345.031C230.46 348.695 228.05 351.341 223.913 352.372C222.659 352.484 221.516 352.708 220.373 352.82Z" fill="#A6A5A5"/>
<path d="M109.133 333.322C105.232 333.322 101.456 333.434 97.5551 333.322C93.878 333.21 92.0394 331.496 92.0394 328.39C92.0394 325.409 93.9898 323.694 97.4309 323.694C104.661 323.583 111.878 323.694 119.22 323.583C120.823 323.409 122.276 324.514 122.549 326.104C124.848 332.987 124.612 333.334 117.506 333.334L109.133 333.322Z" fill="#A6A5A5"/>
<path d="M270.362 328.632C271.641 327.328 273.157 326.272 274.834 325.539C277.244 324.856 277.927 325.191 278.051 327.601V330.235C278.2 331.415 277.355 332.483 276.188 332.633C276.126 332.645 276.051 332.645 275.989 332.645C271.629 333.564 270.138 335.515 270.026 339.863C269.914 342.956 269.914 346.173 270.026 349.266C270.138 351.9 268.424 351.9 266.585 351.9C264.635 351.9 263.144 351.788 263.144 349.142C263.256 342.496 263.144 335.838 263.144 329.191C263.144 327.701 262.461 325.639 264.983 325.291C268.535 325.067 269.455 325.527 270.362 328.632Z" fill="#A6A5A5"/>
<path d="M282.759 338.725C282.759 335.284 282.871 331.731 282.759 328.29C282.635 325.644 284.25 325.644 286.2 325.644C288.039 325.644 289.418 325.867 289.418 328.277C289.306 335.271 289.306 342.265 289.418 349.259C289.418 351.669 288.151 352.129 286.089 352.129C284.138 352.129 282.648 351.905 282.759 349.371C282.871 345.719 282.871 342.166 282.759 338.725Z" fill="#A6A5A5"/>
<path d="M115.206 351.911C113.828 351.911 112.449 352.023 111.082 351.911C108.212 351.675 106.722 350.185 106.61 347.439C106.287 345.054 107.952 342.868 110.337 342.545C110.511 342.52 110.685 342.507 110.859 342.507C114.647 342.284 118.312 342.396 122.101 342.396C123.48 342.396 123.94 343.079 123.815 344.458C123.815 344.569 123.704 344.805 123.704 344.917C122.66 351.787 122.424 351.911 115.206 351.911Z" fill="#A6A5A5"/>
<path d="M289.399 318.538C289.399 321.743 289.051 321.979 285.958 321.979C282.977 321.979 282.741 321.631 282.629 318.426C282.517 316.016 283.436 314.985 285.958 315.097C289.176 315.097 289.399 315.32 289.399 318.538Z" fill="#A6A5A5"/>
<path d="M96.5141 345.483L95.5948 343.992C96.0668 344.365 96.3898 344.899 96.5141 345.483Z" fill="#3B404E"/>
</svg>
