<?xml version="1.0" encoding="utf-8"?>
<!-- Generator: Adobe Illustrator 24.1.3, SVG Export Plug-In . SVG Version: 6.00 Build 0)  -->
<svg version="1.1" id="Layer_1" xmlns="http://www.w3.org/2000/svg" xmlns:xlink="http://www.w3.org/1999/xlink" x="0px" y="0px"
	 viewBox="0 0 358.2 279.8" style="enable-background:new 0 0 358.2 279.8;" xml:space="preserve">
<style type="text/css">
	.st0{fill:#5E465D;}
	.st1{fill:#706F6F;}
	.st2{fill:#1D1D1B;}
	.st3{fill:#FFFFFF;}
	.st4{fill:url(#Rectangle_24_1_);}
	.st5{fill:url(#Path_312_1_);}
	.st6{fill:url(#Rectangle_25_1_);}
	.st7{fill:url(#Path_313_1_);}
	.st8{fill:url(#Rectangle_26_1_);}
	.st9{fill:url(#Rectangle_27_1_);}
	.st10{fill:url(#Path_314_1_);}
	.st11{fill:url(#Rectangle_28_1_);}
	.st12{fill:url(#Rectangle_29_1_);}
	.st13{fill:url(#Path_315_1_);}
	.st14{fill:url(#Rectangle_30_1_);}
	.st15{fill:url(#Ellipse_9_1_);}
	.st16{fill:url(#Ellipse_10_1_);}
	.st17{fill:url(#Path_317_1_);}
	.st18{fill:url(#Path_318_1_);}
	.st19{fill:url(#Path_319_1_);}
	.st20{fill:#A1A1A1;}
	.st21{opacity:0.3;}
	.st22{fill:#2D2D2D;}
	.st23{fill:#A6A5A5;}
	.st24{fill:#1F1D1D;}
	.st25{opacity:0.23;}
	.st26{opacity:0.69;}
	.st27{fill:#FAC3C3;}
	.st28{opacity:0.37;}
	.st29{fill:#BFBFBF;}
	.st30{fill:#707070;}
	.st31{fill-rule:evenodd;clip-rule:evenodd;fill:#A1A1A1;}
	.st32{fill:#453614;}
	.st33{fill:#A6A6A6;}
	.st34{fill:#19A191;}
	.st35{fill:#565F6A;}
	.st36{fill:#4C545F;}
	.st37{fill:#2D313B;}
	.st38{fill:#48505B;}
	.st39{fill:#262B33;}
	.st40{fill:#3A404E;}
	.st41{enable-background:new    ;}
	.st42{fill:#06AFA3;}
	.st43{fill:none;}
	.st44{fill:#02AFA3;}
</style>
<g id="Group_62" transform="translate(-125 -2080)">
	<g id="Group_50" transform="translate(97.4 2058.79)">
		<path id="Path_446" class="st44" d="M56.8,106.5h-9.5V27.8H27.6v-1.1h49v1.1H56.8V106.5z"/>
		<path id="Path_447" class="st44" d="M130.2,106.5c-3.1,0-5.5-0.7-7.1-2.1s-2.5-2.7-2.6-4.1l-0.1-1.9V62.6c0-6-1.6-9.8-4.8-11.5
			c-1.8-0.8-3.8-1.2-5.8-1.1c-4.7,0-8.9,1.9-12.7,5.8c-3.8,3.8-5.6,7.3-5.6,10.3v40.5h-8V21.2h8v41.4c1.5-3.6,3.9-6.8,7-9.2
			c3.2-2.7,7.3-4.3,11.5-4.3c7.4,0,12.3,1.3,14.8,3.8s3.7,5.8,3.7,9.9v35.7c-0.1,1.8,0.3,3.6,1.3,5.1c0.6,1,1.5,1.7,2.6,1.9l1.4,0.2
			h3.5v0.9L130.2,106.5L130.2,106.5z"/>
		<path id="Path_448" class="st44" d="M151.2,78.7c0,9.4,1.7,16.3,5,20.7c3,4.2,7.9,6.7,13.1,6.6c6.9,0.1,13.8-1,20.3-3.4l0.3,0.8
			c-6.6,2.5-13.6,3.6-20.6,3.5c-7.6,0-13.9-2.3-18.6-6.8c-4.8-4.6-7.2-11.6-7.2-21.1s2.5-16.9,7.5-22.1c5-5.2,12-8.1,19.2-7.9
			c5.7-0.2,11.3,1.8,15.7,5.6c4.3,3.7,6.4,9.2,6.4,16.5v1.1h-40.7C151.3,74.4,151.2,76.5,151.2,78.7z M180.2,55.2
			c-2.5-3.4-6.4-5.3-10.6-5.2c-4.3,0-8.2,1.9-11.6,5.7s-5.5,9-6.4,15.7h32.8C184.4,64.1,183,58.7,180.2,55.2z"/>
	</g>
	<g id="Group_51" transform="translate(92.7 2041.79)">
		<path id="Path_449" class="st44" d="M41.3,139.8c3.3-0.2,6.6-0.2,9.9-0.2c3.5,0,6.9,0.3,10.3,1c3.7,0.8,7.3,2,10.7,3.8
			c3.4,1.8,6.5,4.3,9,7.2c2.8,3.4,4.8,7.4,6,11.6c1.6,5.7,2.4,11.5,2.3,17.4c0.1,6.3-1,12.6-3.4,18.4c-1.9,4.9-5,9.3-9.2,12.5
			c-7.5,5.6-16.6,8.4-27.2,8.4c-3.7,0-7.6-0.2-11.7-0.5h-5.7v-79.7h9V139.8z M41.6,218.6c2,0.2,4,0.2,6,0.2c2.4,0,4.3,0,5.5-0.1
			c1.7-0.2,3.4-0.5,5-1c2-0.5,4-1.3,5.9-2.3c2.1-1.2,4-2.7,5.8-4.4c2.1-2,3.8-4.3,5.2-6.9c3.3-6.2,4.9-14.4,4.9-24.4
			c0.1-6.3-0.8-12.5-2.6-18.5c-1.7-5.2-3.7-9.1-6-11.6c-2.3-2.5-5.1-4.6-8.2-6c-2.4-1.2-5-2.1-7.6-2.6c-2.2-0.2-4.4-0.3-6.6-0.3
			c-2.5,0-4.9,0.1-7.3,0.3L41.6,218.6L41.6,218.6z"/>
		<path id="Path_450" class="st44" d="M106.2,191.7c0,9.4,1.7,16.3,5,20.7c3,4.2,7.9,6.7,13.1,6.6c6.9,0.1,13.8-1,20.3-3.4l0.3,0.8
			c-6.6,2.5-13.6,3.6-20.6,3.5c-7.6,0-13.9-2.3-18.6-6.8c-4.8-4.6-7.2-11.6-7.2-21.1s2.5-16.9,7.5-22.1c5-5.2,12-8.1,19.2-7.9
			c5.7-0.2,11.3,1.8,15.7,5.6c4.3,3.7,6.4,9.2,6.4,16.5v1.1h-40.7C106.4,187.4,106.2,189.5,106.2,191.7z M135.3,168.2
			c-2.5-3.4-6.4-5.3-10.6-5.2c-4.3,0-8.2,1.9-11.6,5.7s-5.5,9-6.4,15.7h32.8C139.5,177.1,138.1,171.7,135.3,168.2z"/>
		<path id="Path_451" class="st44" d="M188.7,166.5c-1.8-1.2-3.8-2.1-5.9-2.5c-2-0.6-4-0.9-6.1-1h-2.4c-4.1,0.1-7.1,1.1-8.9,3.1
			c-1.7,1.8-2.7,4.3-2.7,6.8c-0.1,2.3,0.8,4.6,2.4,6.3c1.7,1.7,3.7,3.1,6,4c2.4,1,5,2,7.8,3.2s5.4,2.5,7.8,3.7
			c2.4,1.3,4.5,3.2,6,5.5c1.7,2.7,2.5,5.8,2.4,8.9c0,3.4-1.3,6.7-3.8,9.1c-2.3,2.4-5.2,4.1-8.4,5c-3.3,0.9-6.6,1.3-10,1.3
			c-7.8,0-13.6-1.7-17.4-5.1l0.7-0.7c2,1.7,4.3,2.9,6.8,3.5c2.8,0.9,5.7,1.4,8.7,1.4c4.5,0,8.2-1.2,11.1-3.7
			c2.8-2.2,4.4-5.6,4.4-9.2c0.2-3.3-1-6.5-3.3-8.9c-2.3-2.3-5-4-8-5.2c-3.2-1.3-6.3-2.5-9.5-3.8c-3-1.2-5.8-2.9-8.1-5.2
			c-2.1-2-3.3-4.9-3.3-7.8c-0.1-2.6,0.6-5.1,2.1-7.2c1.3-1.9,3.3-3.2,5.5-3.9c3.7-1.3,7.7-1.9,11.6-1.9c6.5,0,11.6,1.2,15.3,3.6
			L188.7,166.5z"/>
		<path id="Path_452" class="st44" d="M203.7,149.8c-0.9-0.9-1.4-2.1-1.4-3.4c0-1.3,0.5-2.6,1.4-3.5c0.9-0.9,2.1-1.4,3.4-1.4
			c1.3,0,2.6,0.5,3.5,1.4c0.9,0.9,1.4,2.2,1.4,3.5c0,1.3-0.5,2.5-1.4,3.4c-0.9,0.9-2.2,1.4-3.5,1.4
			C205.8,151.2,204.6,150.7,203.7,149.8z M212.8,219.5c-3.1,0-5.5-0.7-7.1-2.1s-2.5-2.7-2.6-4.1l-0.1-1.9v-48.9h8v48.9
			c-0.1,1.8,0.3,3.6,1.3,5.1c0.6,1,1.5,1.7,2.6,1.9l1.4,0.2h3.5v0.9L212.8,219.5z"/>
		<path id="Path_453" class="st44" d="M226.1,193.1c0-9.9,2.4-17.5,7.2-22.9s12-8.1,21.5-8.1c7.3,0.1,14.6,1.3,21.5,3.8V221
			c-0.1,18.1-8,27.1-23.7,27.1c-8.2,0.2-16.2-2.8-22.2-8.4l0.8-0.7c5.9,5.2,13.5,8.2,21.4,8.2c10.5,0,15.7-8.7,15.7-26.2v-11.3
			c-1.4,2.7-3.8,5-7.2,7.1c-3.6,2.2-7.7,3.2-11.9,3.1C233.8,219.4,226.1,210.5,226.1,193.1z M249.4,218.8c4.7,0.1,9.3-1.3,13.1-4.1
			c3.6-2.7,5.6-5.4,5.8-8.1v-40.2c-5.5-2.3-10.1-3.4-13.9-3.4c-6.8,0-11.9,2.6-15.3,7.9s-5.1,12.7-5.1,22.2
			C234,210.2,239.2,218.8,249.4,218.8L249.4,218.8z"/>
		<path id="Path_454" class="st44" d="M337.9,219.5c-3.1,0-5.5-0.7-7.1-2.1s-2.5-2.7-2.6-4.1l-0.1-1.9v-35.8c0-6-1.6-9.8-4.7-11.5
			c-1.9-0.8-3.9-1.2-5.9-1.1c-4.9,0-9.2,1.9-13.1,5.8c-3.9,3.8-5.8,7.3-5.8,10.3v40.5h-8v-57h8v13c1.6-3.6,4.1-6.8,7.2-9.2
			c3.2-2.7,7.3-4.3,11.5-4.3c3.4-0.1,6.9,0.3,10.2,1.2c2.2,0.6,4.2,1.7,5.8,3.4c2,2.6,2.9,5.8,2.8,9.1v35.7
			c-0.1,1.8,0.3,3.6,1.3,5.1c0.6,1,1.6,1.7,2.7,1.9l1.3,0.2h3.5v0.9L337.9,219.5L337.9,219.5z"/>
	</g>
	<g id="Group_52" transform="translate(93 2026.79)">
		<path id="Path_455" class="st44" d="M32.1,253.6c8.8-0.6,16.6-0.9,23.3-0.9c18.8,0,28.3,6.7,28.3,20c0.1,5.8-1.5,11.4-4.8,16.2
			c-2,2.7-4.7,4.8-7.8,6c-4,1.6-8.4,2.3-12.7,2.2H41.5v35.5H32L32.1,253.6L32.1,253.6z M55.5,253.9c-4.6,0-9.3,0.3-13.9,0.8V296
			h16.9c10.7-0.5,16.1-8.1,16.1-23c0-6.1-1.6-10.8-4.8-14.1C66.6,255.6,61.8,253.9,55.5,253.9z"/>
		<path id="Path_456" class="st44" d="M114.6,280.4V278c-3.4,1.4-6.5,4.1-9.3,8.3c-2.8,4.1-4.3,8-4.4,11.7v34.5h-8v-57h8v18.1
			c1.3-4.7,3.7-8.9,7-12.5c3.4-3.9,7.3-5.9,11.6-6.1h0.5c2.9,0.1,5.3,2.5,5.2,5.4c-0.1,2.9-2.5,5.3-5.4,5.2c-1.3,0-2.6-0.6-3.6-1.5
			C115.1,283.2,114.5,281.8,114.6,280.4z"/>
		<path id="Path_457" class="st44" d="M156.2,333c-8,0-14.5-2.3-19.6-6.8s-7.5-11.6-7.5-21.1s2.6-16.9,7.8-22.1
			c5.2-5.2,12.4-8.1,19.8-7.9c8,0,14.5,2.3,19.6,6.8c5,4.6,7.5,11.6,7.5,21.1s-2.6,16.9-7.8,22.1C170.9,330.4,164.3,333,156.2,333z
			 M157,276c-5.8,0-10.6,2.6-14.4,7.7s-5.7,12.3-5.7,21.4c0,9.2,1.7,15.9,5.2,20.3c3.3,4.3,8.5,6.8,13.9,6.6
			c5.8,0,10.6-2.6,14.4-7.7s5.7-12.3,5.7-21.4c0-9.2-1.7-15.9-5.2-20.3C167.6,278.3,162.4,275.8,157,276z"/>
		<path id="Path_458" class="st44" d="M219.7,276c-5.4,0-9.9,2.6-13.5,7.8c-3.6,5.2-5.4,12.3-5.4,21.4s1.7,15.9,5,20.3
			c3,4.2,7.9,6.7,13.1,6.6c6.2,0.1,12.3-1,18-3.4l0.3,0.8c-5.4,2.4-11.7,3.5-18.9,3.5c-6.7,0.2-13.1-2.3-18-6.8
			c-4.8-4.5-7.2-11.6-7.2-21.1s2.5-16.9,7.5-22.1c5-5.2,12-8.1,19.2-7.9c4.2,0,8.3,1,12,3c3.7,2,6.6,5.2,8.2,9h-7.3
			c-0.8-3.2-2.6-6.1-5.2-8.3C225.3,277,222.5,276,219.7,276z"/>
		<path id="Path_459" class="st44" d="M254.4,304.7c0,9.4,1.7,16.3,5,20.7c3,4.2,7.9,6.7,13.1,6.6c6.9,0.1,13.8-1,20.3-3.4l0.3,0.8
			c-6.6,2.5-13.6,3.6-20.6,3.5c-7.7,0-13.9-2.3-18.6-6.8s-7.2-11.6-7.2-21.1s2.5-16.9,7.5-22.1c5-5.2,12-8.1,19.2-7.9
			c5.7-0.2,11.3,1.8,15.7,5.6c4.3,3.7,6.4,9.2,6.4,16.5v1.1h-40.7C254.6,300.4,254.4,302.5,254.4,304.7z M283.5,281.2
			c-2.5-3.4-6.4-5.3-10.6-5.2c-4.3,0-8.2,1.9-11.6,5.7s-5.5,9-6.4,15.7h32.8C287.7,290.1,286.3,284.7,283.5,281.2z"/>
		<path id="Path_460" class="st44" d="M336.9,279.5c-1.8-1.2-3.8-2.1-5.9-2.5c-2-0.6-4-0.9-6.1-1h-2.4c-4.1,0.1-7.1,1.1-8.9,3.1
			c-1.7,1.8-2.7,4.3-2.7,6.8c-0.1,2.3,0.8,4.6,2.4,6.3c1.7,1.7,3.7,3.1,6,4c2.4,1,5,2,7.8,3.2s5.4,2.5,7.8,3.7
			c2.4,1.3,4.5,3.2,6,5.5c1.7,2.7,2.5,5.8,2.4,8.9c0,3.4-1.3,6.7-3.8,9.1c-2.3,2.4-5.2,4.1-8.4,5c-3.3,0.9-6.6,1.3-10,1.3
			c-7.8,0-13.6-1.7-17.4-5.1l0.7-0.7c2,1.7,4.3,2.9,6.8,3.5c2.8,0.9,5.7,1.4,8.7,1.4c4.5,0,8.2-1.2,11.1-3.7
			c2.8-2.2,4.4-5.6,4.4-9.2c0.2-3.3-1-6.5-3.3-8.9c-2.3-2.3-5-4-8-5.2c-3.2-1.3-6.3-2.5-9.5-3.8c-3-1.2-5.8-2.9-8.1-5.2
			c-2.1-2-3.3-4.9-3.3-7.8c-0.1-2.6,0.6-5.1,2.1-7.2c1.3-1.9,3.3-3.2,5.5-3.9c3.7-1.3,7.7-1.9,11.6-1.9c6.5,0,11.6,1.2,15.3,3.6
			L336.9,279.5z"/>
		<path id="Path_461" class="st44" d="M383.8,279.5c-1.8-1.2-3.8-2.1-5.9-2.5c-2-0.6-4-0.9-6.1-1h-2.4c-4.1,0.1-7.1,1.1-8.9,3.1
			c-1.7,1.8-2.7,4.3-2.7,6.8c-0.1,2.3,0.8,4.6,2.4,6.3c1.7,1.7,3.7,3.1,6,4c2.4,1,5,2,7.8,3.2s5.4,2.5,7.8,3.7
			c2.4,1.3,4.5,3.2,6,5.5c1.7,2.7,2.5,5.8,2.4,8.9c0,3.4-1.3,6.7-3.8,9.1c-2.3,2.4-5.2,4.1-8.4,5c-3.3,0.9-6.6,1.3-10,1.3
			c-7.8,0-13.6-1.7-17.4-5.1l0.7-0.7c2,1.7,4.3,2.9,6.8,3.5c2.8,0.9,5.7,1.4,8.7,1.4c4.5,0,8.2-1.2,11.1-3.7
			c2.8-2.2,4.4-5.6,4.4-9.2c0.2-3.3-1-6.5-3.3-8.9c-2.3-2.3-5-4-8-5.2c-3.2-1.3-6.3-2.5-9.5-3.8c-3-1.2-5.8-2.9-8.1-5.2
			c-2.1-2-3.3-4.9-3.3-7.8c-0.1-2.6,0.6-5.1,2.1-7.2c1.3-1.9,3.3-3.2,5.5-3.9c3.7-1.3,7.7-1.9,11.6-1.9c6.5,0,11.6,1.2,15.3,3.6
			L383.8,279.5z"/>
	</g>
</g>
</svg>
