<?xml version="1.0" encoding="utf-8"?>
<!-- Generator: Adobe Illustrator 24.1.3, SVG Export Plug-In . SVG Version: 6.00 Build 0)  -->
<svg version="1.1" id="Layer_1" xmlns="http://www.w3.org/2000/svg" xmlns:xlink="http://www.w3.org/1999/xlink" x="0px" y="0px"
	 viewBox="0 0 1293.2 451.3" style="enable-background:new 0 0 1293.2 451.3;" xml:space="preserve">
<style type="text/css">
	.st0{opacity:0.59;}
	.st1{fill:#FFFFFF;}
	.st2{fill:#19A191;}
	.st3{fill:#3A404E;}
	.st4{fill:#565F6A;}
	.st5{fill:#4C545F;}
	.st6{fill:#3A414E;}
	.st7{fill:#2D313B;}
	.st8{fill:#48505B;}
	.st9{fill:#262B33;}
	.st10{fill:#081D26;}
	.st11{opacity:0.23;}
	.st12{fill:#5D5E5E;}
	.st13{opacity:0.3;}
	.st14{fill:none;}
	.st15{enable-background:new    ;}
	.st16{fill:#02AFA3;}
</style>
<g id="Group_35" transform="translate(-93 -1972.6)">
	<g id="Group_27" transform="translate(-767.958 2162.884)" class="st0">
		<g id="Group_25" transform="translate(1562.195 -152.884)">
			<g id="Path_137">
				<path class="st1" d="M387.1,23c0.3,1.6,1.8,2.7,3.5,2.5c1.5,0.1,2.9-0.8,3.4-2.2c0.6-1.4,0-3-1.3-3.8c-0.9-0.5-1.6-0.8-0.7-2
					c0.6-0.8,1.9-1.8,1.4-2.7c-0.5-1-2.1-0.4-3.2-0.5c-0.9-0.2-1.9,0-2.6,0.6c0.8,0.1,1.4,0.1,1.9,0.1c0.9,0.1,2.1-0.4,2.5,0.5
					c0.4,0.8-0.6,1.5-1.1,2.1c-1,1.2-0.7,1.8,0.7,2.2c1.2,0.3,1.9,1.4,1.7,2.6c0,0,0,0,0,0c-0.1,1.2-1.1,2.1-2.3,2.1
					C389.5,24.9,388.5,24,387.1,23z"/>
			</g>
			<g id="Path_138">
				<path class="st1" d="M189.4,23.6c0.7,1.8,2.2,2.1,3.9,1.9c1.3-0.1,2.4-1.1,2.7-2.5c0.5-1.5-0.3-3-1.7-3.6
					c-1.2-0.5-0.9-1.1-0.3-1.8c0.4-0.5,0.8-1.1,1.2-1.7c0.4-0.5,0.5-1.1-0.2-1.3c-1.7-0.3-3.4-0.3-5.1,0.2c0.5,0.3,1,0.4,1.6,0.4
					c0.9,0.1,2.1-0.4,2.5,0.5c0.4,0.8-0.6,1.5-1.1,2.1c-1,1.3-0.5,1.8,0.8,2.1c1.2,0.3,1.9,1.4,1.6,2.6c0,0,0,0,0,0
					c-0.2,1.3-1.3,2.2-2.6,2.1C191.3,24.8,190.4,24.1,189.4,23.6z"/>
			</g>
			<g id="Path_139">
				<path class="st1" d="M407.1,14.7c-1.3,0.1-1.5,1-2,1.6c-1.7,2.5-1.6,2.5-3.4-0.1c-0.5-0.7-0.7-1.7-2.2-1.9
					c0.7,1.1,1.4,2.2,2.2,3.3c1.2,1.4,1.1,2.6,0,4c-0.9,0.9-1.5,2.1-1.7,3.5c1-1,1.8-2.2,2.6-3.4c0.6-1,1.1-1,1.8,0
					c0.8,1.2,1.2,2.7,2.8,3.2c-0.5-1.2-1.2-2.4-2-3.5c-1-1-1-2.6-0.1-3.6c0,0,0,0,0,0C405.9,16.9,406.5,15.8,407.1,14.7z"/>
			</g>
			<g id="Path_140">
				<path class="st1" d="M202.6,14.3l-0.5,0.4c0.3,0.5,0.6,1,0.9,1.5c2.1,2.3,2.3,4.6,0.1,6.9c-0.7,0.5-1,1.4-0.9,2.2
					c0.9-0.8,1.7-1.7,2.2-2.8c1.4-2,1.3-2,2.8,0.1c0.6,0.9,1,2,2.2,2.4c-0.5-1.3-1.2-2.6-2.1-3.8c-0.9-0.9-0.9-2.4,0-3.3
					c0.8-1,1.4-2.2,2.1-3.3l-0.6-0.4c-0.7,1.1-1.5,2.1-2.2,3.2c-0.6,1-1.1,1.1-1.8,0C204.2,16.5,203.4,15.4,202.6,14.3z"/>
			</g>
			<g id="Path_141">
				<path class="st1" d="M24.2,99.5c0.3,0.7,0.7,1.3,1.1,1.9c2.1,2.2,1.8,4.2-0.1,6.3c-0.8,0.7-1.2,1.7-0.9,2.8
					c1-1.6,1.9-2.7,2.6-3.9c0.6-1.1,1.1-1,1.7,0c0.7,1.2,1.6,2.4,2.4,3.5c0.3-0.8,0.1-1.7-0.6-2.3c-2.1-2.2-2.3-4.4-0.1-6.7
					c0.7-0.5,0.9-1.5,0.6-2.3c-0.9,1.4-1.7,2.5-2.4,3.7c-0.5,0.8-1,0.8-1.5,0C26.2,101.5,25.7,100.1,24.2,99.5z"/>
			</g>
			<g id="Path_142">
				<path class="st1" d="M178.1,24.9l0.6,0c0-2.6,0-5.2,0-7.8c0-0.9,0.5-2.1-0.5-2.5c-0.9-0.3-1.9,0.2-3,1.1c2.7,0,2.6,0,2.7,2.5
					C177.9,20.4,177.6,22.7,178.1,24.9z"/>
			</g>
			<g id="Path_143">
				<path class="st1" d="M181,26.5l0.7,0.3c2-4.5,4-9,6-13.5L187,13L181,26.5z"/>
			</g>
			<g id="Path_144">
				<path class="st2" d="M173.7,162.8v16.6H173c0-4.1,0-8.3,0-12.4c0-4.3,0-4.3-4.4-4.3c-27.2,0-54.3,0-81.5,0.1
					c-1.6,0-3.2-0.1-4.8-0.1c-0.8-0.6-1.7-1.1-2.7-1.3c-3.2-1.6-5.2-4.9-5.2-8.5c-0.1-1.4,0-2.7,0-4.1c0-3.2,0.1-3.2,3.2-3.2
					c26.1,0,52.1,0,78.2,0c0.7,0,1.8-0.3,2.1,0.4c0.4,0.9-0.7,1.4-1.3,1.9c-7.8,7.3-17.1,11.5-27.5,13.6c-0.6,0.1-1.4-0.1-1.8,0.7
					c0.4,0.4,0.9,0.3,1.3,0.3c13.9,0,27.7,0,41.6,0c0.9,0.1,1.8-0.1,2.7-0.4l0.8,0.2C173.7,162.3,173.7,162.6,173.7,162.8z"/>
			</g>
			<g id="Path_145">
				<path class="st2" d="M81.9,45.9l1,0c0,0.1,0.1,0.2,0.1,0.3c2.6,0.4,5.1,0.4,7.7,0.3c9.7-0.1,19.4,0.3,29.1-0.2l0.5-0.4l2.3,0
					c1.2,1.1,2.7,1,4.1,1c11.3,1.7,21.4,6,29.8,13.8c0.5,0.5,1.5,0.9,1.1,1.8c-0.3,0.8-1.4,0.5-2.1,0.5c-9.8,0-19.7,0-29.5,0
					c-16.2,0-32.4,0-48.5,0c-3,0-3.1-0.1-3.1-3.1c0-1.4,0-2.7,0-4.1c0.2-4.2,2-7.3,6-8.9C81,46.8,81.5,46.4,81.9,45.9z"/>
			</g>
			<g id="Path_146">
				<path class="st3" d="M561.6,82.7c0,11.9,0,23.8,0,35.6l-0.8,0c0.8-7.4,0.3-14.9,0.3-22.3c0.1-0.9-0.6-1.7-1.5-1.8
					c-0.1,0-0.3,0-0.4,0c-2,0-4,0-5.9,0c-1.3,0-2.2,0.5-2.2,2c0,6,0,12,0,18c-0.1,2.1,1.5,3.9,3.6,4.1c2,0.4,4.1,0.4,6.1,0
					c0.4,3.7,0.4,7.5-0.1,11.2c-3.9,0.2-7.8,0.5-11.6-0.4c-5.2-1.2-8.5-4.3-9.6-9.5c-0.4-2.2-0.6-4.5-0.6-6.8c0-5.3,0-10.5,0-15.8
					c0-1.8-0.6-2.6-2.5-2.7c-5.6-0.3-5.6-0.4-5.6-6.1V88c0-6.3-0.2-5.3,5.3-5.3c2.2,0,3-0.9,2.9-3c-0.1-2.5,0-5,0-7.5
					c-0.1-1.8,0.6-2.7,2.5-2.6c2.4,0.1,4.7,0.1,7.1,0c1.8-0.1,2.6,0.7,2.6,2.6c-0.1,2.8,0,5.6,0,8.5c0,1.4,0.6,2.1,2.1,2.1
					c2.5,0,5,0,7.5-0.1L561.6,82.7z"/>
			</g>
			<g id="Path_147">
				<path class="st2" d="M560.8,118.4l0.8,0c0.3,4.4,0.1,8.8,0.1,13.3c0,8.7,0,17.4,0,26.1c0,4.3,0,4.3,4.4,4.3c2.4,0,4.9,0,7.3,0
					c0.8-0.1,1.7,0.1,2.3,0.6c-1.1,0.5-2.3,0.7-3.5,0.5c-2.5,0-5,0.1-7.6,0c-2.1-0.1-3.1,0.8-3,3c0.1,3.7,0,7.5,0,11.2
					c0,0.8-0.1,1.6-0.1,2.9c-0.6-0.8-0.9-1.8-0.7-2.8c0-3.8-0.1-7.6,0-11.4c0-2.1-0.9-2.9-2.9-2.9c-0.8,0-1.7,0-2.5,0H217.6
					c-5.2,0-5.2,0-5.2,5.3c0,3.1,0,6.1,0,9.2c0,0.7,0.3,1.5-0.6,2.3c-0.3-1.4-0.4-2.9-0.3-4.4c0-3.1,0-6.1,0-9.2
					c0-2.7-0.5-3.2-3.2-3.2c-10,0-20,0-30,0c-1.5,0-3-0.1-4.6-0.2c0-0.3,0-0.5,0-0.8c0.1-0.1,0.1-0.1,0.2-0.2
					c11.2,0,22.4,0.1,33.6,0.1c3.8,0,4-0.2,4-4c0-15,0-30.1,0-45.1c-0.1-1.4,0-2.7,0.3-4.1c0.6,1,0.9,2.1,0.9,3.2
					c-0.4,1.2-0.5,2.4-0.4,3.6c0,13.7,0,27.3,0,41c0,5.4,0,5.4,5.3,5.4h337.6c0.8,0,1.7,0,2.5,0c2,0.1,2.9-0.8,2.9-2.8
					c-0.1-9.8-0.1-19.7-0.1-29.5C561.1,125.8,561.2,122.1,560.8,118.4L560.8,118.4z"/>
			</g>
			<g id="Path_148">
				<path class="st2" d="M561.6,82.7l-1-0.1c0-10.9,0.1-21.8,0.1-32.7c0-0.6,0.2-1.4-0.5-1.6c-0.7-0.2-1,0.5-1.5,0.9
					c-1.1,0.9-1.9,2.3-3.5,3c0.2-1.3,1.1-1.7,1.6-2.4c0.7-0.9,2.5-1.6,2-2.8c-0.4-1-2.1-0.4-3.2-0.4c-112.8,0-225.5,0-338.3,0
					c-0.7,0-1.4,0-2.1,0c-0.4,0-1-0.1-1.2,0.4c-0.2,0.5,0.3,0.8,0.6,1.2c1,1.2,2.5,2.1,3,3.8c-1.3-1-2.6-2.1-3.7-3.2
					c-0.9-0.9-1.5-0.7-1.5,0.6c0,0.5,0,0.9,0,1.4c0,15.4,0,30.8,0,46.2c-0.1,1.1,0,2.1,0.4,3.1c0,1.1-0.4,2.2-1,3.2
					c-0.3-1.3-0.4-2.7-0.3-4.1c0-15.7,0-31.4,0-47.1c0-0.8,0-1.5,0-2.3c-0.1-1.4-0.7-1.6-1.7-0.7c-1.2,1.1-2.1,2.5-4.1,3.4
					c0.7-2.1,2.4-3,3.4-4.3c0.3-0.4,0.9-0.7,0.6-1.3c-0.2-0.5-0.8-0.4-1.2-0.4c-1.1,0-2.1,0-3.2,0c-9.3,0-18.6,0-27.9,0
					c-0.6,0-1.5-0.3-1.8,0.6c-0.2,0.7,0.5,1,0.9,1.5c1,1.2,2.5,2,3.1,4c-1.9-0.8-2.7-2.2-3.9-3.2c-0.4-0.3-0.7-0.9-1.3-0.7
					c-0.6,0.2-0.5,0.9-0.6,1.4c0,0.7,0,1.4,0,2.1c0,12.5,0,25,0,37.5c0.1,1.4,0,2.7-0.3,4.1c-0.7-0.9-1.1-2-1-3.1
					c0.4-1,0.6-2.1,0.5-3.1c0-12.5,0-25,0-37.5c0-3.3-0.2-3.5-3.6-3.5c-13.2,0-26.3,0-39.5,0c-1.1-0.1-2.1,0-3.1,0.5
					c-1.5,0-2.9,0.1-4.1-1c1.4-0.3,2.9-0.4,4.3-0.3c14.1,0,28.2,0,42.3,0c3.4,0,3.6-0.2,3.6-3.6c0-4.1,0.1-8.2,0.1-12.4
					c0-0.1,0.1-0.3,0.3-0.6c0.5,0.7,0.7,1.5,0.5,2.3c0,3.6,0,7.2,0,10.8c0,0.6-0.2,1.4,0.5,1.7c0.7,0.3,1.1-0.4,1.5-0.8
					c1.1-1,2.2-2,3.4-2.9c-0.4,1.6-1.9,2.5-2.9,3.6c-0.3,0.4-0.9,0.7-0.7,1.3c0.2,0.6,0.9,0.5,1.4,0.5c10.5,0,20.9,0,31.4,0
					c0.5,0,1.2,0.1,1.4-0.5c0.2-0.6-0.4-0.9-0.7-1.3c-1-1.2-2.4-2-3.3-4.1c1.5,1,2.8,2.2,4,3.5c0.4,0.3,0.7,0.9,1.3,0.7
					c0.6-0.3,0.5-0.9,0.5-1.4c0-3.5,0-7,0-10.5c0-0.9,0.1-1.8,0.1-3.2c0.6,0.8,0.9,1.8,0.7,2.8c0,3.7,0,7.3,0,11
					c0,0.5-0.1,1.2,0.5,1.4s0.9-0.3,1.3-0.7c1.2-1.1,2.2-2.5,4.1-3.5c-0.6,2.1-2.2,2.9-3.2,4.2c-0.3,0.4-0.9,0.7-0.6,1.4
					c0.2,0.5,0.8,0.4,1.2,0.4c0.8,0,1.5,0,2.3,0c112.5,0,224.9,0,337.4,0c1.2,0,2.9,0.6,3.4-0.5c0.5-1.1-1.3-1.8-2-2.7
					c-0.5-0.7-1.2-1.3-2.2-2.4c1.7,0.3,2.2,1.3,2.9,1.8c0.9,0.7,1.6,2.4,2.6,1.9c1.2-0.5,0.5-2.2,0.6-3.3c0.1-3.1,0-6.1,0-9.2
					c0-0.7-0.3-1.5,0.5-2.2c0.7,0.8,0.4,1.8,0.4,2.6c0,2.8,0,5.6,0,8.5c0,5.4,0,5.4,5.5,5.4c2,0,4,0,6,0c0.9-0.1,1.7,0.1,2.5,0.5
					c-2.2,0.7-4.2,0.3-6.1,0.4c-1.7,0.1-3.4,0.1-5,0c-2.2-0.1-2.9,0.9-2.9,3C561.7,60.5,561.6,71.6,561.6,82.7z"/>
			</g>
			<g id="Path_149">
				<path class="st2" d="M81.9,45.9c-0.4,0.5-0.9,0.8-1.4,1c-0.4-0.2-0.9-0.3-1.3-0.4c-8.6,0-17.2,0-25.9,0c-0.4,0-1-0.1-1.2,0.4
					c-0.2,0.5,0.3,0.8,0.6,1.1c1.2,1.3,2.5,2.5,3.7,3.8l-0.6,0.5c-0.7-0.7-1.4-1.4-2.1-2c-0.8-0.7-1.4-2.2-2.4-1.8
					c-1.2,0.5-0.6,2-0.6,3.1c0,35,0,70,0,105c0,0.7,0,1.4,0,2.1c0,0.4,0,1,0.5,1.2c0.5,0.2,0.8-0.3,1.2-0.6c1.2-1,2.1-2.5,4.2-3.5
					c-0.9,1.8-2.1,2.5-3,3.5c-0.5,0.6-1.5,1-1.1,1.8c0.3,0.8,1.3,0.5,2.1,0.5c7.4,0,14.8,0,22.2,0c1,0.1,2-0.1,2.9-0.6
					c1,0.3,1.9,0.7,2.7,1.3c-1.1,0.1-2.3,0.3-3.4,0.3c-12.3,0-24.5,0-36.8,0c-0.9,0-2,0.2-3-0.6c1.9-0.9,3.8-0.3,5.6-0.5
					c1-0.1,2.5,0.5,2.9-0.6c0.4-1-1-1.5-1.6-2.3c-0.7-0.8-1.7-1.4-2.3-3.1c1.4,1,2.8,2.2,4,3.4c0.4,0.3,0.7,0.9,1.3,0.7
					c0.6-0.3,0.5-0.9,0.5-1.4c0-0.6,0-1.2,0-1.8c0-34.9,0-69.8,0-104.7c0-1.2,0.6-2.9-0.6-3.3c-1.2-0.4-1.8,1.3-2.8,2
					c-0.7,0.5-1.1,1.4-2.4,1.6c0.7-1.8,2.2-2.7,3.2-3.9c0.3-0.4,0.9-0.7,0.8-1.3c-0.2-0.8-1-0.5-1.6-0.6c-2.2-0.1-4.5,0.2-7-0.3
					c0.8-0.8,1.6-0.6,2.3-0.6c12.6,0,25.2,0,37.7,0C80.1,45.7,81,45.8,81.9,45.9z"/>
			</g>
			<g id="Path_150">
				<path class="st4" d="M387.1,23c1.4,1,2.4,1.9,3.8,1.6c1.2,0,2.2-0.9,2.3-2.1c0.3-1.2-0.5-2.4-1.6-2.6c0,0,0,0,0,0
					c-1.5-0.4-1.7-1-0.7-2.2c0.5-0.6,1.5-1.3,1.1-2.1c-0.4-0.9-1.6-0.4-2.5-0.5c-0.5-0.1-1-0.1-1.9-0.1c0.7-0.6,1.7-0.8,2.6-0.6
					c1.1,0,2.7-0.5,3.2,0.5c0.5,0.9-0.8,1.8-1.4,2.7c-0.9,1.1-0.2,1.5,0.7,2c1.4,0.7,1.9,2.3,1.3,3.8c-0.5,1.4-1.9,2.4-3.4,2.2
					C389,25.7,387.5,24.6,387.1,23z"/>
			</g>
			<g id="Path_151">
				<path class="st4" d="M189.4,23.6c1,0.5,1.9,1.2,3.2,1.1c1.3,0.1,2.4-0.8,2.6-2.1c0.3-1.2-0.4-2.4-1.6-2.6c0,0,0,0,0,0
					c-1.4-0.4-1.9-0.9-0.8-2.1c0.5-0.6,1.5-1.3,1.1-2.1c-0.4-1-1.6-0.4-2.5-0.5c-0.5,0-1.1-0.1-1.6-0.4c1.7-0.4,3.4-0.5,5.1-0.2
					c0.7,0.2,0.6,0.7,0.2,1.3c-0.4,0.6-0.8,1.1-1.2,1.7c-0.6,0.8-0.9,1.3,0.3,1.8c1.4,0.6,2.1,2.2,1.7,3.6c-0.2,1.3-1.3,2.3-2.7,2.5
					C191.6,25.7,190.1,25.4,189.4,23.6z"/>
			</g>
			<g id="Path_152">
				<path class="st4" d="M407.1,14.7c-0.6,1.1-1.3,2.1-2,3.2c-1,1-1,2.6,0,3.6c0,0,0,0,0,0c0.8,1.1,1.5,2.2,2,3.5
					c-1.5-0.6-2-2.1-2.8-3.2c-0.7-1-1.1-1-1.8,0c-0.7,1.2-1.6,2.4-2.6,3.4c0.1-1.3,0.7-2.5,1.7-3.5c1.1-1.4,1.2-2.6,0-4
					c-0.8-1.1-1.5-2.2-2.2-3.3c1.5,0.3,1.7,1.2,2.2,1.9c1.7,2.6,1.7,2.6,3.4,0.1C405.6,15.7,405.9,14.9,407.1,14.7z"/>
			</g>
			<g id="Path_153">
				<path class="st4" d="M202.6,14.3c0.7,1.1,1.5,2.2,2.2,3.3c0.7,1.1,1.1,1,1.8,0c0.7-1.1,1.5-2.2,2.2-3.2l0.6,0.4
					c-0.7,1.1-1.3,2.3-2.1,3.3c-0.9,0.9-0.9,2.3,0,3.3c0.9,1.2,1.6,2.4,2.1,3.8c-1.2-0.4-1.6-1.5-2.2-2.4c-1.4-2.1-1.4-2.1-2.8-0.1
					c-0.5,1.1-1.3,2-2.2,2.8c-0.1-0.8,0.2-1.7,0.9-2.2c2.2-2.4,2.1-4.6-0.1-6.9c-0.4-0.5-0.7-1-0.9-1.5L202.6,14.3z"/>
			</g>
			<g id="Path_154">
				<path class="st4" d="M24.2,99.5c1.5,0.6,2,2,2.8,3c0.6,0.8,1,0.8,1.5,0c0.7-1.1,1.5-2.2,2.4-3.7c0.3,0.8,0.1,1.7-0.6,2.3
					c-2.2,2.3-2,4.4,0.1,6.7c0.7,0.5,0.9,1.5,0.6,2.3c-0.8-1.2-1.6-2.3-2.4-3.5c-0.6-1-1.1-1.1-1.7,0c-0.7,1.2-1.6,2.4-2.6,3.9
					c-0.2-1,0.1-2.1,0.9-2.8c1.8-2.1,2.2-4.2,0.1-6.3C24.8,100.8,24.5,100.2,24.2,99.5z"/>
			</g>
			<g id="Path_155">
				<path class="st4" d="M178.1,24.9c-0.5-2.2-0.1-4.4-0.2-6.7c-0.1-2.5,0-2.5-2.7-2.5c1-0.9,2.1-1.4,3-1.1c1,0.4,0.5,1.6,0.5,2.5
					c0.1,2.6,0,5.2,0,7.8L178.1,24.9z"/>
			</g>
			<g id="Path_156">
				<path class="st2" d="M119.8,46.2c-9.7,0.5-19.4,0.1-29.1,0.2c-2.6,0.2-5.2,0.1-7.7-0.3c0.1-0.1,0.1-0.2,0.2-0.2l36.3,0
					L119.8,46.2z"/>
			</g>
			<g id="Path_157">
				<path class="st5" d="M181,26.5l6-13.5l0.6,0.3c-2,4.5-4,9-6,13.5L181,26.5z"/>
			</g>
			<g id="Path_158">
				<path class="st2" d="M119.8,46.2l-0.4-0.3l0.9-0.1L119.8,46.2z"/>
			</g>
			<g id="Path_159">
				<path class="st2" d="M83.2,45.9c0,0.1-0.1,0.2-0.2,0.2c0-0.1-0.1-0.2-0.1-0.3C83,45.9,83.1,45.9,83.2,45.9z"/>
			</g>
			<g id="Path_160">
				<path class="st2" d="M173,161.8c0-13.3,0-26.7-0.1-40c0.1-1.2,0-2.5-0.5-3.6c-0.1-1.1,0.3-2.2,1-3.1c0.3,1.4,0.4,2.9,0.3,4.3
					c0,14.1,0.1,28.3,0.1,42.4c-0.1,0.1-0.1,0.1-0.2,0.2L173,161.8z"/>
			</g>
			<g id="Path_161">
				<path class="st1" d="M560.8,118.4L560.8,118.4c-2,0.4-4.1,0.4-6.1,0c-2.1-0.2-3.7-2-3.6-4.1c-0.1-6,0-12,0-18c0-1.5,0.8-2,2.2-2
					c2,0,4,0,5.9,0c0.9-0.1,1.8,0.5,1.9,1.4c0,0.1,0,0.3,0,0.4C561,103.5,561.5,110.9,560.8,118.4z"/>
			</g>
			<g id="Path_162">
				<path class="st3" d="M211.9,108.7c0-1.8,0-3.6,0-5.5c0.6-1,0.9-2.1,1-3.2c2.9-10.8,10-17.5,19.9-18.5c5.8-0.6,11.1,0.6,15.5,4.6
					c0.4,0.4,0.8,1.2,1.5,0.8c0.6-0.3,0.4-1.1,0.4-1.7c0-5.9,0-11.9,0-17.8c0-3.3,0.1-3.4,3.3-3.4c1.8,0,3.7,0,5.5,0
					c3.2,0,3.3,0.1,3.3,3.4c0,11.5,0,23,0,34.5c0,8.2-0.1,16.3,0,24.5c0,2.2-0.7,3.2-3,3.1c-2.1-0.1-4.1-0.1-6.2,0
					c-2.1,0.1-3.2-0.6-3-2.8c0-0.5,0.1-1.2-0.4-1.4c-0.5-0.3-0.8,0.3-1.1,0.5c-12.6,10-30.3,4.2-35.1-11.5c-0.2-0.7-0.4-1.5-0.6-2.2
					C212.8,110.8,212.4,109.7,211.9,108.7z M250,106.1c0-7.7-5.4-13.3-12.9-13.2c-7.5,0-12.8,5.5-12.9,13.1c0,7.7,5.4,13.2,13,13.2
					C244.7,119.2,250,113.8,250,106.1z"/>
			</g>
			<g id="Path_163">
				<path class="st2" d="M173.5,93.6l0.1,1.8c-0.1,0.1,0,0.3,0,0.4l0,0.5l-0.6,0.1c-3-0.1-5.9-0.1-8.9-0.2c-12.7,0-25.5,0-38.2,0
					c-6.4,0-10-4.5-8.8-10.5c0.5-3.5,3.4-6.1,6.9-6.3c1.2-0.1,2.4-0.2,3.7-0.2c12.9,0,25.8,0,38.7-0.1c2.3,0,3.5,0.7,4.1,2.9
					c0.8,2.8,1.6,5.6,2.2,8.4C172.4,91.7,172.7,92.8,173.5,93.6z"/>
			</g>
			<g id="Path_164">
				<path class="st2" d="M97.2,112.4c6.6,0,13.1-0.1,19.7,0c5.3,0.1,8.4,3.4,8.4,8.5c0,5.1-3.2,8.3-8.6,8.3c-10.1,0.1-20.1,0-30.2,0
					c-3.2,0-6.4-0.1-9.6,0c-1.7,0-2.5-0.6-2.4-2.4c0.1-4,0.1-7.9,0-11.9c-0.1-2,0.6-2.7,2.6-2.7C83.8,112.5,90.5,112.4,97.2,112.4
					L97.2,112.4z"/>
			</g>
			<g id="Path_165">
				<path class="st2" d="M173.5,113.3c0,0.6,0,1.2-0.1,1.8c-0.7,0.9-1.1,2-1,3.1c-0.6,3.1-1.5,6.2-2.5,9.3c-0.3,1.2-1.4,2-2.7,1.9
					c-5.6-0.1-11.3,0.1-16.9-0.1c-5-0.1-8-3.5-8-8.4c0-4.9,3-8.3,8-8.4c6.3-0.2,12.6,0,19-0.1c1.2,0,2.4-0.1,3.6-0.2L173.5,113.3z"
					/>
			</g>
			<g id="Path_166">
				<path class="st2" d="M84.6,79.4c2.4,0,4.9-0.1,7.3,0c4.6,0.2,7.6,3.1,7.8,7.6c0.3,5.1-2.2,8.6-6.9,9.1
					c-5.5,0.6-11.1,0.2-16.7,0.2c-1.3,0-1.7-0.7-1.7-1.9c0-4.3,0-8.5,0-12.8c0-1.6,0.7-2.2,2.2-2.2C79.3,79.4,82,79.4,84.6,79.4
					L84.6,79.4z"/>
			</g>
			<g id="Path_167">
				<path class="st2" d="M173.5,113.3l-0.6-1.1c0-5.3,0-10.5,0-15.8l0.6-0.1C174,102,174,107.7,173.5,113.3z"/>
			</g>
			<g id="Path_168">
				<path class="st6" d="M476.6,115.4c0-9.5,0-19.1,0-28.6c0-4.1,0-4.1,4.2-4.1c1.5,0,3.1,0.1,4.6,0c2.3-0.2,3.7,0.5,3.4,3.1
					c-0.1,0.4-0.1,1,0.4,1.2s0.8-0.3,1.1-0.6c9.3-7.4,21.5-6.5,29.6,2.1c9.9,10.5,8.7,28.5-2.5,37.4c-7.9,6.5-19.3,6.4-27.1-0.2
					c-0.3-0.3-0.7-0.8-1.1-0.6c-0.7,0.3-0.5,1.1-0.5,1.6c0,6.1,0,12.2,0,18.3c0,2.9-0.2,3.1-3.1,3.1c-1.9,0-3.8,0-5.7,0
					c-3.1,0-3.3-0.2-3.3-3.2c0-8.8,0-17.5,0-26.3C476.6,117.5,476.6,116.4,476.6,115.4z M514.6,105.9c0-7.6-5.4-13.1-12.9-13.1
					c-7.6,0-12.9,5.5-12.9,13.3c0,7.6,5.4,13.1,12.9,13.1C509.2,119.2,514.6,113.7,514.6,105.9z"/>
			</g>
			<g id="Path_169">
				<path class="st6" d="M301.2,111c-4.9,0-9.8,0-14.6,0c-0.9,0-2-0.4-2.5,0.6c-0.4,0.9,0.3,1.7,0.8,2.5c2.5,4.3,8.6,6.5,14.6,5.3
					c2.4-0.4,4.6-1.4,6.3-3c0.7-1,2.1-1.2,3.1-0.4c0,0,0.1,0.1,0.1,0.1c1.9,1.2,3.9,2.4,5.9,3.4c1.8,0.9,1.6,1.8,0.5,3.1
					c-3.9,4.4-9.4,7.2-15.3,7.8c-13.6,1.7-25.1-5.5-28.3-17.7c-2.7-10.4,1-21.4,9.3-27.1c8.4-5.8,20.2-5.9,28.2-0.1
					c7.9,5.8,10.6,13.8,9.8,23.3c-0.1,1.6-1,2-2.5,2C311.4,110.9,306.3,111,301.2,111L301.2,111z M295,101.7c3.2,0,6.4,0,9.6,0
					c2.3,0,2.5-0.5,1.7-2.6c-1.8-4.3-5.8-6.8-10.9-6.8c-5.3,0-9.5,2.7-11.3,7.1c-0.7,1.7-0.2,2.4,1.6,2.4
					C288.8,101.7,291.9,101.7,295,101.7L295,101.7z"/>
			</g>
			<g id="Path_170">
				<path class="st6" d="M393.2,130.7c-13.2,0-22.6-7.2-25.4-18.2c-2.9-11.1,1.8-22.6,11.4-28c9.9-5.5,22.2-3.8,30.1,4.3
					c3.9,4.1,3.8,4.3-1,7.1c-0.4,0.2-0.8,0.5-1.2,0.7c-1.4,0.8-2.7,1.9-4.2,2.2c-1.9,0.4-2.3-1.9-3.5-2.9
					c-5.3-4.1-12.9-3.5-17.4,1.5c-4.5,5.4-4,13.4,1.1,18.2c4.9,4.4,13.1,4.2,17.4-0.7c1.7-2,2.9-2,4.9-0.7c1.6,1.1,3.4,2.1,5.2,2.9
					c2,1,2,2.1,0.7,3.7C406.3,127.5,399.6,130.5,393.2,130.7z"/>
			</g>
			<g id="Path_171">
				<path class="st6" d="M342,130.7c-6.6-0.2-13.1-2.2-17.5-8.7c-1.5-2.2-1.5-2.4,1-3.8c2.2-1.2,4.4-2.4,6.6-3.7
					c1-0.6,1.6-0.4,2.2,0.6c2.4,3.9,7.2,5.6,11.6,4.2c1.6-0.5,3-1.3,3.2-3.1c0.3-1.9-1.1-3-2.6-3.6c-2-0.8-4-1.4-6.1-2.1
					c-2.7-0.8-5.4-1.7-7.9-2.9c-10.2-4.9-8.7-17.2-2.4-22.3c8.2-6.6,22.8-4.8,29,3.6c1.2,1.6,1.2,2.6-0.8,3.5
					c-2.1,1-4.2,2.2-6.2,3.4c-0.8,0.7-1.9,0.6-2.6-0.2c-0.1-0.1-0.2-0.3-0.3-0.4c-2.2-2.9-5.2-3.6-8.6-2.9c-1.7,0.2-3,1.5-3.2,3.1
					c-0.2,1.8,1.1,2.8,2.5,3.4c2.5,1,5,1.8,7.6,2.4c2.5,0.7,4.9,1.6,7.2,2.8c6.5,3.8,8.6,12,4.9,18.5c-0.9,1.6-2.1,2.9-3.6,4
					C352.2,129.7,347.6,130.7,342,130.7z"/>
			</g>
			<g id="Path_172">
				<path class="st6" d="M431.1,89.1c1.8-1.6,3.1-3.4,4.9-4.7c2.1-1.3,4.4-2.2,6.8-2.5c1.6-0.2,2.5,0.2,2.5,2c0,3,0,5.9,0,8.9
					c0,1.5-0.6,2.1-2.1,2.3c-8.5,0.7-12,4.6-12.1,13.2c0,6.1-0.1,12.2,0,18.3c0,2-0.6,3-2.7,2.8c-2.2-0.1-4.4-0.1-6.6,0
					c-2.2,0.1-2.8-0.8-2.8-2.8c0.1-7.7,0-15.4,0-23.1c0-6,0.1-12,0-18.1c0-2.1,0.7-2.9,2.8-2.8c2.4,0.1,4.7,0.1,7.1,0
					c1.5,0,2.3,0.6,2.2,2.2C431.1,86.2,431.1,87.7,431.1,89.1z"/>
			</g>
			<g id="Path_173">
				<path class="st6" d="M453.6,106c0-6.9,0.1-13.7,0-20.6c0-2.1,0.7-2.9,2.8-2.8c2.3,0.1,4.6,0.1,6.9,0c1.6,0,2.4,0.5,2.4,2.2
					c0,14.1,0,28.2,0,42.3c0,1.6-0.7,2.2-2.2,2.2c-2.4,0-4.9-0.1-7.3,0c-1.9,0.1-2.5-0.8-2.5-2.6C453.6,119.9,453.6,112.9,453.6,106
					z"/>
			</g>
			<g id="Path_174">
				<path class="st6" d="M453.6,70.2c0-1.2,0.1-2.4,0-3.7c-0.1-1.8,0.6-2.7,2.5-2.6c2.4,0.1,4.9,0,7.3,0c1.5,0,2.3,0.5,2.2,2.1
					c-0.1,2.7-0.1,5.5,0,8.2c0,1.6-0.8,2.2-2.2,2.2c-2.5,0-5,0-7.5,0c-1.7,0-2.3-0.7-2.2-2.4C453.6,72.8,453.6,71.5,453.6,70.2z"/>
			</g>
			<g id="Path_175">
				<path class="st7" d="M173.5,95.9c-0.1-0.1-0.1-0.3,0-0.4C173.5,95.6,173.5,95.8,173.5,95.9z"/>
			</g>
			<g id="Path_176">
				<path class="st1" d="M250,106.1c0,7.7-5.4,13.1-12.8,13.1c-7.6,0-13-5.5-13-13.2c0-7.6,5.4-13.1,12.9-13.1
					C244.7,92.8,250,98.4,250,106.1z"/>
			</g>
			<g id="Path_177">
				<path class="st1" d="M514.6,105.9c0,7.7-5.3,13.3-12.9,13.3c-7.5,0-12.8-5.4-12.9-13.1c0-7.8,5.3-13.3,12.9-13.3
					C509.2,92.9,514.5,98.3,514.6,105.9z"/>
			</g>
			<g id="Path_178">
				<path class="st1" d="M295,101.7c-3.1,0-6.3,0-9.4,0c-1.8,0-2.3-0.7-1.6-2.4c1.8-4.4,6-7,11.3-7.1c5.1,0,9.1,2.5,10.9,6.8
					c0.9,2.1,0.6,2.6-1.7,2.6C301.4,101.7,298.2,101.7,295,101.7z"/>
			</g>
		</g>
		<g id="Group_26" transform="translate(1565.051 63.973)">
			<g id="Path_179">
				<path class="st1" d="M334.2,162.3c0-0.1-0.1-0.3-0.2-0.4c-0.2-1.7,1.3-1.7,2.9-2.1c-2.4-0.5-3.7-0.3-3.4,2.1c0,0.1,0,0.3,0,0.5
					c0.5,0.7,1.2,0.4,1.9,0.4c0.7,0.4,1.3,0.9,1,1.8c-0.5,1.5-1.9,0.6-3.1,0.7c0.7,1,2.1,1.2,3.1,0.6c0.7-0.4,1.1-1.2,0.9-1.9
					c-0.1-1-0.9-1.7-1.9-1.6L334.2,162.3z"/>
			</g>
			<g id="Path_180">
				<path class="st1" d="M329.2,159.9c-0.7-0.5-1.6-0.5-2.3,0l-0.5,0.4c-1.2,1.5-1.2,3.7,0,5.2l0.5,0.4c0.7,0.5,1.6,0.5,2.3,0
					l0.5-0.4c1.1-1.5,1.1-3.6,0-5.1L329.2,159.9z"/>
			</g>
			<g id="Path_181">
				<path class="st1" d="M363.8,135.9c1.3-1.5,1.3-3.7,0-5.2c-1.9-1.2-3.2-0.8-3.8,1.1c-0.6,1.4-0.3,3.1,0.8,4.2
					c0.7,0.8,1.9,0.9,2.7,0.2C363.7,136.2,363.8,136.1,363.8,135.9z"/>
			</g>
			<g id="Path_182">
				<path class="st1" d="M419.8,51l0.4,0.4c2.1,0.9,3.2,0.4,3.8-1.6c0.5-1.4,0.1-2.9-0.9-4c-0.8-0.8-2.2-0.8-3,0
					c-0.1,0.1-0.2,0.2-0.3,0.4C418.8,47.7,418.9,49.6,419.8,51z"/>
			</g>
			<g id="Path_183">
				<path class="st1" d="M41.9,48L41.9,48c-0.8-1.6,1.2-2.5,1.2-4.3l-1.9,2.3c-0.9-0.5-1-1.6-2.2-1.9c1.8,2,1.8,3.9-0.3,5.9
					C40.5,49.7,40.3,47.5,41.9,48z"/>
			</g>
			<g id="Path_184">
				<path class="st1" d="M74.9,20L74.9,20c-0.8-1.6,1.1-2.5,1.1-4.2c-1.2,2.7-2.5,1.9-4,0.2c2.2,2,1.4,4-0.1,6.1
					C73.4,21.6,73.3,19.6,74.9,20z"/>
			</g>
			<g id="Path_185">
				<path class="st1" d="M57.9,21.5l0.6,0.7c1,0.6,2.2,0.3,2.8-0.6c0.9-1.2,1-2.7,0.5-4.1c-0.3-1.2-1.6-1.9-2.8-1.6
					c-0.8,0.2-1.4,0.8-1.6,1.6C56.9,18.7,57,20.3,57.9,21.5z"/>
			</g>
			<g id="Path_186">
				<path class="st1" d="M25.4,49.9c2,0.8,3.1,0.3,3.6-1.5c0.6-2-0.2-4.2-1.7-4.6c-1.1-0.3-2.4,0.3-2.7,1.4
					c-0.6,1.3-0.5,2.7,0.2,3.9L25.4,49.9z"/>
			</g>
			<g id="Path_187">
				<path class="st1" d="M455.8,21.9l0.5-0.5c0.7-0.9,1-2.1,0.7-3.2c-0.3-1.5-1.1-2.8-2.9-2.4c-1.6,0.3-2.4,2.5-1.9,4.6
					C452.7,22.2,453.9,22.7,455.8,21.9z"/>
			</g>
			<g id="Path_188">
				<path class="st1" d="M67.6,16.3l-0.2-0.5c-0.9,0.5-2.3-0.6-2.6,1.2c-0.3,1.6,0.3,2.2,1.9,2.2c0.6,0,1.1,0.5,1.1,1.1
					c0,0.1,0,0.2,0,0.3c-0.2,0.7-0.8,1.2-1.5,1.1c-0.5,0-0.9-0.7-1.5-0.1c0.7,0.8,2,1,2.9,0.4c0.7-0.4,1.1-1.2,0.9-1.9
					c-0.1-1.1-0.9-1.5-1.9-1.7c-0.6-0.1-1.3-0.1-1.2-1c0.1-0.8,0.6-0.9,1.3-1C67.1,16.4,67.4,16.4,67.6,16.3z"/>
			</g>
			<g id="Path_189">
				<path class="st1" d="M426.8,50.9c0.6,0.9,1.8,1.3,2.8,0.8c0.7-0.3,1.3-0.7,1.3-1.6c0.1-1.1-0.7-2.1-1.9-2.2
					c-0.6-0.1-1.3-0.2-1.2-1c0.1-0.8,0.8-0.8,1.3-0.9c0.3-0.1,0.6-0.1,0.6-0.6c-1.1,0-2.4-0.6-2.8,1.2c-0.3,1.5,0.4,2,1.8,2.1
					c0.7,0,1.2,0.5,1.3,1.2c0,0.1,0,0.3,0,0.4c-0.2,0.9-1,1-1.8,0.9C427.8,51.1,427.5,50.5,426.8,50.9z"/>
			</g>
			<g id="Path_190">
				<path class="st1" d="M462.9,16c-1.3,0-2.6-0.8-3,1.1c-0.3,1.4,0.2,2.1,1.8,2.1c0.6-0.1,1.2,0.4,1.3,1c0,0.1,0,0.2,0,0.3
					c-0.1,1-0.7,1.2-1.6,1.2c-0.4,0-0.9-0.6-1.4,0c1.4,1,2.7,1,3.6-0.4c0.7-1.2,0.1-2.2-1.1-2.7c-0.6-0.3-1.7-0.1-1.6-1.3
					C461,16.1,462.3,16.8,462.9,16z"/>
			</g>
			<g id="Path_191">
				<path class="st1" d="M32.2,49.3c1.1,1.3,2.4,1.5,3.4,0.1c0.8-1.2,0.3-2.2-0.9-2.8c-0.7-0.4-1.9,0-1.9-1.3c0-1.3,1.5-0.6,2.1-1.5
					c-1.4-0.1-2.6-0.3-2.9,1.5C31.8,47,32.9,47,34,47.1c0.7,0,1.2,0.5,1.2,1.2c0,0.1,0,0.2,0,0.2c-0.1,0.7-0.7,1.2-1.4,1.2
					c-0.1,0-0.2,0-0.3-0.1C33.1,49.6,32.6,49.4,32.2,49.3z"/>
			</g>
			<g id="Path_192">
				<path class="st1" d="M367.5,135.7c0.6,1,1.8,1.3,2.8,0.8c0.8-0.3,1.4-1.1,1.3-1.9c-0.1-1-0.9-1.9-1.9-1.9c-0.1,0-0.3,0-0.5-0.1
					c-0.6-0.1-0.7-0.5-0.7-1c0-0.4,0.3-0.6,0.7-0.8c0.5-0.2,1.2,0.2,1.7-0.6c-1.1-0.2-2.3-0.7-2.9,0.4s-0.9,2.6,1.3,2.8
					c0.9,0.1,1.7,0.5,1.4,1.6c-0.3,1.1-1.2,1-2.1,0.7C368.2,135.7,368,135.2,367.5,135.7z"/>
			</g>
			<g id="Path_193">
				<path class="st1" d="M427.4,93.4c1.4-2.5,2.7-2.2,4.3,0c-1.7-2.1-2-4-0.1-6.1c-1.3,1.7-2.4,2.5-4,0.3
					C429.5,89.6,428.8,91.4,427.4,93.4z"/>
			</g>
			<g id="Path_194">
				<path class="st1" d="M471.5,16.3c-1.3,0.2-1.2,1.5-2.4,1.7l-1.4-1.6c1.8,1.9,0.9,3.7-0.3,5.7c1.3-2.5,2.6-2,4.1-0.1
					C469.7,20,469.8,18.2,471.5,16.3z"/>
			</g>
			<g id="Path_196">
				<path class="st1" d="M431.7,45.6c0.2,1.6,2.3,2.8,0.5,4.8c0.9-1.1,1.7-0.5,2.6-0.2c-1.7-1.8,0.4-3,0.5-4.9
					C434.1,48.2,433,47.5,431.7,45.6z"/>
			</g>
			<g id="Path_197">
				<path class="st1" d="M374.9,130c0.9,2.3,2.3,4.4,4.1,6.2c-1.7-3.9-1.7-3.9-0.6-5.5c0.3,0.7,0.2,1.3-0.5,1.5
					C376.4,132.6,376.3,131,374.9,130z"/>
			</g>
			<g id="Path_198">
				<path class="st1" d="M341.4,165.1c1.5-1.5,2.8-3.3,3.7-5.3c-1.3,0.2-1.2,1.7-2.4,1.9c-0.2-0.3-0.4-0.6-0.7-0.9s-0.4-0.8-1.3-0.5
					c1.5,1,1.9,3,0.9,4.5C341.5,164.8,341.5,165,341.4,165.1z"/>
			</g>
			<g id="Path_199">
				<path class="st2" d="M51.4,59.9V35.6l0.2-2.8c1.3-0.4,1.4-1.6,1.4-2.6c0-5,0-10.1,0-15.1c0-0.9,0.1-2.1-1.2-2.1
					c-1.3,0-1.2,1.2-1.2,2.1c0,4.9,0,9.8,0,14.6c0,2.1,0.9,3.2,3.2,3.2c8.4-0.1,16.8-0.1,25.2,0c2,0,2.9-0.9,3-2.9
					c0-5,0-10.1,0-15.1c0-0.8,0-1.9-1.1-1.9c-1.3-0.1-1.3,1-1.3,1.9c0,5,0,10.1,0,15.1c0,2,0.9,3,3,2.9c0.7,0,1.4,0,2.1,0H317
					c5.1,0,5.2,0,5.2-5.2c0-4.1,0-8.2,0-12.4c0-0.9,0.3-2.3-1.2-2.3s-1.2,1.4-1.2,2.3c0,4.7-0.1,9.5,0,14.2c0,2.9,0.6,3.4,3.6,3.4
					c8,0,16,0,24,0c3.1,0,3.6-0.5,3.6-3.6c0-4.7,0-9.3,0-14c0-0.9,0.3-2.3-1.2-2.3c-1.4,0-1.2,1.4-1.2,2.3c0,4.8-0.1,9.6,0,14.4
					c0,2.8,1.5,4.3,4.2,4.3c4.9,0.1,9.8,0,14.6,0c0.7,0,1.6,0.1,1.6-0.8c0-1.1-1-0.9-1.7-0.9c-4.7,0-9.3-0.1-14,0
					c-2.8,0-3.4,0.8-3.4,3.6c0,7.8,0,15.6,0,23.3c0,2.8,0.7,3.6,3.5,3.6c4.6,0.1,9.2,0,13.7,0c0.9,0,2.1,0.1,2.1-1.2
					c0-1.3-1.2-1.2-2.1-1.2c-4.7,0-9.3-0.1-14,0c-2.5,0-3.3,0.8-3.3,3.4c0,17.8,0,35.6,0,53.3c0,2.2,0.8,3.3,3,3.4
					c4.8,0,9.6,0,14.4,0c0.8,0,1.9,0,1.9-1.2c0-1.3-1.1-1.3-2-1.3c-4.7,0-9.5,0-14.2,0c-2.1,0-3.2,1-3.2,3.2
					c0.1,8.2,0.1,16.5,0,24.7c0,2.1,0.8,3.2,2.9,3.2c4.9,0.1,9.8,0,14.6,0c0.8,0,1.8-0.1,1.8-1.3s-1.1-1.2-1.9-1.2
					c-4.9,0-9.8-0.1-14.6,0c-2.3,0-4.2,1.9-4.2,4.2c0,0,0,0.1,0,0.1c-0.1,5.2-0.1,10.4,0,15.6c0,0.8,0,1.9,1.2,1.9
					c1.2,0,1.2-1,1.2-1.8c0-5.1,0-10.2,0-15.3c0-2-1-2.9-3-2.9c-8.4,0-16.8,0-25.2,0c-2,0-3,0.9-3,2.9c0,5.1,0,10.2,0,15.3
					c0,0.8,0,1.8,1.2,1.9c1.2,0,1.2-1,1.2-1.8c0-5.1,0-10.2,0-15.3c0-1.9-1-3-3-3c-0.9,0-1.8,0-2.7,0H83.9c-4,0-4.5,0.4-4.5,4.4
					c0,4.3,0,8.5,0,12.8c0,0.6,0,1.2,0.1,1.8c0,0.6,0.5,1.1,1.1,1.1c0,0,0.1,0,0.1,0c0.6,0,1-0.5,1-1c0.1-0.9,0.1-1.8,0.1-2.7
					c0-4.4,0-8.8,0-13.3c0-2-0.9-3.1-3.1-3.1c-8.5,0.1-16.9,0.1-25.4,0.1c-2.1,0.3-1.9-1.3-2-2.6v-25.7l-0.1-0.8
					c0.1-0.3,0.1-0.6,0.1-0.9C51.4,99.2,51.4,79.5,51.4,59.9z M321.2,33.9h-0.5c-1,0-2-0.1-3-0.1c-78.1,0-156.1,0-234.2,0
					c-0.9,0-1.8,0.1-2.7,0.1h-0.5c-8.8,0-17.5,0-26.3-0.1c-1.2,0-1.9,0.3-1.9,1.6c0.1,8.7-0.2,17.5,0.2,26.2l0,0.5
					c-0.1,0.1-0.1,0.3-0.1,0.4c0,18.8,0,37.7,0,56.5c0,0.1,0,0.2,0.1,0.2v0.5c0,8.8-0.1,17.7-0.2,26.5c0,1.3,0.5,1.7,1.8,1.7
					c8.8-0.1,17.5-0.1,26.3-0.1l0.6,0c1,0,2,0.1,3,0.1c77.8,0,155.7,0,233.5,0c1.1,0,2.1-0.1,3.2-0.1h0.6c8.7,0,17.3,0,26,0.1
					c1.3,0,2-0.3,2-1.8c-0.1-8.8-0.1-17.6-0.1-26.5c0-0.2,0-0.3,0-0.5c0-0.6,0.1-1.2,0.1-1.8c0-17.8,0-35.5,0-53.3
					c0-0.7-0.1-1.4-0.1-2c0-0.2,0-0.4,0-0.5c0-8.7,0.1-17.5,0.1-26.2c0-1.3-0.6-1.7-1.8-1.7C338.7,33.9,329.9,33.9,321.2,33.9
					L321.2,33.9z"/>
			</g>
			<g id="Path_200">
				<path class="st2" d="M553.2,33.6c0.8-0.7,1.2-1.8,1.1-2.9c0-5.2,0-10.4,0-15.6c0-0.7,0.3-1.8-0.8-1.8c-1.1,0-0.8,1.1-0.8,1.8
					c0,5.1-0.1,10.2,0,15.3c0,3.1,1.3,4.4,4.3,4.4c4.7,0.1,9.3,0,14,0c0.7,0,1.8,0.3,1.8-0.8c0-1.2-1.2-0.9-1.9-0.9
					c-4.7,0-9.3-0.1-14,0c-2.7,0-3.2,0.6-3.2,3.3c0,7.8,0,15.6,0,23.3c0,2.7,0.5,3.3,3.1,3.4c4.7,0.1,9.5,0,14.2,0
					c0.6,0,1.6,0.2,1.7-0.7c0.1-1.2-1-0.9-1.7-0.9c-4.7,0-9.5,0-14.2,0c-2.1,0-3.2,0.8-3.1,3.1c0.1,17.4,0.1,34.8,0,52.2
					c0,2.2,1,3,3,3c4.7,0,9.3,0,14,0c0.7,0,1.8,0.2,1.7-0.9c0-0.9-1-0.8-1.6-0.8c-4.7,0-9.5,0-14.2,0c-2,0-2.8,0.9-2.8,3
					c0.1,8.2,0.1,16.5,0,24.7c0,1.5,0.4,2.6,2.1,2.7c5.5,0.1,11,0,16.5,0c0.2,0,0.3-0.3,0.5-0.4c-0.3-0.9-1-0.6-1.6-0.6
					c-4.7,0-9.5-0.1-14.2,0c-3.2,0-4.2,1.1-4.3,4.3c-0.1,4.3,0,8.7,0,13c0,0.7-0.3,1.8,0.9,1.7c0.9,0,0.7-1,0.7-1.7
					c0-4.5,0-9,0-13.5c0-2-0.8-3-3-3c-8.2,0.1-16.3,0.1-24.5,0c-2.1,0-2.9,0.9-3,2.9c0,4.4,0,8.8,0,13.3c0,0.6-0.2,1.6,0.8,1.6
					c0.9,0,0.8-1,0.8-1.6c0-4.4,0-8.8,0-13.3c0-1.9-0.8-2.9-2.9-2.9c-14.7,0.1-29.4,0.1-44.2,0c-2.1,0-3,0.9-3,2.8c0,4.5,0,9,0,13.5
					c0,0.6-0.1,1.4,0.8,1.4c1,0,0.9-0.9,0.9-1.5c0-4.5,0-9,0-13.5c0-1.9-1-2.7-2.9-2.7c-8.2,0-16.3,0-24.5,0c-1.2,0-2.3,0.2-2.4,1.5
					c-0.5,5.5-0.1,11-0.2,16.6c1.3-0.2,1.1-0.9,1.1-1.5c0-4.5,0-9,0-13.5c0-3.1-1-4.1-4.1-4.1c-4.8-0.1-9.6,0-14.4,0
					c-0.5,0-1.1-0.2-1.4,0.5c0.2,0.8,0.8,0.6,1.3,0.6c4.8,0,9.6,0,14.4,0c2.9,0,3.3-0.5,3.3-3.3c0-8.5,0-17.1-0.1-25.6
					c0-0.3,0-0.6,0-0.9c0-10.1,0.1-20.3,0.1-30.4c0-8.6-0.1-17.2-0.1-25.8c0-0.2,0-0.4,0-0.6c0-8.8,0-17.5,0.1-26.3
					c0.2-1.2-0.7-2.4-1.9-2.6c-0.2,0-0.4,0-0.6,0c-5.1-0.1-10.2,0-15.3,0c-0.6,0-1.4,0-1.4,0.9c0,0.8,0.8,0.8,1.4,0.8
					c5.1,0,10.2,0,15.3,0c1.7,0.1,3.2-1.2,3.3-2.9c0-0.1,0-0.2,0-0.2c0.1-5.9,0.1-11.9,0.1-17.8c0-0.2-0.2-0.3-0.4-0.5
					c-0.8,0.2-0.6,0.8-0.6,1.3c0,5.3,0,10.7,0,16c-0.1,1.1,0.3,2.2,1.1,2.9c0,0.4,0,0.7-0.1,1.1c0.1,9.1,0.1,18.3,0.2,27.4
					c0,0.2,0,0.4,0,0.6l0,56.2c0,0.3,0,0.6,0,0.9c0,8.7,0,17.4-0.1,26.1c0,1.4,0.5,1.9,1.9,1.9c8.5-0.1,17.1-0.1,25.6-0.1l0.9,0h48
					l0.9,0c8.5,0,17.1,0,25.6,0.1c1.4,0,1.9-0.5,1.9-1.9c-0.1-8.7-0.1-17.4-0.1-26.1c0-0.3,0-0.6,0-0.9c0-8.5,0.1-16.9,0.1-25.4
					c0-10.3-0.1-20.6-0.1-30.9l0-0.5c0.1-9.3,0.2-18.5,0-27.8L553.2,33.6z"/>
			</g>
			<g id="Path_201">
				<path class="st2" d="M447.1,118.9c0,0.3,0,0.6,0,0.9h-19l0-0.9c2.9,0,5.8,0,8.7,0c1.2,0,2.5,0.2,3.4-0.8l0.1-0.1
					c0.4-1.2,0.6-2.5,0.4-3.8c0-15.5,0-31.1-0.1-46.6c0-1.1,1.2-3.3-1.6-3.2c-0.3-3.2-2.7-1.4-4.1-1.6c-2.2-0.3-4.5-0.1-6.8-0.4
					c6.3-0.8,12.6-0.3,18.9-0.2c0,0.2,0,0.4,0,0.6c-1.5,0.1-3.1-0.5-4.4,0.8l-0.2,0.2c-1,0.3-0.8,1.2-0.8,1.9c0,16.7,0,33.4,0,50.2
					c0,2.2,1,3.3,3.2,3.2C445.5,118.9,446.3,118.9,447.1,118.9z"/>
			</g>
			<g id="Path_202">
				<path class="st2" d="M476.4,33.6h48c0,0.2,0,0.5,0,0.7h-48L476.4,33.6z"/>
			</g>
			<g id="Path_203">
				<path class="st5" d="M67.6,16.3c-0.3,0.1-0.6,0.1-0.8,0.2c-0.7,0-1.2,0.2-1.3,1c-0.1,0.9,0.6,0.9,1.2,1c1,0.2,1.7,0.6,1.9,1.7
					c0.2,0.8-0.2,1.6-0.9,1.9c-0.9,0.6-2.2,0.4-2.9-0.4c0.6-0.6,1,0.1,1.5,0.1c0.7,0.1,1.4-0.4,1.5-1.1c0.2-0.6-0.2-1.2-0.7-1.4
					c-0.1,0-0.2,0-0.3,0c-1.6,0-2.2-0.7-1.9-2.2c0.4-1.8,1.8-0.8,2.6-1.2L67.6,16.3z"/>
			</g>
			<g id="Path_204">
				<path class="st8" d="M426.8,50.9c0.7-0.5,0.9,0.2,1.4,0.2c0.8,0.1,1.6,0,1.8-0.9c0.2-0.6-0.2-1.3-0.8-1.5c-0.1,0-0.3-0.1-0.4,0
					c-1.4-0.1-2.1-0.6-1.8-2.1c0.4-1.8,1.7-1.2,2.8-1.2c0,0.6-0.3,0.6-0.6,0.6c-0.6,0.1-1.3,0.1-1.3,0.9c-0.1,0.9,0.6,0.9,1.2,1
					c1.1,0.1,1.9,1.1,1.9,2.2c0,0.9-0.6,1.3-1.3,1.6C428.6,52.2,427.4,51.9,426.8,50.9z"/>
			</g>
			<g id="Path_205">
				<path class="st8" d="M462.9,16c-0.6,0.8-2,0.2-2.1,1.4c-0.1,1.2,1,0.9,1.6,1.3c1.2,0.6,1.8,1.5,1.1,2.7
					c-0.9,1.5-2.2,1.4-3.6,0.4c0.5-0.7,1,0,1.4,0c0.9,0,1.5-0.3,1.6-1.2c0.1-0.6-0.4-1.2-1-1.3c-0.1,0-0.2,0-0.3,0
					c-1.5,0-2.1-0.7-1.8-2.1C460.4,15.2,461.7,15.9,462.9,16z"/>
			</g>
			<g id="Path_206">
				<path class="st5" d="M32.2,49.3c0.4,0.2,0.8,0.3,1.2,0.4c0.7,0.2,1.4-0.2,1.6-0.9c0-0.1,0-0.2,0.1-0.3c0.1-0.6-0.3-1.3-0.9-1.4
					c-0.1,0-0.2,0-0.2,0c-1.1-0.1-2.2-0.1-1.9-1.8c0.3-1.8,1.5-1.6,2.9-1.5c-0.6,0.9-2.1,0.1-2.1,1.5c0,1.3,1.2,0.9,1.9,1.3
					c1.2,0.7,1.7,1.6,0.9,2.8C34.6,50.8,33.3,50.5,32.2,49.3z"/>
			</g>
			<g id="Path_207">
				<path class="st8" d="M367.5,135.7c0.5-0.5,0.8,0,1.1,0.1c0.9,0.3,1.8,0.3,2.1-0.7c0.3-1.1-0.5-1.5-1.4-1.6
					c-2.1-0.2-1.8-1.6-1.3-2.8s1.8-0.6,2.9-0.4c-0.5,0.9-1.2,0.4-1.7,0.6c-0.4,0.1-0.7,0.3-0.7,0.8c0,0.5,0.1,0.9,0.7,1
					c0.2,0,0.3,0,0.5,0.1c1,0.1,1.9,0.9,1.9,1.9c0.1,0.9-0.5,1.7-1.3,1.9C369.2,137,368,136.6,367.5,135.7z"/>
			</g>
			<g id="Path_208">
				<path class="st8" d="M455.8,21.9c-2,0.8-3.1,0.3-3.6-1.5c-0.6-2.1,0.3-4.3,1.9-4.6c1.9-0.3,2.6,0.9,2.9,2.4
					c0.3,1.1,0,2.3-0.7,3.2l-0.4-0.3c0.5-1,0.6-2.2,0.2-3.3c-0.3-1-1.1-1.8-2.2-1.1c-1.3,0.8-1.2,2.2-0.9,3.4
					c0.3,1.3,1.1,1.9,2.5,1.4L455.8,21.9z"/>
			</g>
			<g id="Path_209">
				<path class="st8" d="M24.7,49.2c-0.7-1.2-0.7-2.7-0.2-3.9c0.4-1.1,1.6-1.8,2.7-1.4c1.5,0.4,2.4,2.6,1.7,4.6
					c-0.6,1.8-1.6,2.3-3.6,1.5l0.4-0.4c0.3,0.1,0.6,0.3,0.9,0.2c1.8-0.4,1.9-1.8,1.8-3.2c-0.1-1-0.5-2.1-1.7-2
					c-1.6,0.1-1.7,1.5-1.7,2.7c0,0.5,0.1,1.1,0.2,1.6L24.7,49.2z"/>
			</g>
			<g id="Path_210">
				<path class="st2" d="M448,34.7c0-0.4,0-0.7,0.1-1.1l27.4,0l0,0.7c-8.3,0-16.5,0-24.8,0.1C449.8,34.2,448.8,34.3,448,34.7z"/>
			</g>
			<g id="Path_211">
				<path class="st8" d="M57.9,21.5c-0.9-1.2-1-2.7-0.4-4.1c0.4-1.2,1.6-1.9,2.8-1.5c0.8,0.2,1.3,0.8,1.6,1.6
					c0.6,1.4,0.4,2.9-0.5,4.1c-0.6,0.9-1.9,1.2-2.8,0.6l0.4-0.4c1.5-0.1,2.6-1.4,2.5-2.9c0-0.4-0.2-0.8-0.4-1.2
					c-0.3-0.7-0.7-1.2-1.5-1.1c-0.7,0-1.3,0.5-1.5,1.2c-0.3,1.1-0.3,2.3,0.2,3.4L57.9,21.5z"/>
			</g>
			<g id="Path_212">
				<path class="st5" d="M427.4,93.4c1.4-2,2.1-3.8,0.2-5.9c1.6,2.2,2.7,1.4,4-0.3c-1.9,2.1-1.6,4,0.1,6.1
					C430.1,91.2,428.8,90.9,427.4,93.4z"/>
			</g>
			<g id="Path_213">
				<path class="st2" d="M553.2,33.6l-0.6,0.7l-27.3,0c0-0.2,0-0.4,0-0.7L553.2,33.6z"/>
			</g>
			<g id="Path_214">
				<path class="st5" d="M471.5,16.3c-1.7,2-1.7,3.8,0,5.7c-1.5-1.9-2.8-2.4-4.1,0.1c1.1-2,2-3.8,0.3-5.7l1.4,1.6
					C470.2,17.8,470.2,16.5,471.5,16.3z"/>
			</g>
			<g id="Path_215">
				<path class="st5" d="M74.9,20c-1.6-0.4-1.5,1.5-3.1,2.1c1.5-2.1,2.3-4.1,0.1-6.1c1.5,1.7,2.8,2.6,4-0.2
					C76,17.5,74.1,18.5,74.9,20L74.9,20z"/>
			</g>
			<g id="Path_217">
				<path class="st5" d="M41.9,48c-1.6-0.4-1.4,1.7-3.2,2c2.1-2.1,2.1-4,0.3-5.9c1.3,0.3,1.3,1.5,2.2,1.9l1.9-2.3
					C43.2,45.5,41.1,46.3,41.9,48L41.9,48z"/>
			</g>
			<g id="Path_218">
				<path class="st2" d="M525.4,33.6c0,0.2,0,0.4,0,0.7l-0.2,0.2l-0.7,0l-0.1-0.2l0-0.7c0.8-0.7,1.2-1.8,1.1-2.9
					c0-5.2,0-10.3,0-15.5c0-0.7,0.3-1.8-0.8-1.9c-1.2,0-0.9,1.2-0.9,2c0,5,0,10,0,15.1C523.8,31.7,524,33,525.4,33.6z"/>
			</g>
			<g id="Path_219">
				<path class="st2" d="M475.5,34.3l0-0.7c1.1-0.6,1.8-1.8,1.6-3c0-5.2,0-10.3,0-15.5c0-0.7,0.3-1.8-0.9-1.7
					c-1,0.1-0.8,1.2-0.8,1.9c0,5.2,0,10.3,0,15.5c-0.1,1.1,0.3,2.1,1.1,2.9c0,0.2,0,0.5,0,0.7l-0.1,0.2l-0.7,0L475.5,34.3z"/>
			</g>
			<g id="Path_220">
				<path class="st8" d="M431.7,45.6c1.3,2,2.4,2.6,3.7-0.3c-0.1,1.9-2.2,3.1-0.5,4.9c-0.9-0.3-1.7-0.9-2.6,0.2
					C434,48.4,431.9,47.1,431.7,45.6z"/>
			</g>
			<g id="Path_221">
				<path class="st5" d="M374.9,130c1.4,1,1.5,2.6,3,2.1c0.7-0.2,0.8-0.7,0.5-1.5c-1.1,1.6-1.1,1.6,0.6,5.5
					C377.2,134.5,375.8,132.3,374.9,130z"/>
			</g>
			<g id="Path_222">
				<path class="st5" d="M341.4,165.1c1.2-1.4,1-3.4-0.4-4.5c-0.1-0.1-0.2-0.2-0.3-0.2c0.9-0.3,1.1,0.2,1.3,0.5s0.5,0.6,0.7,0.9
					c1.1-0.2,1-1.7,2.4-1.9C344.1,161.7,342.9,163.5,341.4,165.1z"/>
			</g>
			<g id="Path_223">
				<path class="st8" d="M335.4,162.3c1-0.1,1.8,0.6,1.9,1.6c0.2,0.8-0.2,1.6-0.9,1.9c-1,0.7-2.4,0.4-3.1-0.6
					c1.2-0.1,2.6,0.8,3.1-0.7c0.3-0.9-0.3-1.4-1-1.8C335.4,162.7,335.4,162.5,335.4,162.3z"/>
			</g>
			<g id="Path_224">
				<path class="st8" d="M360.8,136.1c-1.1-1.1-1.4-2.8-0.8-4.2c0.7-1.9,1.9-2.3,3.8-1.1l-0.4,0.4c-1.9-0.9-2.6,0-2.9,1.7
					c-0.1,1,0.1,2,0.6,2.8L360.8,136.1z"/>
			</g>
			<g id="Path_225">
				<path class="st8" d="M423.1,45.8c1,1.1,1.3,2.6,0.9,4c-0.6,2-1.7,2.5-3.8,1.6l0.4-0.4c2.7,0.1,3.4-1.5,2.1-4.8L423.1,45.8z"/>
			</g>
			<g id="Path_226">
				<path class="st5" d="M333.5,161.9c-0.3-2.4,1-2.6,3.4-2.1c-1.6,0.4-3,0.3-2.9,2.1L333.5,161.9z"/>
			</g>
			<g id="Path_227">
				<path class="st5" d="M326.4,165.5c-1.2-1.5-1.2-3.7,0-5.2l0.3,0.4c-0.7,1.4-0.7,3,0,4.4L326.4,165.5z"/>
			</g>
			<g id="Path_228">
				<path class="st5" d="M329.7,160.3c1.1,1.5,1.1,3.6,0,5.1l-0.3-0.4c0.7-1.4,0.7-3,0-4.4C329.5,160.5,329.6,160.4,329.7,160.3z"/>
			</g>
			<g id="Path_229">
				<path class="st8" d="M419.8,51c-1-1.4-1-3.3,0-4.8l0.4,0.4c-0.4,1.3-0.4,2.7,0,4L419.8,51z"/>
			</g>
			<g id="Path_230">
				<path class="st8" d="M363.8,130.8c1.3,1.5,1.3,3.7,0,5.2l-0.4-0.4c0.8-1.3,0.8-3,0-4.4L363.8,130.8z"/>
			</g>
			<g id="Path_231">
				<path class="st8" d="M419.8,46.2c0.6-1,1.9-1.3,2.9-0.7c0.1,0.1,0.3,0.2,0.4,0.3l-0.4,0.4c-0.8-0.4-1.9-0.3-2.6,0.4L419.8,46.2z
					"/>
			</g>
			<g id="Path_232">
				<path class="st8" d="M363.8,135.9c-0.6,0.9-1.8,1.1-2.7,0.5c-0.1-0.1-0.2-0.2-0.4-0.3l0.4-0.4c0.7,0.3,1.6,0.3,2.3-0.2
					L363.8,135.9z"/>
			</g>
			<g id="Path_233">
				<path class="st5" d="M329.2,165.8c-0.7,0.5-1.6,0.5-2.3,0l0.4-0.4h1.6L329.2,165.8z"/>
			</g>
			<g id="Path_234">
				<path class="st5" d="M326.9,159.9c0.7-0.5,1.6-0.5,2.3,0l-0.4,0.4h-1.6L326.9,159.9z"/>
			</g>
			<g id="Path_235">
				<path class="st1" d="M51.4,120.6v1.5C51,121.7,51,121.1,51.4,120.6z"/>
			</g>
			<g id="Path_236">
				<path class="st5" d="M335.4,162.3c0,0.2,0,0.3,0,0.5c-0.7,0-1.4,0.3-1.9-0.4l0.7-0.1L335.4,162.3z"/>
			</g>
			<g id="Path_237">
				<path class="st8" d="M25.4,49.9l-0.7-0.7l0.4-0.4l0.6,0.7L25.4,49.9z"/>
			</g>
			<g id="Path_238">
				<path class="st8" d="M58.6,22.2l-0.6-0.7l0.4-0.4l0.7,0.7L58.6,22.2z"/>
			</g>
			<g id="Path_239">
				<path class="st5" d="M326.4,160.3l0.5-0.4l0.4,0.4l-0.5,0.4L326.4,160.3z"/>
			</g>
			<g id="Path_240">
				<path class="st8" d="M420.2,51.4l-0.4-0.4l0.4-0.4l0.4,0.4L420.2,51.4z"/>
			</g>
			<g id="Path_241">
				<path class="st5" d="M329.2,159.9l0.5,0.4l-0.3,0.4l-0.5-0.4L329.2,159.9z"/>
			</g>
			<g id="Path_242">
				<path class="st8" d="M334.2,162.3l-0.7,0.1c-0.1-0.1-0.1-0.3,0-0.5h0.5C334.1,162.1,334.2,162.2,334.2,162.3z"/>
			</g>
			<g id="Path_243">
				<path class="st8" d="M456.3,21.5c-0.2,0.2-0.3,0.3-0.5,0.5l-0.4-0.4l0.4-0.4L456.3,21.5z"/>
			</g>
			<g id="Path_244">
				<path class="st5" d="M74.9,20.1L74.9,20.1L74.9,20.1z"/>
			</g>
			<g id="Path_245">
				<path class="st5" d="M42,48L42,48L42,48z"/>
			</g>
			<g id="Path_246">
				<path class="st5" d="M326.9,165.9c-0.2-0.1-0.3-0.3-0.5-0.4l0.3-0.4l0.5,0.4L326.9,165.9z"/>
			</g>
			<g id="Path_247">
				<path class="st5" d="M329.7,165.4l-0.5,0.4l-0.3-0.4l0.5-0.4L329.7,165.4z"/>
			</g>
			<g id="Path_248">
				<path class="st9" d="M440.1,118.1l0-0.1l0.1,0L440.1,118.1z"/>
			</g>
			<g id="Path_249">
				<path class="st1" d="M349.1,62.2c0,0.7,0.1,1.4,0.1,2c0,17.8,0,35.5,0,53.3c0,0.6-0.1,1.2-0.1,1.8c-8.3,0-16.6,0-24.8,0.1
					c-2.2,0-3.2-0.8-3.1-3.1c0.1-4.3,0-8.7-0.1-13l0.1-23.3c0-4.8,0-9.6,0.1-14.4c0-3.1,0.3-3.4,3.4-3.4
					C332.8,62.2,341,62.2,349.1,62.2z"/>
			</g>
			<g id="Path_250">
				<path class="st2" d="M321.2,33.9c0,8,0,16,0,24c0,3.6,0.2,3.8,3.7,3.8c8.1,0,16.1,0,24.2,0c0,0.2,0,0.4,0,0.5
					c-8.2,0-16.3,0-24.5,0c-3.1,0-3.4,0.4-3.4,3.4c0,4.8,0,9.6-0.1,14.4l-0.5-0.1c0-4.5,0-9,0-13.5c0-4.1-0.1-4.2-4.2-4.2
					c-68.4,0-136.8,0-205.2,0c-1.1-0.1-2.3,0-3.4,0.4c-0.7,0-1.4-0.2-2-0.6c1.9-0.1,3.8-0.2,5.7-0.2c68.1,0,136.1,0,204.2,0
					c4.9,0,4.9,0,5-4.9c0-7.6,0-15.3,0-22.9L321.2,33.9z"/>
			</g>
			<g id="Path_251">
				<path class="st2" d="M349.1,119.9c-8.2,0-16.4,0-24.6,0c-2.9,0-3.3,0.4-3.3,3.3c0,8.3,0,16.6,0.1,24.8h-0.6
					c0-8.5,0-16.9,0.1-25.4c0-1.9-0.8-2.8-2.7-2.8c-1,0-2,0-3,0c-68.1,0-136.2,0-204.2,0c-1.9,0.2-3.8,0-5.7-0.4
					c0.6-0.3,1.2-0.5,1.9-0.5c1.4,0.4,2.9,0.5,4.3,0.4c68.3,0,136.6,0,204.8,0c0.5,0,1.1,0,1.6,0c2.1,0.1,3.1-0.8,3-3
					c-0.1-4.3,0-8.7,0-13c0.1,0,0.2,0,0.3-0.1c0,4.3,0.1,8.7,0.1,13c0,2.3,0.9,3.1,3.1,3.1c8.3-0.1,16.6,0,24.8-0.1L349.1,119.9z"/>
			</g>
			<g id="Path_252">
				<path class="st2" d="M80.3,148c0-8.4,0-16.7,0.1-25.1c0-2.3-1-3.1-3.2-3.1c-8.3,0.1-16.6,0-24.8,0c0-0.2,0-0.3,0-0.5
					c8.1,0,16.1,0,24.2,0c3.5,0,3.6-0.1,3.9-3.7c0.1,0,0.2,0,0.3,0.1c0.5,1.7,1.9,2.7,3.2,3.7c-2.6,0.2-3.3,1.7-3.2,4.2
					c0.2,8.1,0.1,16.3,0.1,24.4L80.3,148z"/>
			</g>
			<g id="Path_253">
				<path class="st2" d="M52.4,61.7c8.1,0,16.3,0,24.4,0c3.2,0,3.5-0.3,3.5-3.6c0-8.1,0-16.1,0-24.2h0.5c0,8.1,0,16.2,0,24.4
					c0,2.2,0.6,3.5,2.9,3.7c-1,1.2-2.5,2.2-2.9,3.8c-0.1,0-0.2,0.1-0.3,0.1c-0.3-3.5-0.5-3.7-4-3.7c-8,0-16.1,0-24.1,0
					C52.4,62,52.4,61.9,52.4,61.7z"/>
			</g>
			<g id="Path_254">
				<path class="st2" d="M475.5,147.6c0-8.1,0-16.3,0-24.4c0-3-0.4-3.5-3.4-3.5c-8,0-16,0-24,0c0-0.3,0-0.6,0-0.9
					c7.9,0,15.8,0,23.7,0.1c2.2,0,3.7-0.6,4.3-2.8c2,2.4,4.5,2.9,7.5,2.8c6.4-0.2,12.9,0.3,19.3-0.6c0.8,0.4,1.8,0.6,2.7,0.5
					c5.2,0,10.5-0.1,15.7,0c2.2,0,3.2-0.8,3.1-3.1c-0.1-5.5,0-11,0-16.4c-0.1-0.8-0.2-1.7-0.4-2.5l-0.1-2.4c0.7-2.6,0.7-5.4,0-8
					l0-2.5c0.7-2,0.4-4.1,0.4-6.1c0-4.2,0-8.5,0-12.7c0-1.2-0.2-2.5-1.7-2.5c-6.3-0.1-12.6-0.5-18.8,0.2c-0.6,0-1.1-0.3-1.5-0.7
					c1.5-0.4,3-0.6,4.5-0.5c4.6,0,9.1,0,13.7,0c3.5,0,3.8-0.3,3.8-3.8c0-7.8,0-15.7,0.1-23.5l0.7,0c0,8,0.1,16,0.1,24
					c0,3.4,0.3,3.7,3.7,3.7c7.9,0,15.8,0,23.8,0l0,0.5c-8,0-16,0-24,0c-3,0-3.4,0.4-3.4,3.5c0,16.4,0,32.9,0,49.4
					c0,3.1,0.4,3.5,3.4,3.5c8,0,16,0,24,0c0,0.3,0,0.6,0,0.9c-8,0-16,0-24,0c-3,0-3.4,0.4-3.5,3.4c0,8.1,0,16.3,0,24.4l-0.9,0
					c0-8.1,0-16.3,0-24.4c0-3-0.4-3.4-3.5-3.4c-13.6,0-27.3,0-40.9,0c-3.4,0-3.7,0.3-3.7,3.7c0,8.1,0,16.1,0,24.2L475.5,147.6z"/>
			</g>
			<g id="Path_255">
				<path class="st2" d="M448.2,62.1c8.1,0,16.1,0,24.2,0c2.7,0,3.2-0.4,3.2-3.2c0-8.1,0.1-16.3,0.1-24.4l0.7,0
					c0,8.1,0.1,16.1,0,24.2c0,1.8,0.5,3.1,2.4,3.6l-2.8,3.1c-0.4-2-1.6-2.8-3.7-2.8c-8,0.1-16.1,0.1-24.1,0.1
					C448.2,62.5,448.2,62.3,448.2,62.1z"/>
			</g>
			<g id="Path_256">
				<path class="st1" d="M455.9,21.1l-0.4,0.4c-1.4,0.6-2.2,0-2.5-1.4c-0.3-1.3-0.3-2.7,0.9-3.4c1.1-0.7,1.9,0.1,2.2,1.1
					C456.4,18.9,456.4,20.1,455.9,21.1z"/>
			</g>
			<g id="Path_257">
				<path class="st1" d="M25.8,49.5l-0.6-0.7c-0.1-0.5-0.2-1.1-0.2-1.6c0-1.3,0.1-2.6,1.7-2.7c1.2-0.1,1.6,1,1.7,2
					c0.1,1.4,0.1,2.8-1.8,3.2C26.4,49.7,26.1,49.5,25.8,49.5z"/>
			</g>
			<g id="Path_258">
				<path class="st1" d="M59,21.7l-0.7-0.7c-0.5-1.1-0.5-2.2-0.2-3.4c0.2-0.7,0.8-1.2,1.5-1.2c0.8-0.1,1.2,0.5,1.5,1.1
					c0.8,1.3,0.4,3-0.9,3.7C59.8,21.6,59.4,21.7,59,21.7z"/>
			</g>
			<g id="Path_259">
				<path class="st1" d="M363.4,135.5c-0.7,0.5-1.5,0.5-2.3,0.2c-0.5-0.8-0.7-1.8-0.6-2.8c0.2-1.8,1-2.7,2.9-1.7
					C364.3,132.5,364.3,134.2,363.4,135.5z"/>
			</g>
			<g id="Path_260">
				<path class="st1" d="M420.6,51.1l-0.4-0.4c-0.4-1.3-0.4-2.7,0-4c0.7-0.7,1.7-0.8,2.6-0.4C424,49.6,423.4,51.1,420.6,51.1z"/>
			</g>
			<g id="Path_261">
				<path class="st1" d="M329.3,165.1l-0.5,0.4h-1.6l-0.5-0.4c-0.7-1.4-0.7-3,0-4.4l0.5-0.4h1.6l0.5,0.4
					C330,162,330,163.7,329.3,165.1z"/>
			</g>
			<g id="Path_262">
				<path class="st6" d="M84,119.5c-1.3-1.1-2.7-2-3.2-3.7c0.4-1.5,0.6-3,0.5-4.6c12.8,0,25.6,0,38.4,0c0.6,0,1.4-0.3,1.6,0.4
					s-0.5,1-1,1.4c-3.8,3.2-8.5,5.3-13.4,6.1c-0.7,0-1.3,0.1-1.9,0.5C98.1,119.7,91.1,119.8,84,119.5z"/>
			</g>
			<g id="Path_263">
				<path class="st6" d="M80.8,65.8c0.5-1.7,1.9-2.6,2.9-3.8c7.4-0.3,14.8-0.2,22.2,0c0.6,0.4,1.3,0.7,2,0.6c3.7,1,7.4,2.1,10.5,4.5
					l0.9,1c0-0.1,0.1-0.1,0.2-0.1c-0.8,1.5-2.3,1.5-3.8,1.5c-9.9,0-19.9,0-29.8,0c-1.3,0-2.6-0.2-3.7,0.8l-0.9,0
					C81.4,68.8,81.3,67.2,80.8,65.8z"/>
			</g>
			<g id="Path_264">
				<path class="st3" d="M80.8,65.8c0.5,1.5,0.6,3,0.5,4.5c-1.1,1.8-0.5,3.9-0.6,5.8c-0.1,1.5,0.8,2.2,2.3,2.2c2.1,0,4.3,0,6.4,0.1
					c2.1,0,3.8,1.7,3.8,3.9c0,0.1,0,0.1,0,0.2c0.2,2.2-1.4,4-3.6,4.2c-0.1,0-0.2,0-0.3,0c-1.3,0.1-2.6,0.1-3.9,0.1
					c-4.9,0-4.8,0-4.8,5c0,2.1,0.7,3,2.9,3c5.6-0.1,11.1,0,16.7,0c1.3,0,2.6-0.1,3.7,0.8c-6.5,0-13,0.1-19.5,0.1
					c-2.2,0-3.3,0.8-3.1,3.1c0.1,1.4,0,2.9,0,4.3c-1,2.6-1,5.5,0,8.2c0.1,1.5,0,3.1-0.5,4.6c-0.1,0-0.2-0.1-0.3-0.1
					c0-7.8,0.1-15.5,0.1-23.3c0-8.8-0.1-17.7-0.1-26.5C80.6,65.9,80.7,65.8,80.8,65.8z"/>
			</g>
			<g id="Path_265">
				<path class="st3" d="M321.1,103.3c-0.1,0-0.2,0-0.3,0.1c-1.3,0-2.6,0-3.9-0.1c-4.5-0.3-6.5-2.3-6.8-6.7c-0.2-2.5-0.1-5-0.1-7.5
					c0-1.8-0.2-3.2-2.5-3.2c-1.3,0-1.6-1.1-1.4-2.1c0.1-1.2-0.7-3.2,1-3.3c3.2-0.2,2.9-2.2,2.9-4.3c0-0.9-0.1-1.9,1-2.3
					c2.9-1.1,4.9,0.2,5,3.2c0.1,3.1,0.2,3.2,3.3,3.1c0.5,0,0.9-0.1,1.4-0.1l0.5,0.1C321.1,87.8,321.1,95.6,321.1,103.3z M320.9,91.9
					L320.9,91.9c0-1.4,0-2.7,0-4.1c0-1.7-1.1-1.9-2.5-1.9c-1.3,0-2.3,0.3-2.3,1.8c0,2.6,0,5.2,0,7.8c0.1,1.6,1.2,2.2,2.7,2.2
					c1.6,0.1,2.1-0.9,2.1-2.3C320.9,94.2,320.9,93,320.9,91.9z"/>
			</g>
			<g id="Path_266">
				<path class="st1" d="M320.7,79.9c-0.5,0-0.9,0.1-1.4,0.1c-3.1,0-3.2-0.1-3.3-3.1c-0.1-3-2.1-4.3-5-3.2c-1.1,0.4-1,1.4-1,2.3
					c0,2.1,0.3,4.1-2.9,4.3c-1.7,0.1-0.9,2.1-1,3.3c-0.1,1.1,0.1,2.1,1.4,2.1c2.3,0,2.5,1.5,2.5,3.2c0,2.5,0,5,0.1,7.5
					c0.3,4.4,2.3,6.4,6.8,6.7c1.3,0.1,2.6,0.1,3.9,0.1c0,4.3-0.1,8.7,0,13c0,2.2-0.9,3.1-3,3c-0.5,0-1.1,0-1.6,0
					c-68.3,0-136.6,0-204.8,0c-1.4,0.1-2.9,0-4.3-0.4c4.9-0.8,9.5-2.9,13.4-6.1c0.4-0.4,1.2-0.7,1-1.4s-1.1-0.4-1.6-0.4
					c-12.8,0-25.6,0-38.4,0c-1-2.6-1-5.6,0-8.2c6.5,0,12.9,0.1,19.4,0c4,0,5.3-1.6,4.7-5.6c-0.1-0.5-0.4-1-0.8-1.3l-0.7-0.6
					c-1.1-0.9-2.4-0.8-3.7-0.8c-5.6,0-11.1-0.1-16.7,0c-2.2,0-2.9-0.8-2.9-3c0-5-0.1-5,4.8-5c1.3,0,2.6,0,3.9-0.1
					c2.2,0,3.9-1.8,3.9-3.9c0-0.1,0-0.2,0-0.3c0.1-2.1-1.5-3.9-3.6-4c-0.1,0-0.1,0-0.2,0c-2.1-0.2-4.3-0.1-6.4-0.1
					c-1.5,0-2.3-0.7-2.3-2.2c0.1-1.9-0.5-4,0.6-5.8l0.9,0c12.5,0,25.1,0.1,37.6,0.1c0.6,0,1.4,0.2,1.5-0.5c0.1-0.6-0.5-0.9-0.9-1.2
					c-0.3-0.2-0.6-0.4-1-0.6c-0.1,0-0.2,0-0.2,0.1c-0.1-0.5-0.5-0.8-0.9-1c-3.1-2.5-6.8-3.6-10.5-4.5c1.1-0.3,2.2-0.5,3.4-0.4
					c68.4,0,136.8,0,205.2,0c4.1,0,4.2,0.1,4.2,4.2C320.7,70.9,320.7,75.4,320.7,79.9z M279.3,96.2L279.3,96.2c0,4.6,0.1,9.3,0,13.9
					c0,2.1,1.3,2.2,2.9,2.2s3.2,0.1,3.1-2.2c0-2.4,0-4.7,0-7.1c0-1.4,0.4-1.8,1.8-1c7.3,4,15.5-0.1,16.6-8.3
					c0.7-4.9-0.5-9.2-4.6-12.2c-3.9-2.8-8-3-12.2-0.5c-0.5,0.4-1.2,0.4-1.6-0.1c-0.1-0.1-0.1-0.1-0.1-0.2c-1.4-1.6-3.3-1-4.9-0.6
					c-1.5,0.3-1,2-1,3.2C279.2,87.7,279.3,92,279.3,96.2z M173.3,86.8L173.3,86.8c0-4.6-0.1-9.1,0-13.7c0-2.1-1.2-2.3-2.8-2.2
					c-1.5,0-3.2-0.3-3.1,2.2c0.1,2.3,0,4.6,0,6.9c0,1.6-0.2,2.5-2,1.1c-1.3-0.9-2.9-1.5-4.5-1.5c-9.2-0.6-15.2,9.2-10.9,17.8
					c2.5,5.4,8.9,7.8,14.4,5.4c0.5-0.2,1-0.5,1.5-0.8c0.7-0.4,1-0.9,1.7,0.2c1.1,1.7,3,1,4.6,0.8c1.5-0.2,1.2-1.6,1.2-2.6
					C173.4,95.8,173.3,91.3,173.3,86.8L173.3,86.8z M191,103.7c3,0,5.9-1.2,8-3.4c0.5-0.5,1.1-0.9,0.6-1.8c-0.8-1.4-3.9-2.2-5.3-1.4
					c-2.7,1.6-6.3,1.5-8.4-0.2c-0.7-0.5-1.5-1.1-1.3-2c0.2-1.1,1.3-0.8,2.1-0.8c4,0,8.1-0.1,12.1,0c2.2,0.1,2.8-0.9,2.7-2.9
					c0-6.5-5.3-11.8-11.8-11.8c-1.6,0-3.2,0.3-4.7,1c-5.4,2.1-8.3,7.8-7.1,13.8C179.1,100,183.9,103.8,191,103.7L191,103.7z
					 M235.4,79.5c-7.6,0-13.3,10-8.6,18.3c4,7,14.4,8,19.6,1.9c0.5-0.6,1.7-1.4,0.6-2.3c-1.1-0.9-2.4-1.6-3.8-2.1
					c-1-0.4-1.5,0.9-2.2,1.4c-2.6,1.8-6,1.4-8.2-0.8c-2.2-2.4-2.2-6.1-0.1-8.6c1.9-2.1,5.8-2.9,7.9-0.9c2.2,2.2,3.6,1.1,5.5,0
					c1.3-0.8,1.4-1.6,0.5-2.7C244,80.8,240.9,79.4,235.4,79.5L235.4,79.5z M213.5,103.8c1-0.1,1.9-0.2,2.9-0.4
					c3.6-0.9,5.7-3.2,5.9-6.4c0.2-3.5-1.3-5.7-5.2-7.1c-1.6-0.6-3.2-1-4.8-1.5c-0.9-0.3-1.9-0.9-1.6-2.1c0.3-1.1,1.3-1.4,2.3-1.5
					c0.8-0.1,1.6,0.1,2.1,0.6c1.8,2,3.3,0.8,5-0.1c1.5-0.8,1.5-1.6,0.4-2.8c-3.2-3.6-10.1-4.1-13.8-1c-2.1,1.8-2.9,4.6-2.1,7.3
					c0.7,2.2,2.5,3.4,4.5,4.2c1.9,0.7,3.8,1.2,5.6,1.9c0.8,0.2,1.3,0.9,1.2,1.7c-0.1,0.8-0.8,1.4-1.5,1.5c-1.5,0.4-3.4,0.5-4.3-0.7
					c-1.9-2.5-3.4-1-5.2-0.1c-1.6,0.8-1.3,1.8-0.4,2.9C206.9,102.8,209.8,103.6,213.5,103.8z M116.5,86.8L116.5,86.8l7.3,0
					c6.3,0,6.4-0.2,4.4-6.3c-0.2-1.4-1.5-2.4-2.9-2.2c-6.3,0.1-12.6,0-19,0.1c-3.1,0-4.7,1.6-4.7,4.1c0,2.7,1.6,4.2,4.8,4.3
					C109.8,86.8,113.1,86.7,116.5,86.8L116.5,86.8z M257.1,82.7c-0.8-2.7-1.7-3.1-4.7-2.7c-2.3,0.3-1.6,2.1-1.6,3.4
					c-0.1,5.8,0,11.6,0,17.4c0,2.3,1.3,2.4,3,2.4c1.6,0,3.1,0,3-2.3c-0.1-2.7-0.1-5.5,0-8.2c0.1-3.8,1.4-5.5,5.2-6.3
					c1.3-0.3,1.9-0.9,1.8-2.1c0-0.8,0-1.5,0-2.3c-0.1-2.1-0.7-2.5-2.8-1.8C259.5,80.5,258.5,81.6,257.1,82.7L257.1,82.7z M268,91.5
					c0,3,0.1,6.1,0,9.1c-0.1,2.2,1.2,2.4,2.9,2.4c1.8,0,2.9-0.4,2.9-2.5c-0.1-6.1-0.1-12.2,0-18.3c0-2.1-1.2-2.3-2.8-2.3
					c-1.7,0-3.1,0.1-3,2.3C268,85.4,267.9,88.4,268,91.5L268,91.5z M121.8,103c6.4,0,6.6-0.1,7.4-6c0-0.1,0-0.3,0.1-0.4
					c0.2-1.1-0.3-1.8-1.5-1.8c-3.3,0-6.5-0.1-9.8,0.1c-2.5,0.1-3.8,1.9-3.7,4.3c0.1,2.3,1.4,3.7,3.9,3.9
					C119.4,103,120.6,103,121.8,103z M273.7,73.9c0-2.8-0.3-2.9-2.9-3.1c-2.2-0.1-3,0.8-2.9,2.9c0.1,2.8,0.3,3.1,2.9,3.1
					C273.5,76.9,273.7,76.6,273.7,73.9L273.7,73.9z"/>
			</g>
			<g id="Path_267">
				<path class="st6" d="M502.9,118.4c-6.4,0.9-12.9,0.3-19.3,0.6c-3,0.1-5.5-0.4-7.5-2.8c-0.5-2.4-0.1-4.7-0.1-7.1
					c0-4-0.1-8.1-0.2-12.1c-0.1-1.8,0.7-2.4,2.4-2.4c6,0.1,12.1,0,18.1,0c2.9,0,4.5,1.5,4.5,4c0,2.6-1.6,4.2-4.6,4.2
					c-5.6,0.1-11.3,0-16.9,0c-2.9,0-3.1,0.2-3.2,3.1c-0.1,4.8-0.1,4.8,4.7,4.8c11,0,22,0,32.9,0c0.9,0,1.8-0.3,2.8,0.6
					C512.9,115.3,508.1,117.3,502.9,118.4z"/>
			</g>
			<g id="Path_268">
				<path class="st6" d="M478.8,62.3c7.9-0.4,15.7-0.3,23.6,0c0.4,0.4,1,0.6,1.5,0.7c4.8,1,9.3,3.4,12.8,6.9c-1,0.8-2,0.5-3,0.6
					c-11.4,0-22.9,0-34.3,0c-3.1,0-3.2,0.2-3.3,3.2c0,0.7,0,1.4,0,2.1c-0.1,1.8,0.7,2.6,2.6,2.6c1.9-0.1,3.8-0.1,5.7,0.1
					c2.6,0.2,3.9,1.7,3.9,4.1c0,2.4-1.4,3.9-4,4.1c-1.7,0.1-3.4,0.1-5,0.1c-3,0.1-3.2,0.3-3.2,3.3c0,0.7,0,1.4,0,2.3
					c-0.5-9.1,0-18-0.2-26.9L478.8,62.3z"/>
			</g>
			<g id="Path_269">
				<path class="st6" d="M524,84.1c0,0.8,0,1.7,0,2.5c-7.5,0-15,0-22.4,0c-1.9,0-3.5-0.4-4.4-2.3c-1.2-2.7,0.3-5.8,3.4-5.9
					c6.8-0.2,13.6-0.1,20.4-0.1c1-0.1,1.8,0.6,2,1.5C523.3,81.3,523.7,82.7,524,84.1z"/>
			</g>
			<g id="Path_270">
				<path class="st6" d="M524,94.6c0,0.8,0,1.6,0.1,2.4c-1.3,5.9-1.3,5.9-7.3,5.9c-1.1,0-2.1,0-3.2,0c-2.7-0.2-4.2-1.6-4.2-4.1
					c0-2.5,1.4-4,4.2-4.1C517,94.5,520.5,94.6,524,94.6z"/>
			</g>
			<g id="Path_271">
				<path class="st9" d="M443.5,64.3l0,0.1l-0.1,0L443.5,64.3z"/>
			</g>
			<g id="Path_272">
				<path class="st3" d="M119.5,68c0.3,0.2,0.7,0.4,1,0.6c0.4,0.3,1,0.6,0.9,1.2c-0.2,0.8-1,0.5-1.5,0.5c-12.5,0-25.1,0-37.6-0.1
					c1.1-0.9,2.4-0.8,3.7-0.8c9.9,0,19.9,0,29.8,0C117.2,69.5,118.7,69.5,119.5,68z"/>
			</g>
			<g id="Path_273">
				<path class="st3" d="M118.4,67.1c0.4,0.2,0.8,0.5,0.9,1L118.4,67.1z"/>
			</g>
			<g id="Path_274">
				<path class="st6" d="M104,95.5l0.7,0.6l0.8,1.3c0.6,4-0.7,5.6-4.7,5.6c-6.5,0-12.9,0-19.4,0c0-1.4,0-2.9,0-4.3
					c-0.1-2.2,0.9-3.1,3.1-3.1C91,95.6,97.5,95.5,104,95.5z"/>
			</g>
			<g id="Path_275">
				<path class="st1" d="M320.9,91.9c0,1.1,0,2.3,0,3.4c0,1.4-0.5,2.4-2.1,2.3c-1.4-0.1-2.6-0.6-2.7-2.2c-0.1-2.6-0.1-5.2,0-7.8
					c0-1.6,1-1.8,2.3-1.8c1.4,0,2.5,0.3,2.5,1.9C320.9,89.1,320.9,90.5,320.9,91.9L320.9,91.9z"/>
			</g>
			<g id="Path_276">
				<path class="st6" d="M279.3,96.2c0-4.3,0-8.5,0-12.8c0-1.1-0.5-2.8,1-3.2c1.6-0.4,3.5-1,4.9,0.6c0.3,0.5,1,0.7,1.5,0.4
					c0.1,0,0.1-0.1,0.2-0.1c4.2-2.5,8.3-2.4,12.2,0.5c4.1,3,5.3,7.3,4.6,12.2c-1.2,8.2-9.3,12.3-16.6,8.3c-1.4-0.8-1.8-0.4-1.8,1
					c0,2.4-0.1,4.7,0,7.1c0,2.3-1.6,2.2-3.1,2.2s-2.9-0.1-2.9-2.2C279.3,105.5,279.3,100.9,279.3,96.2L279.3,96.2z M297.9,91.7
					c0-3.5-2.8-6.3-6.3-6.4c-3.5,0-6.3,2.8-6.4,6.3c0,3.4,2.7,6.2,6.1,6.4c3.3,0.3,6.2-2.2,6.5-5.5C297.9,92.2,298,91.9,297.9,91.7z
					"/>
			</g>
			<g id="Path_277">
				<path class="st6" d="M173.3,86.8c0,4.5,0,9,0,13.5c0,1,0.3,2.4-1.2,2.6c-1.6,0.2-3.5,1-4.6-0.8c-0.7-1.1-1-0.6-1.7-0.2
					c-5,3.3-11.7,1.9-15-3c-0.3-0.5-0.6-1-0.8-1.5c-4.2-8.6,1.8-18.4,10.9-17.8c1.6,0,3.2,0.6,4.5,1.5c1.7,1.3,2,0.5,2-1.1
					c0-2.3,0.1-4.6,0-6.9c-0.1-2.4,1.6-2.1,3.1-2.2c1.6-0.1,2.9,0.1,2.8,2.2C173.3,77.6,173.3,82.2,173.3,86.8L173.3,86.8z
					 M167.4,91.6c0-3.5-2.9-6.3-6.4-6.3s-6.3,2.9-6.3,6.4s2.9,6.3,6.4,6.3c0,0,0,0,0.1,0c3.4,0.1,6.1-2.5,6.2-5.9
					C167.4,91.9,167.4,91.7,167.4,91.6L167.4,91.6z"/>
			</g>
			<g id="Path_278">
				<path class="st3" d="M191,103.7c-7.1,0-12-3.7-13.1-9.6c-1.2-6,1.8-11.7,7.1-13.8c6-2.6,13,0.2,15.5,6.2c0.6,1.5,1,3.1,1,4.7
					c0.1,2-0.5,3-2.7,2.9c-4-0.1-8.1,0-12.1,0c-0.8,0-1.9-0.3-2.1,0.8c-0.2,0.9,0.6,1.5,1.3,2c2.1,1.7,5.7,1.8,8.4,0.2
					c1.4-0.8,4.5,0,5.3,1.4c0.5,0.8-0.1,1.3-0.6,1.8C196.9,102.5,194,103.7,191,103.7z M189.7,89.4L189.7,89.4c1.3,0,2.6,0,3.9,0
					c1.8-0.1,1.8-1,1-2.3c-2.1-3.3-8-3.2-10,0.3c-0.8,1.4-0.3,2,1.2,2C187.1,89.5,188.4,89.4,189.7,89.4L189.7,89.4z"/>
			</g>
			<g id="Path_279">
				<path class="st6" d="M235.4,79.5c5.6,0,8.7,1.3,11.1,4.2c1,1.1,0.9,1.9-0.5,2.7c-1.9,1.1-3.3,2.2-5.5,0c-2-2-6-1.2-7.9,0.9
					c-2.1,2.5-2.1,6.1,0.1,8.6c2.2,2.2,5.6,2.6,8.2,0.8c0.7-0.5,1.2-1.7,2.2-1.4c1.4,0.5,2.6,1.2,3.8,2.1c1.1,0.9-0.1,1.7-0.6,2.3
					c-5.2,6.1-15.5,5.1-19.6-1.9C222,89.5,227.7,79.5,235.4,79.5z"/>
			</g>
			<g id="Path_280">
				<path class="st6" d="M213.5,103.8c-3.7-0.1-6.7-1-8.8-3.6c-0.9-1.1-1.2-2,0.4-2.9c1.8-0.9,3.3-2.4,5.2,0.1
					c0.9,1.2,2.8,1.1,4.3,0.7c0.8-0.1,1.4-0.7,1.5-1.5c0.1-0.8-0.4-1.5-1.2-1.7c-1.8-0.7-3.8-1.3-5.6-1.9c-2.1-0.8-3.8-1.9-4.5-4.2
					c-0.8-2.6,0-5.5,2.1-7.3c3.6-3.1,10.6-2.6,13.8,1c1.1,1.2,1.1,2-0.4,2.8c-1.7,0.9-3.2,2.1-5,0.1c-0.6-0.5-1.4-0.7-2.1-0.6
					c-1,0.1-2.1,0.3-2.3,1.5c-0.3,1.2,0.7,1.8,1.6,2.1c1.6,0.6,3.2,1,4.8,1.5c3.8,1.4,5.4,3.6,5.2,7.1c-0.2,3.2-2.3,5.5-5.9,6.4
					C215.5,103.5,214.5,103.7,213.5,103.8z"/>
			</g>
			<g id="Path_281">
				<path class="st3" d="M116.5,86.8c-3.4,0-6.7,0.1-10.1,0c-3.2-0.1-4.8-1.6-4.8-4.3c0-2.6,1.7-4.1,4.7-4.1c6.3-0.1,12.6,0,19-0.1
					c1.4-0.1,2.7,0.8,2.9,2.2c2,6,1.8,6.3-4.4,6.3L116.5,86.8L116.5,86.8z"/>
			</g>
			<g id="Path_282">
				<path class="st3" d="M257.1,82.7c1.3-1.1,2.4-2.2,3.9-2.7c2.1-0.6,2.7-0.3,2.8,1.8c0,0.8,0,1.5,0,2.3c0,1.3-0.6,1.9-1.8,2.1
					c-3.8,0.8-5.1,2.5-5.2,6.3c-0.1,2.7-0.1,5.5,0,8.2c0.1,2.3-1.4,2.3-3,2.3c-1.7,0-3-0.1-3-2.4c0.1-5.8,0-11.6,0-17.4
					c0-1.3-0.6-3.1,1.6-3.4C255.5,79.6,256.3,80,257.1,82.7z"/>
			</g>
			<g id="Path_283">
				<path class="st6" d="M267.9,91.5c0-3,0.1-6.1,0-9.1c-0.1-2.3,1.3-2.3,3-2.3c1.6,0,2.8,0.2,2.8,2.3c-0.1,6.1-0.1,12.2,0,18.3
					c0,2.1-1.1,2.5-2.9,2.5c-1.7,0-3-0.2-2.9-2.4C268,97.6,268,94.5,267.9,91.5z"/>
			</g>
			<g id="Path_284">
				<path class="st6" d="M121.8,103c-1.2,0-2.4,0.1-3.6,0c-2.5-0.2-3.8-1.5-3.9-3.9c-0.1-2.4,1.3-4.2,3.7-4.3
					c3.3-0.2,6.5-0.1,9.8-0.1c1.2,0,1.6,0.6,1.5,1.8c0,0.1-0.1,0.3-0.1,0.4C128.3,102.9,128.1,103,121.8,103z"/>
			</g>
			<g id="Path_285">
				<path class="st6" d="M273.7,73.9c0,2.8-0.3,3-3,3c-2.6,0-2.8-0.3-2.9-3.1c-0.1-2.1,0.7-3,2.9-2.9
					C273.5,70.9,273.7,71.1,273.7,73.9z"/>
			</g>
			<g id="Path_286">
				<path class="st3" d="M105.5,97.4l-0.8-1.3C105.1,96.4,105.4,96.9,105.5,97.4z"/>
			</g>
			<g id="Path_287">
				<path class="st1" d="M297.9,91.7c0.2,3.3-2.4,6.2-5.7,6.3c-0.3,0-0.5,0-0.8,0c-3.4,0-6.1-2.7-6.1-6.1c0-0.2,0-0.3,0-0.5
					c0-3.5,2.8-6.3,6.3-6.4c3.5,0,6.3,2.8,6.4,6.3C297.9,91.5,297.9,91.6,297.9,91.7L297.9,91.7z"/>
			</g>
			<g id="Path_288">
				<path class="st1" d="M167.4,91.6c0.2,3.3-2.4,6.2-5.7,6.4c-0.2,0-0.3,0-0.5,0c-3.4,0.2-6.3-2.4-6.5-5.8c0-0.2,0-0.4,0-0.6
					c0-3.5,2.8-6.4,6.3-6.4c3.5,0,6.4,2.8,6.4,6.3C167.4,91.4,167.4,91.5,167.4,91.6L167.4,91.6z"/>
			</g>
			<g id="Path_289">
				<path class="st1" d="M189.7,89.4c-1.3,0-2.6,0-3.9,0c-1.5,0-2-0.6-1.2-2c2-3.4,7.8-3.6,10-0.3c0.8,1.3,0.8,2.2-1,2.3
					C192.3,89.5,191,89.4,189.7,89.4L189.7,89.4z"/>
			</g>
		</g>
	</g>
	<g id="Group_34">
		<g id="Group_29" transform="translate(-2393.978 2579.928)">
			<g id="Group_28">
				<g id="Path_290">
					<path class="st10" d="M2848.3-366.4c-0.1,0-0.2,0-0.2-0.1c-0.1-0.1-0.1-0.1-0.1-0.2c0-0.1,0-0.1,0-0.1c0,0,0.1-0.1,0.1-0.1
						l2.1-2.3c0.3-0.3,0.5-0.6,0.7-1c0.1-0.3,0.2-0.6,0.2-0.9c0-0.3-0.1-0.7-0.4-0.9c-0.3-0.2-0.7-0.3-1-0.3c-0.3,0-0.6,0-0.8,0.1
						c-0.3,0.1-0.5,0.3-0.7,0.4c0,0-0.1,0.1-0.2,0.1c0,0-0.1,0-0.1,0c0,0-0.1-0.1-0.1-0.1c0-0.1,0-0.1,0-0.2c0-0.1,0-0.1,0.1-0.1
						c0.3-0.2,0.5-0.4,0.8-0.5c0.3-0.1,0.7-0.2,1-0.2c0.4,0,0.7,0.1,1,0.2c0.3,0.1,0.5,0.3,0.7,0.6c0.2,0.3,0.2,0.6,0.2,0.9
						c0,0.3,0,0.5-0.1,0.7c-0.1,0.3-0.2,0.5-0.4,0.7c-0.2,0.3-0.4,0.5-0.6,0.8l-2,2.1v-0.2h3.2c0.1,0,0.1,0,0.2,0.1
						c0,0,0.1,0.1,0.1,0.2c0,0.1,0,0.1-0.1,0.2c-0.1,0-0.1,0.1-0.2,0.1L2848.3-366.4z"/>
				</g>
				<g id="Path_291">
					<path class="st10" d="M2856.3-366.4c-0.1,0-0.2,0-0.2-0.1c-0.1-0.1-0.1-0.1-0.1-0.2v-1.2h-2.7c-0.1,0-0.2,0-0.2-0.1
						c-0.1-0.1-0.1-0.1-0.1-0.2c0-0.1,0-0.1,0-0.1c0-0.1,0.1-0.1,0.1-0.2l2.9-4.2c0-0.1,0.1-0.1,0.1-0.1c0.1,0,0.1,0,0.2,0
						c0.1,0,0.1,0,0.2,0.1c0.1,0.1,0.1,0.1,0.1,0.2v4.2h0.8c0.1,0,0.1,0,0.2,0.1c0,0,0.1,0.1,0.1,0.2c0,0.1,0,0.1-0.1,0.2
						c-0.1,0-0.1,0.1-0.2,0.1h-0.8v1.2c0,0.1,0,0.2-0.1,0.2C2856.5-366.4,2856.4-366.4,2856.3-366.4z M2856.1-368.3v-3.8h0.2l-2.7,4
						v-0.2L2856.1-368.3z"/>
				</g>
			</g>
		</g>
		<g id="Group_31" transform="translate(-2393.978 2579.928)">
			<g id="Group_30">
				<g id="Path_292">
					<path class="st10" d="M2894-414.3c-0.4,0-0.7-0.1-1-0.2c-0.3-0.1-0.7-0.3-0.9-0.5c0,0-0.1-0.1-0.1-0.1c0,0,0-0.1,0-0.2
						c0,0,0-0.1,0.1-0.1c0,0,0.1-0.1,0.1-0.1c0.1,0,0.1,0,0.2,0.1c0.2,0.2,0.5,0.3,0.8,0.4c0.3,0.1,0.6,0.1,0.9,0.1
						c0.3,0,0.6-0.1,0.8-0.2c0.2-0.1,0.4-0.3,0.5-0.5c0.1-0.2,0.2-0.5,0.2-0.8c0-0.4-0.1-0.8-0.4-1.1c-0.3-0.3-0.7-0.5-1.1-0.4
						c-0.3,0-0.5,0.1-0.8,0.2c-0.2,0.1-0.5,0.3-0.6,0.5c0,0-0.1,0.1-0.1,0.1c0,0-0.1,0-0.2,0c-0.1,0-0.1,0-0.2-0.1
						c0-0.1-0.1-0.1-0.1-0.2v-3.2c0-0.1,0-0.1,0.1-0.2c0.1,0,0.1-0.1,0.2-0.1h3.1c0.1,0,0.1,0,0.2,0.1c0,0,0.1,0.1,0.1,0.2
						c0,0.1,0,0.1-0.1,0.2c-0.1,0-0.1,0.1-0.2,0.1h-2.8v2.8h-0.2c0.2-0.3,0.4-0.5,0.7-0.6c0.3-0.1,0.6-0.2,1-0.2
						c0.4,0,0.7,0.1,1,0.3c0.3,0.2,0.5,0.4,0.7,0.7c0.2,0.3,0.2,0.7,0.2,1.1c0,0.4-0.1,0.7-0.3,1c-0.2,0.3-0.4,0.5-0.7,0.7
						C2894.8-414.4,2894.4-414.3,2894-414.3z"/>
				</g>
				<g id="Path_293">
					<path class="st10" d="M2900.3-414.4c-0.1,0-0.2,0-0.2-0.1c-0.1-0.1-0.1-0.1-0.1-0.2v-1.2h-2.7c-0.1,0-0.2,0-0.2-0.1
						c-0.1-0.1-0.1-0.1-0.1-0.2c0-0.1,0-0.1,0-0.1c0-0.1,0.1-0.1,0.1-0.2l2.9-4.2c0-0.1,0.1-0.1,0.1-0.1c0.1,0,0.1,0,0.2,0
						c0.1,0,0.1,0,0.2,0.1c0.1,0.1,0.1,0.1,0.1,0.2v4.2h0.8c0.1,0,0.1,0,0.2,0.1c0,0,0.1,0.1,0.1,0.2c0,0.1,0,0.1-0.1,0.2
						c-0.1,0-0.1,0.1-0.2,0.1h-0.8v1.2c0,0.1,0,0.2-0.1,0.2C2900.5-414.4,2900.4-414.4,2900.3-414.4z M2900.1-416.3v-3.8h0.2l-2.7,4
						v-0.2L2900.1-416.3z"/>
				</g>
			</g>
		</g>
		<g id="Line_1" transform="translate(201 1972.6)" class="st11">
			<g id="Rectangle_14">
				<rect x="24.2" y="13" class="st12" width="1" height="429.8"/>
			</g>
		</g>
		<g id="Line_2" transform="translate(313 1972.6)" class="st11">
			<g id="Rectangle_15">
				<rect x="24.2" y="13" class="st12" width="1" height="429.8"/>
			</g>
		</g>
		<g id="Line_6" transform="translate(-2393.978 2579.928)" class="st13">
			<g id="Path_294">
				<path class="st12" d="M3198.6-406.4h-2c-0.3,0-0.5-0.2-0.5-0.5s0.2-0.5,0.5-0.5h2c0.3,0,0.5,0.2,0.5,0.5
					S3198.9-406.4,3198.6-406.4z M3191.6-406.4h-5c-0.3,0-0.5-0.2-0.5-0.5s0.2-0.5,0.5-0.5h5c0.3,0,0.5,0.2,0.5,0.5
					S3191.9-406.4,3191.6-406.4z M3181.6-406.4h-5c-0.3,0-0.5-0.2-0.5-0.5s0.2-0.5,0.5-0.5h5c0.3,0,0.5,0.2,0.5,0.5
					S3181.9-406.4,3181.6-406.4z M3171.6-406.4h-5c-0.3,0-0.5-0.2-0.5-0.5s0.2-0.5,0.5-0.5h5c0.3,0,0.5,0.2,0.5,0.5
					S3171.9-406.4,3171.6-406.4z M3161.6-406.4h-5c-0.3,0-0.5-0.2-0.5-0.5s0.2-0.5,0.5-0.5h5c0.3,0,0.5,0.2,0.5,0.5
					S3161.9-406.4,3161.6-406.4z M3151.6-406.4h-5c-0.3,0-0.5-0.2-0.5-0.5s0.2-0.5,0.5-0.5h5c0.3,0,0.5,0.2,0.5,0.5
					S3151.9-406.4,3151.6-406.4z M3141.6-406.4h-5c-0.3,0-0.5-0.2-0.5-0.5s0.2-0.5,0.5-0.5h5c0.3,0,0.5,0.2,0.5,0.5
					S3141.9-406.4,3141.6-406.4z M3131.6-406.4h-5c-0.3,0-0.5-0.2-0.5-0.5s0.2-0.5,0.5-0.5h5c0.3,0,0.5,0.2,0.5,0.5
					S3131.9-406.4,3131.6-406.4z M3121.6-406.4h-5c-0.3,0-0.5-0.2-0.5-0.5s0.2-0.5,0.5-0.5h5c0.3,0,0.5,0.2,0.5,0.5
					S3121.9-406.4,3121.6-406.4z M3111.6-406.4h-5c-0.3,0-0.5-0.2-0.5-0.5s0.2-0.5,0.5-0.5h5c0.3,0,0.5,0.2,0.5,0.5
					S3111.9-406.4,3111.6-406.4z M3101.6-406.4h-5c-0.3,0-0.5-0.2-0.5-0.5s0.2-0.5,0.5-0.5h5c0.3,0,0.5,0.2,0.5,0.5
					S3101.9-406.4,3101.6-406.4z M3091.6-406.4h-5c-0.3,0-0.5-0.2-0.5-0.5s0.2-0.5,0.5-0.5h5c0.3,0,0.5,0.2,0.5,0.5
					S3091.9-406.4,3091.6-406.4z M3081.6-406.4h-5c-0.3,0-0.5-0.2-0.5-0.5s0.2-0.5,0.5-0.5h5c0.3,0,0.5,0.2,0.5,0.5
					S3081.9-406.4,3081.6-406.4z M3071.6-406.4h-5c-0.3,0-0.5-0.2-0.5-0.5s0.2-0.5,0.5-0.5h5c0.3,0,0.5,0.2,0.5,0.5
					S3071.9-406.4,3071.6-406.4z M3061.6-406.4h-5c-0.3,0-0.5-0.2-0.5-0.5s0.2-0.5,0.5-0.5h5c0.3,0,0.5,0.2,0.5,0.5
					S3061.9-406.4,3061.6-406.4z M3051.6-406.4h-5c-0.3,0-0.5-0.2-0.5-0.5s0.2-0.5,0.5-0.5h5c0.3,0,0.5,0.2,0.5,0.5
					S3051.9-406.4,3051.6-406.4z M3041.6-406.4h-5c-0.3,0-0.5-0.2-0.5-0.5s0.2-0.5,0.5-0.5h5c0.3,0,0.5,0.2,0.5,0.5
					S3041.9-406.4,3041.6-406.4z M3031.6-406.4h-5c-0.3,0-0.5-0.2-0.5-0.5s0.2-0.5,0.5-0.5h5c0.3,0,0.5,0.2,0.5,0.5
					S3031.9-406.4,3031.6-406.4z M3021.6-406.4h-5c-0.3,0-0.5-0.2-0.5-0.5s0.2-0.5,0.5-0.5h5c0.3,0,0.5,0.2,0.5,0.5
					S3021.9-406.4,3021.6-406.4z M3011.6-406.4h-5c-0.3,0-0.5-0.2-0.5-0.5s0.2-0.5,0.5-0.5h5c0.3,0,0.5,0.2,0.5,0.5
					S3011.9-406.4,3011.6-406.4z M3001.6-406.4h-5c-0.3,0-0.5-0.2-0.5-0.5s0.2-0.5,0.5-0.5h5c0.3,0,0.5,0.2,0.5,0.5
					S3001.9-406.4,3001.6-406.4z M2991.6-406.4h-5c-0.3,0-0.5-0.2-0.5-0.5s0.2-0.5,0.5-0.5h5c0.3,0,0.5,0.2,0.5,0.5
					S2991.9-406.4,2991.6-406.4z M2981.6-406.4h-5c-0.3,0-0.5-0.2-0.5-0.5s0.2-0.5,0.5-0.5h5c0.3,0,0.5,0.2,0.5,0.5
					S2981.9-406.4,2981.6-406.4z M2971.6-406.4h-5c-0.3,0-0.5-0.2-0.5-0.5s0.2-0.5,0.5-0.5h5c0.3,0,0.5,0.2,0.5,0.5
					S2971.9-406.4,2971.6-406.4z M2961.6-406.4h-5c-0.3,0-0.5-0.2-0.5-0.5s0.2-0.5,0.5-0.5h5c0.3,0,0.5,0.2,0.5,0.5
					S2961.9-406.4,2961.6-406.4z M2951.6-406.4h-5c-0.3,0-0.5-0.2-0.5-0.5s0.2-0.5,0.5-0.5h5c0.3,0,0.5,0.2,0.5,0.5
					S2951.9-406.4,2951.6-406.4z M2941.6-406.4h-5c-0.3,0-0.5-0.2-0.5-0.5s0.2-0.5,0.5-0.5h5c0.3,0,0.5,0.2,0.5,0.5
					S2941.9-406.4,2941.6-406.4z M2931.6-406.4h-5c-0.3,0-0.5-0.2-0.5-0.5s0.2-0.5,0.5-0.5h5c0.3,0,0.5,0.2,0.5,0.5
					S2931.9-406.4,2931.6-406.4z M2921.6-406.4h-5c-0.3,0-0.5-0.2-0.5-0.5s0.2-0.5,0.5-0.5h5c0.3,0,0.5,0.2,0.5,0.5
					S2921.9-406.4,2921.6-406.4z M2911.6-406.4h-5c-0.3,0-0.5-0.2-0.5-0.5s0.2-0.5,0.5-0.5h5c0.3,0,0.5,0.2,0.5,0.5
					S2911.9-406.4,2911.6-406.4z M2901.6-406.4h-5c-0.3,0-0.5-0.2-0.5-0.5s0.2-0.5,0.5-0.5h5c0.3,0,0.5,0.2,0.5,0.5
					S2901.9-406.4,2901.6-406.4z M2891.6-406.4h-5c-0.3,0-0.5-0.2-0.5-0.5s0.2-0.5,0.5-0.5h5c0.3,0,0.5,0.2,0.5,0.5
					S2891.9-406.4,2891.6-406.4z M2881.6-406.4h-5c-0.3,0-0.5-0.2-0.5-0.5s0.2-0.5,0.5-0.5h5c0.3,0,0.5,0.2,0.5,0.5
					S2881.9-406.4,2881.6-406.4z M2871.6-406.4h-5c-0.3,0-0.5-0.2-0.5-0.5s0.2-0.5,0.5-0.5h5c0.3,0,0.5,0.2,0.5,0.5
					S2871.9-406.4,2871.6-406.4z M2861.6-406.4h-5c-0.3,0-0.5-0.2-0.5-0.5s0.2-0.5,0.5-0.5h5c0.3,0,0.5,0.2,0.5,0.5
					S2861.9-406.4,2861.6-406.4z M2851.6-406.4h-5c-0.3,0-0.5-0.2-0.5-0.5s0.2-0.5,0.5-0.5h5c0.3,0,0.5,0.2,0.5,0.5
					S2851.9-406.4,2851.6-406.4z M2841.6-406.4h-5c-0.3,0-0.5-0.2-0.5-0.5s0.2-0.5,0.5-0.5h5c0.3,0,0.5,0.2,0.5,0.5
					S2841.9-406.4,2841.6-406.4z M2831.6-406.4h-5c-0.3,0-0.5-0.2-0.5-0.5s0.2-0.5,0.5-0.5h5c0.3,0,0.5,0.2,0.5,0.5
					S2831.9-406.4,2831.6-406.4z M2821.6-406.4h-5c-0.3,0-0.5-0.2-0.5-0.5s0.2-0.5,0.5-0.5h5c0.3,0,0.5,0.2,0.5,0.5
					S2821.9-406.4,2821.6-406.4z M2811.6-406.4h-5c-0.3,0-0.5-0.2-0.5-0.5s0.2-0.5,0.5-0.5h5c0.3,0,0.5,0.2,0.5,0.5
					S2811.9-406.4,2811.6-406.4z M2801.6-406.4h-5c-0.3,0-0.5-0.2-0.5-0.5s0.2-0.5,0.5-0.5h5c0.3,0,0.5,0.2,0.5,0.5
					S2801.9-406.4,2801.6-406.4z M2791.6-406.4h-5c-0.3,0-0.5-0.2-0.5-0.5s0.2-0.5,0.5-0.5h5c0.3,0,0.5,0.2,0.5,0.5
					S2791.9-406.4,2791.6-406.4z M2781.6-406.4h-5c-0.3,0-0.5-0.2-0.5-0.5s0.2-0.5,0.5-0.5h5c0.3,0,0.5,0.2,0.5,0.5
					S2781.9-406.4,2781.6-406.4z M2771.6-406.4h-5c-0.3,0-0.5-0.2-0.5-0.5s0.2-0.5,0.5-0.5h5c0.3,0,0.5,0.2,0.5,0.5
					S2771.9-406.4,2771.6-406.4z M2761.6-406.4h-5c-0.3,0-0.5-0.2-0.5-0.5s0.2-0.5,0.5-0.5h5c0.3,0,0.5,0.2,0.5,0.5
					S2761.9-406.4,2761.6-406.4z M2751.6-406.4h-5c-0.3,0-0.5-0.2-0.5-0.5s0.2-0.5,0.5-0.5h5c0.3,0,0.5,0.2,0.5,0.5
					S2751.9-406.4,2751.6-406.4z M2741.6-406.4h-5c-0.3,0-0.5-0.2-0.5-0.5s0.2-0.5,0.5-0.5h5c0.3,0,0.5,0.2,0.5,0.5
					S2741.9-406.4,2741.6-406.4z M2731.6-406.4h-5c-0.3,0-0.5-0.2-0.5-0.5s0.2-0.5,0.5-0.5h5c0.3,0,0.5,0.2,0.5,0.5
					S2731.9-406.4,2731.6-406.4z M2721.6-406.4h-5c-0.3,0-0.5-0.2-0.5-0.5s0.2-0.5,0.5-0.5h5c0.3,0,0.5,0.2,0.5,0.5
					S2721.9-406.4,2721.6-406.4z M2711.6-406.4h-5c-0.3,0-0.5-0.2-0.5-0.5s0.2-0.5,0.5-0.5h5c0.3,0,0.5,0.2,0.5,0.5
					S2711.9-406.4,2711.6-406.4z M2701.6-406.4h-5c-0.3,0-0.5-0.2-0.5-0.5s0.2-0.5,0.5-0.5h5c0.3,0,0.5,0.2,0.5,0.5
					S2701.9-406.4,2701.6-406.4z"/>
			</g>
		</g>
		<g id="Line_7" transform="translate(-2393.978 2579.928)" class="st13">
			<g id="Path_295">
				<path class="st12" d="M3093.6-337.4h-4c-0.3,0-0.5-0.2-0.5-0.5s0.2-0.5,0.5-0.5h4c0.3,0,0.5,0.2,0.5,0.5
					S3093.9-337.4,3093.6-337.4z M3084.6-337.4h-5c-0.3,0-0.5-0.2-0.5-0.5s0.2-0.5,0.5-0.5h5c0.3,0,0.5,0.2,0.5,0.5
					S3084.9-337.4,3084.6-337.4z M3074.6-337.4h-5c-0.3,0-0.5-0.2-0.5-0.5s0.2-0.5,0.5-0.5h5c0.3,0,0.5,0.2,0.5,0.5
					S3074.9-337.4,3074.6-337.4z M3064.6-337.4h-5c-0.3,0-0.5-0.2-0.5-0.5s0.2-0.5,0.5-0.5h5c0.3,0,0.5,0.2,0.5,0.5
					S3064.9-337.4,3064.6-337.4z M3054.6-337.4h-5c-0.3,0-0.5-0.2-0.5-0.5s0.2-0.5,0.5-0.5h5c0.3,0,0.5,0.2,0.5,0.5
					S3054.9-337.4,3054.6-337.4z M3044.6-337.4h-5c-0.3,0-0.5-0.2-0.5-0.5s0.2-0.5,0.5-0.5h5c0.3,0,0.5,0.2,0.5,0.5
					S3044.9-337.4,3044.6-337.4z M3034.6-337.4h-5c-0.3,0-0.5-0.2-0.5-0.5s0.2-0.5,0.5-0.5h5c0.3,0,0.5,0.2,0.5,0.5
					S3034.9-337.4,3034.6-337.4z M3024.6-337.4h-5c-0.3,0-0.5-0.2-0.5-0.5s0.2-0.5,0.5-0.5h5c0.3,0,0.5,0.2,0.5,0.5
					S3024.9-337.4,3024.6-337.4z M3014.6-337.4h-5c-0.3,0-0.5-0.2-0.5-0.5s0.2-0.5,0.5-0.5h5c0.3,0,0.5,0.2,0.5,0.5
					S3014.9-337.4,3014.6-337.4z M3004.6-337.4h-5c-0.3,0-0.5-0.2-0.5-0.5s0.2-0.5,0.5-0.5h5c0.3,0,0.5,0.2,0.5,0.5
					S3004.9-337.4,3004.6-337.4z M2994.6-337.4h-5c-0.3,0-0.5-0.2-0.5-0.5s0.2-0.5,0.5-0.5h5c0.3,0,0.5,0.2,0.5,0.5
					S2994.9-337.4,2994.6-337.4z M2984.6-337.4h-5c-0.3,0-0.5-0.2-0.5-0.5s0.2-0.5,0.5-0.5h5c0.3,0,0.5,0.2,0.5,0.5
					S2984.9-337.4,2984.6-337.4z M2974.6-337.4h-5c-0.3,0-0.5-0.2-0.5-0.5s0.2-0.5,0.5-0.5h5c0.3,0,0.5,0.2,0.5,0.5
					S2974.9-337.4,2974.6-337.4z M2964.6-337.4h-5c-0.3,0-0.5-0.2-0.5-0.5s0.2-0.5,0.5-0.5h5c0.3,0,0.5,0.2,0.5,0.5
					S2964.9-337.4,2964.6-337.4z M2954.6-337.4h-5c-0.3,0-0.5-0.2-0.5-0.5s0.2-0.5,0.5-0.5h5c0.3,0,0.5,0.2,0.5,0.5
					S2954.9-337.4,2954.6-337.4z M2944.6-337.4h-5c-0.3,0-0.5-0.2-0.5-0.5s0.2-0.5,0.5-0.5h5c0.3,0,0.5,0.2,0.5,0.5
					S2944.9-337.4,2944.6-337.4z M2934.6-337.4h-5c-0.3,0-0.5-0.2-0.5-0.5s0.2-0.5,0.5-0.5h5c0.3,0,0.5,0.2,0.5,0.5
					S2934.9-337.4,2934.6-337.4z M2924.6-337.4h-5c-0.3,0-0.5-0.2-0.5-0.5s0.2-0.5,0.5-0.5h5c0.3,0,0.5,0.2,0.5,0.5
					S2924.9-337.4,2924.6-337.4z M2914.6-337.4h-5c-0.3,0-0.5-0.2-0.5-0.5s0.2-0.5,0.5-0.5h5c0.3,0,0.5,0.2,0.5,0.5
					S2914.9-337.4,2914.6-337.4z M2904.6-337.4h-5c-0.3,0-0.5-0.2-0.5-0.5s0.2-0.5,0.5-0.5h5c0.3,0,0.5,0.2,0.5,0.5
					S2904.9-337.4,2904.6-337.4z M2894.6-337.4h-5c-0.3,0-0.5-0.2-0.5-0.5s0.2-0.5,0.5-0.5h5c0.3,0,0.5,0.2,0.5,0.5
					S2894.9-337.4,2894.6-337.4z M2884.6-337.4h-5c-0.3,0-0.5-0.2-0.5-0.5s0.2-0.5,0.5-0.5h5c0.3,0,0.5,0.2,0.5,0.5
					S2884.9-337.4,2884.6-337.4z M2874.6-337.4h-5c-0.3,0-0.5-0.2-0.5-0.5s0.2-0.5,0.5-0.5h5c0.3,0,0.5,0.2,0.5,0.5
					S2874.9-337.4,2874.6-337.4z M2864.6-337.4h-5c-0.3,0-0.5-0.2-0.5-0.5s0.2-0.5,0.5-0.5h5c0.3,0,0.5,0.2,0.5,0.5
					S2864.9-337.4,2864.6-337.4z M2854.6-337.4h-5c-0.3,0-0.5-0.2-0.5-0.5s0.2-0.5,0.5-0.5h5c0.3,0,0.5,0.2,0.5,0.5
					S2854.9-337.4,2854.6-337.4z M2844.6-337.4h-5c-0.3,0-0.5-0.2-0.5-0.5s0.2-0.5,0.5-0.5h5c0.3,0,0.5,0.2,0.5,0.5
					S2844.9-337.4,2844.6-337.4z M2834.6-337.4h-5c-0.3,0-0.5-0.2-0.5-0.5s0.2-0.5,0.5-0.5h5c0.3,0,0.5,0.2,0.5,0.5
					S2834.9-337.4,2834.6-337.4z M2824.6-337.4h-5c-0.3,0-0.5-0.2-0.5-0.5s0.2-0.5,0.5-0.5h5c0.3,0,0.5,0.2,0.5,0.5
					S2824.9-337.4,2824.6-337.4z M2814.6-337.4h-5c-0.3,0-0.5-0.2-0.5-0.5s0.2-0.5,0.5-0.5h5c0.3,0,0.5,0.2,0.5,0.5
					S2814.9-337.4,2814.6-337.4z M2804.6-337.4h-5c-0.3,0-0.5-0.2-0.5-0.5s0.2-0.5,0.5-0.5h5c0.3,0,0.5,0.2,0.5,0.5
					S2804.9-337.4,2804.6-337.4z M2794.6-337.4h-5c-0.3,0-0.5-0.2-0.5-0.5s0.2-0.5,0.5-0.5h5c0.3,0,0.5,0.2,0.5,0.5
					S2794.9-337.4,2794.6-337.4z M2784.6-337.4h-5c-0.3,0-0.5-0.2-0.5-0.5s0.2-0.5,0.5-0.5h5c0.3,0,0.5,0.2,0.5,0.5
					S2784.9-337.4,2784.6-337.4z M2774.6-337.4h-5c-0.3,0-0.5-0.2-0.5-0.5s0.2-0.5,0.5-0.5h5c0.3,0,0.5,0.2,0.5,0.5
					S2774.9-337.4,2774.6-337.4z M2764.6-337.4h-5c-0.3,0-0.5-0.2-0.5-0.5s0.2-0.5,0.5-0.5h5c0.3,0,0.5,0.2,0.5,0.5
					S2764.9-337.4,2764.6-337.4z M2754.6-337.4h-5c-0.3,0-0.5-0.2-0.5-0.5s0.2-0.5,0.5-0.5h5c0.3,0,0.5,0.2,0.5,0.5
					S2754.9-337.4,2754.6-337.4z M2744.6-337.4h-5c-0.3,0-0.5-0.2-0.5-0.5s0.2-0.5,0.5-0.5h5c0.3,0,0.5,0.2,0.5,0.5
					S2744.9-337.4,2744.6-337.4z M2734.6-337.4h-5c-0.3,0-0.5-0.2-0.5-0.5s0.2-0.5,0.5-0.5h5c0.3,0,0.5,0.2,0.5,0.5
					S2734.9-337.4,2734.6-337.4z M2724.6-337.4h-5c-0.3,0-0.5-0.2-0.5-0.5s0.2-0.5,0.5-0.5h5c0.3,0,0.5,0.2,0.5,0.5
					S2724.9-337.4,2724.6-337.4z M2714.6-337.4h-5c-0.3,0-0.5-0.2-0.5-0.5s0.2-0.5,0.5-0.5h5c0.3,0,0.5,0.2,0.5,0.5
					S2714.9-337.4,2714.6-337.4z M2704.6-337.4h-5c-0.3,0-0.5-0.2-0.5-0.5s0.2-0.5,0.5-0.5h5c0.3,0,0.5,0.2,0.5,0.5
					S2704.9-337.4,2704.6-337.4z M2694.6-337.4h-5c-0.3,0-0.5-0.2-0.5-0.5s0.2-0.5,0.5-0.5h5c0.3,0,0.5,0.2,0.5,0.5
					S2694.9-337.4,2694.6-337.4z M2684.6-337.4h-5c-0.3,0-0.5-0.2-0.5-0.5s0.2-0.5,0.5-0.5h5c0.3,0,0.5,0.2,0.5,0.5
					S2684.9-337.4,2684.6-337.4z M2674.6-337.4h-5c-0.3,0-0.5-0.2-0.5-0.5s0.2-0.5,0.5-0.5h5c0.3,0,0.5,0.2,0.5,0.5
					S2674.9-337.4,2674.6-337.4z M2664.6-337.4h-5c-0.3,0-0.5-0.2-0.5-0.5s0.2-0.5,0.5-0.5h5c0.3,0,0.5,0.2,0.5,0.5
					S2664.9-337.4,2664.6-337.4z M2654.6-337.4h-5c-0.3,0-0.5-0.2-0.5-0.5s0.2-0.5,0.5-0.5h5c0.3,0,0.5,0.2,0.5,0.5
					S2654.9-337.4,2654.6-337.4z M2644.6-337.4h-5c-0.3,0-0.5-0.2-0.5-0.5s0.2-0.5,0.5-0.5h5c0.3,0,0.5,0.2,0.5,0.5
					S2644.9-337.4,2644.6-337.4z M2634.6-337.4h-5c-0.3,0-0.5-0.2-0.5-0.5s0.2-0.5,0.5-0.5h5c0.3,0,0.5,0.2,0.5,0.5
					S2634.9-337.4,2634.6-337.4z M2624.6-337.4h-5c-0.3,0-0.5-0.2-0.5-0.5s0.2-0.5,0.5-0.5h5c0.3,0,0.5,0.2,0.5,0.5
					S2624.9-337.4,2624.6-337.4z M2614.6-337.4h-5c-0.3,0-0.5-0.2-0.5-0.5s0.2-0.5,0.5-0.5h5c0.3,0,0.5,0.2,0.5,0.5
					S2614.9-337.4,2614.6-337.4z M2604.6-337.4h-5c-0.3,0-0.5-0.2-0.5-0.5s0.2-0.5,0.5-0.5h5c0.3,0,0.5,0.2,0.5,0.5
					S2604.9-337.4,2604.6-337.4z M2594.6-337.4h-5c-0.3,0-0.5-0.2-0.5-0.5s0.2-0.5,0.5-0.5h5c0.3,0,0.5,0.2,0.5,0.5
					S2594.9-337.4,2594.6-337.4z M2584.6-337.4h-5c-0.3,0-0.5-0.2-0.5-0.5s0.2-0.5,0.5-0.5h5c0.3,0,0.5,0.2,0.5,0.5
					S2584.9-337.4,2584.6-337.4z M2574.6-337.4h-5c-0.3,0-0.5-0.2-0.5-0.5s0.2-0.5,0.5-0.5h5c0.3,0,0.5,0.2,0.5,0.5
					S2574.9-337.4,2574.6-337.4z M2564.6-337.4h-5c-0.3,0-0.5-0.2-0.5-0.5s0.2-0.5,0.5-0.5h5c0.3,0,0.5,0.2,0.5,0.5
					S2564.9-337.4,2564.6-337.4z M2554.6-337.4h-5c-0.3,0-0.5-0.2-0.5-0.5s0.2-0.5,0.5-0.5h5c0.3,0,0.5,0.2,0.5,0.5
					S2554.9-337.4,2554.6-337.4z M2544.6-337.4h-5c-0.3,0-0.5-0.2-0.5-0.5s0.2-0.5,0.5-0.5h5c0.3,0,0.5,0.2,0.5,0.5
					S2544.9-337.4,2544.6-337.4z M2534.6-337.4h-5c-0.3,0-0.5-0.2-0.5-0.5s0.2-0.5,0.5-0.5h5c0.3,0,0.5,0.2,0.5,0.5
					S2534.9-337.4,2534.6-337.4z M2524.6-337.4h-5c-0.3,0-0.5-0.2-0.5-0.5s0.2-0.5,0.5-0.5h5c0.3,0,0.5,0.2,0.5,0.5
					S2524.9-337.4,2524.6-337.4z"/>
			</g>
		</g>
		<g id="Line_3" transform="translate(536 1972.6)" class="st11">
			<g id="Rectangle_16">
				<rect x="24.2" y="13" class="st12" width="1" height="429.8"/>
			</g>
		</g>
		<g id="Line_5" transform="translate(424 1972.6)" class="st11">
			<g id="Rectangle_17">
				<rect x="24.2" y="13" class="st12" width="1" height="429.8"/>
			</g>
		</g>
		<g id="Path_29" transform="translate(647 1972.6)" class="st11">
			<g id="Path_296">
				<path class="st12" d="M25.2,440.4h-1v-4h1V440.4z M25.2,432.4h-1v-4h1V432.4z M25.2,424.4h-1v-4h1V424.4z M25.2,416.5h-1v-4h1
					V416.5z M25.2,408.5h-1v-4h1V408.5z M25.2,400.5h-1v-4h1V400.5z M25.2,392.5h-1v-4h1V392.5z M25.2,384.5h-1v-4h1V384.5z
					 M25.2,376.5h-1v-4h1V376.5z M25.2,368.5h-1v-4h1V368.5z M25.2,360.5h-1v-4h1V360.5z M25.2,352.5h-1v-4h1V352.5z M25.2,344.5h-1
					v-4h1V344.5z M25.2,336.6h-1v-4h1V336.6z M25.2,328.6h-1v-4h1V328.6z M25.2,320.6h-1v-4h1V320.6z M25.2,312.6h-1v-4h1V312.6z
					 M25.2,304.6h-1v-4h1V304.6z M25.2,296.6h-1v-4h1V296.6z M25.2,288.6h-1v-4h1V288.6z M25.2,280.6h-1v-4h1V280.6z M25.2,272.6h-1
					v-4h1V272.6z M25.2,264.7h-1v-4h1V264.7z M25.2,256.7h-1v-4h1V256.7z M25.2,248.7h-1v-4h1V248.7z M25.2,240.7h-1v-4h1V240.7z
					 M25.2,232.7h-1v-4h1V232.7z M25.2,224.7h-1v-4h1V224.7z M25.2,216.7h-1v-4h1V216.7z M25.2,208.7h-1v-4h1V208.7z M25.2,200.7h-1
					v-4h1V200.7z M25.2,192.8h-1v-4h1V192.8z M25.2,184.8h-1v-4h1V184.8z M25.2,176.8h-1v-4h1V176.8z M25.2,168.8h-1v-4h1V168.8z
					 M25.2,160.8h-1v-4h1V160.8z M25.2,152.8h-1v-4h1V152.8z M25.2,144.8h-1v-4h1V144.8z M25.2,136.8h-1v-4h1V136.8z M25.2,128.8h-1
					v-4h1V128.8z M25.2,120.9h-1v-4h1V120.9z M25.2,112.9h-1v-4h1V112.9z M25.2,104.9h-1v-4h1V104.9z M25.2,96.9h-1v-4h1V96.9z
					 M25.2,88.9h-1v-4h1V88.9z M25.2,80.9h-1v-4h1V80.9z M25.2,72.9h-1v-4h1V72.9z M25.2,64.9h-1v-4h1V64.9z M25.2,56.9h-1v-4h1
					V56.9z M25.2,49h-1v-4h1V49z M25.2,41h-1v-4h1V41z M25.2,33h-1v-4h1V33z M25.2,25h-1v-4h1V25z M25.2,17h-1v-4h1V17z"/>
			</g>
		</g>
		<g id="Ellipse_1" transform="translate(-2393.978 2579.928)" class="st13">
			<g id="Group_32">
				<g id="Ellipse_8">
					<circle class="st14" cx="3071.6" cy="-374.9" r="140.5"/>
				</g>
			</g>
			<g id="Group_33">
				<g id="Path_297">
					<path class="st12" d="M3071.6-234.4c-1.7,0-3.4,0-5-0.1l0-1c1.6,0.1,3.3,0.1,5,0.1V-234.4z M3076.6-234.5l0-1
						c1.6-0.1,3.3-0.1,5-0.3l0.1,1C3080-234.6,3078.3-234.6,3076.6-234.5L3076.6-234.5z M3061.6-234.8c-1.6-0.1-3.3-0.3-5-0.4l0.1-1
						c1.7,0.2,3.3,0.3,5,0.4L3061.6-234.8z M3086.6-235.2l-0.1-1c1.6-0.2,3.3-0.4,4.9-0.6l0.1,1
						C3090-235.6,3088.3-235.4,3086.6-235.2z M3051.6-235.8c-1.7-0.2-3.3-0.5-5-0.8l0.2-1c1.6,0.3,3.3,0.6,4.9,0.8L3051.6-235.8z
						 M3096.6-236.6l-0.2-1c1.6-0.3,3.3-0.6,4.9-1l0.2,1C3099.8-237.2,3098.2-236.9,3096.6-236.6L3096.6-236.6z M3041.7-237.6
						c-1.6-0.3-3.2-0.7-4.9-1.1l0.2-1c1.6,0.4,3.3,0.8,4.8,1.1L3041.7-237.6z M3106.4-238.7l-0.2-1c1.6-0.4,3.2-0.9,4.8-1.3l0.3,1
						C3109.6-239.6,3108-239.1,3106.4-238.7L3106.4-238.7z M3032-240.1c-1.6-0.5-3.2-1-4.8-1.5l0.3-0.9c1.6,0.5,3.2,1,4.8,1.5
						L3032-240.1z M3116-241.6l-0.3-0.9c1.6-0.5,3.2-1.1,4.7-1.7l0.4,0.9C3119.2-242.6,3117.6-242.1,3116-241.6L3116-241.6z
						 M3022.5-243.3c-1.6-0.6-3.1-1.2-4.7-1.8l0.4-0.9c1.5,0.6,3.1,1.3,4.6,1.8L3022.5-243.3z M3125.4-245.1l-0.4-0.9
						c1.5-0.6,3-1.3,4.6-2l0.4,0.9C3128.5-246.4,3126.9-245.7,3125.4-245.1L3125.4-245.1z M3013.2-247.1c-1.5-0.7-3-1.4-4.5-2.2
						l0.4-0.9c1.5,0.7,3,1.5,4.5,2.2L3013.2-247.1z M3134.5-249.2l-0.4-0.9c1.5-0.7,3-1.5,4.4-2.3l0.5,0.9
						C3137.5-250.7,3136-250,3134.5-249.2L3134.5-249.2z M3004.2-251.6c-1.5-0.8-2.9-1.6-4.4-2.5l0.5-0.9c1.4,0.8,2.9,1.7,4.3,2.5
						L3004.2-251.6z M3143.3-254l-0.5-0.9c1.4-0.8,2.8-1.7,4.2-2.6l0.5,0.8C3146.1-255.7,3144.7-254.9,3143.3-254L3143.3-254z
						 M2995.6-256.8c-1.4-0.9-2.8-1.9-4.2-2.8l0.6-0.8c1.4,0.9,2.7,1.9,4.1,2.8L2995.6-256.8z M3151.7-259.4l-0.6-0.8
						c1.4-0.9,2.7-1.9,4-2.9l0.6,0.8C3154.4-261.4,3153.1-260.4,3151.7-259.4L3151.7-259.4z M2987.4-262.5c-1.3-1-2.7-2-4-3.1
						l0.6-0.8c1.3,1,2.6,2.1,3.9,3.1L2987.4-262.5z M3159.7-265.4l-0.6-0.8c1.3-1,2.6-2.1,3.8-3.2l0.7,0.8
						C3162.3-267.6,3161-266.5,3159.7-265.4L3159.7-265.4z M2979.5-268.8c-1.3-1.1-2.5-2.2-3.7-3.4l0.7-0.7c1.2,1.1,2.5,2.2,3.7,3.3
						L2979.5-268.8z M3167.3-272l-0.7-0.7c1.2-1.1,2.4-2.3,3.6-3.5l0.7,0.7C3169.7-274.3,3168.5-273.1,3167.3-272L3167.3-272z
						 M2972.2-275.6c-1.2-1.2-2.3-2.4-3.5-3.6l0.7-0.7c1.1,1.2,2.3,2.4,3.5,3.6L2972.2-275.6z M3174.4-279.1l-0.7-0.7
						c1.1-1.2,2.2-2.4,3.3-3.7l0.8,0.7C3176.7-281.6,3175.5-280.3,3174.4-279.1L3174.4-279.1z M2965.4-283c-1.1-1.3-2.2-2.6-3.2-3.8
						l0.8-0.6c1,1.3,2.1,2.6,3.2,3.8L2965.4-283z M3181-286.7l-0.8-0.6c1-1.3,2.1-2.6,3.1-3.9l0.8,0.6
						C3183.1-289.3,3182-288,3181-286.7L3181-286.7z M2959.1-290.8c-1-1.3-2-2.7-2.9-4.1l0.8-0.6c0.9,1.4,1.9,2.7,2.9,4
						L2959.1-290.8z M3187-294.7l-0.8-0.6c0.9-1.4,1.9-2.7,2.8-4.1l0.8,0.5C3188.9-297.5,3188-296.1,3187-294.7L3187-294.7z
						 M2953.4-299c-0.9-1.4-1.8-2.8-2.6-4.3l0.9-0.5c0.8,1.4,1.7,2.8,2.6,4.2L2953.4-299z M3192.5-303.1l-0.9-0.5
						c0.8-1.4,1.7-2.9,2.5-4.3l0.9,0.5C3194.1-306,3193.3-304.6,3192.5-303.1L3192.5-303.1z M2948.3-307.6c-0.8-1.4-1.6-2.9-2.3-4.4
						l0.9-0.4c0.7,1.5,1.5,3,2.3,4.4L2948.3-307.6z M3197.3-311.9l-0.9-0.4c0.7-1.5,1.5-3,2.2-4.5l0.9,0.4
						C3198.8-315,3198-313.4,3197.3-311.9L3197.3-311.9z M2943.8-316.6c-0.7-1.5-1.4-3.1-2-4.6l0.9-0.4c0.6,1.5,1.3,3.1,2,4.6
						L2943.8-316.6z M3201.5-321.1l-0.9-0.4c0.6-1.5,1.3-3.1,1.8-4.6l0.9,0.4C3202.7-324.2,3202.1-322.6,3201.5-321.1L3201.5-321.1z
						 M2939.9-325.8c-0.6-1.6-1.1-3.1-1.7-4.7l0.9-0.3c0.5,1.6,1.1,3.1,1.7,4.7L2939.9-325.8z M3205-330.5l-0.9-0.3
						c0.5-1.6,1-3.2,1.5-4.8l1,0.3C3206-333.7,3205.5-332.1,3205-330.5L3205-330.5z M2936.8-335.4c-0.5-1.6-0.9-3.2-1.3-4.8l1-0.2
						c0.4,1.6,0.8,3.2,1.3,4.8L2936.8-335.4z M3207.8-340.1l-1-0.2c0.4-1.6,0.8-3.2,1.1-4.8l1,0.2
						C3208.6-343.4,3208.2-341.8,3207.8-340.1L3207.8-340.1z M2934.3-345.1c-0.4-1.6-0.7-3.3-1-4.9l1-0.2c0.3,1.6,0.6,3.3,1,4.9
						L2934.3-345.1z M3209.9-349.9l-1-0.2c0.3-1.6,0.6-3.3,0.8-4.9l1,0.1C3210.5-353.2,3210.2-351.6,3209.9-349.9L3209.9-349.9z
						 M2932.6-355c-0.2-1.6-0.4-3.3-0.6-5l1-0.1c0.2,1.6,0.4,3.3,0.6,4.9L2932.6-355z M3211.4-359.9l-1-0.1c0.2-1.6,0.3-3.3,0.4-5
						l1,0.1C3211.7-363.2,3211.5-361.5,3211.4-359.9L3211.4-359.9z M2931.5-364.9c-0.1-1.7-0.2-3.3-0.3-5l1,0c0.1,1.7,0.1,3.3,0.3,5
						L2931.5-364.9z M3212.1-369.9l-1,0c0.1-1.6,0.1-3.3,0.1-5h1C3212.1-373.2,3212.1-371.5,3212.1-369.9L3212.1-369.9z M2932.1-375
						h-1c0-1.7,0-3.4,0.1-5l1,0C2932.2-378.3,2932.1-376.6,2932.1-375L2932.1-375z M3211.1-379.9c-0.1-1.6-0.1-3.3-0.3-5l1-0.1
						c0.1,1.7,0.2,3.3,0.3,5L3211.1-379.9z M2932.5-384.9l-1-0.1c0.1-1.7,0.3-3.3,0.4-5l1,0.1
						C2932.8-388.2,2932.6-386.6,2932.5-384.9L2932.5-384.9z M3210.4-389.8c-0.2-1.6-0.4-3.3-0.6-4.9l1-0.1c0.2,1.6,0.4,3.3,0.6,5
						L3210.4-389.8z M2933.6-394.8l-1-0.1c0.2-1.7,0.5-3.3,0.8-5l1,0.2C2934.1-398.1,2933.8-396.5,2933.6-394.8L2933.6-394.8z
						 M3209-399.7c-0.3-1.6-0.6-3.3-1-4.9l1-0.2c0.4,1.6,0.7,3.3,1,4.9L3209-399.7z M2935.3-404.6l-1-0.2c0.4-1.6,0.7-3.3,1.2-4.9
						l1,0.2C2936.1-407.9,2935.7-406.2,2935.3-404.6L2935.3-404.6z M3206.9-409.4c-0.4-1.6-0.9-3.2-1.3-4.8l1-0.3
						c0.5,1.6,0.9,3.2,1.3,4.8L3206.9-409.4z M2937.8-414.3l-1-0.3c0.5-1.6,1-3.2,1.5-4.8l0.9,0.3
						C2938.7-417.5,2938.2-415.9,2937.8-414.3L2937.8-414.3z M3204.1-419c-0.5-1.6-1.1-3.1-1.7-4.7l0.9-0.3c0.6,1.6,1.1,3.1,1.7,4.7
						L3204.1-419z M2940.9-423.7l-0.9-0.4c0.6-1.6,1.2-3.1,1.8-4.7l0.9,0.4C2942.1-426.9,2941.5-425.3,2940.9-423.7L2940.9-423.7z
						 M3200.6-428.3c-0.6-1.5-1.3-3.1-2-4.6l0.9-0.4c0.7,1.5,1.4,3.1,2,4.6L3200.6-428.3z M2944.8-433l-0.9-0.4
						c0.7-1.5,1.4-3,2.2-4.5l0.9,0.4C2946.2-436,2945.4-434.5,2944.8-433L2944.8-433z M3196.4-437.3c-0.7-1.5-1.5-3-2.3-4.4l0.9-0.5
						c0.8,1.5,1.6,3,2.3,4.4L3196.4-437.3z M2949.2-441.9l-0.9-0.5c0.8-1.5,1.6-2.9,2.5-4.4l0.9,0.5
						C2950.9-444.8,2950-443.3,2949.2-441.9L2949.2-441.9z M3191.7-446c-0.8-1.4-1.7-2.8-2.6-4.2l0.8-0.5c0.9,1.4,1.8,2.8,2.6,4.3
						L3191.7-446z M2954.3-450.4l-0.8-0.5c0.9-1.4,1.9-2.8,2.8-4.2l0.8,0.6C2956.2-453.2,2955.2-451.8,2954.3-450.4L2954.3-450.4z
						 M3186.3-454.4c-0.9-1.4-1.9-2.7-2.9-4l0.8-0.6c1,1.3,2,2.7,2.9,4.1L3186.3-454.4z M2960-458.6l-0.8-0.6c1-1.3,2-2.7,3.1-4
						l0.8,0.6C2962.1-461.3,2961-459.9,2960-458.6L2960-458.6z M3180.3-462.4c-1-1.3-2.1-2.6-3.2-3.8l0.8-0.7
						c1.1,1.3,2.2,2.5,3.2,3.8L3180.3-462.4z M2966.3-466.4l-0.8-0.7c1.1-1.3,2.2-2.5,3.4-3.7l0.7,0.7
						C2968.5-468.9,2967.4-467.6,2966.3-466.4L2966.3-466.4z M3173.8-469.9c-1.1-1.2-2.3-2.4-3.5-3.6l0.7-0.7
						c1.2,1.2,2.3,2.4,3.5,3.6L3173.8-469.9z M2973.1-473.6l-0.7-0.7c1.2-1.2,2.4-2.4,3.6-3.5l0.7,0.7
						C2975.5-476,2974.3-474.8,2973.1-473.6L2973.1-473.6z M3166.8-476.9c-1.2-1.1-2.5-2.3-3.7-3.3l0.7-0.8c1.3,1.1,2.5,2.2,3.7,3.4
						L3166.8-476.9z M2980.4-480.4l-0.7-0.8c1.3-1.1,2.6-2.2,3.8-3.2l0.6,0.8C2982.9-482.6,2981.7-481.5,2980.4-480.4L2980.4-480.4z
						 M3159.3-483.5c-1.3-1-2.6-2.1-3.9-3.1l0.6-0.8c1.3,1,2.7,2,4,3.1L3159.3-483.5z M2988.2-486.7l-0.6-0.8c1.3-1,2.7-2,4.1-2.9
						l0.6,0.8C2990.8-488.6,2989.5-487.7,2988.2-486.7L2988.2-486.7z M3151.3-489.5c-1.4-0.9-2.8-1.9-4.1-2.8l0.5-0.8
						c1.4,0.9,2.8,1.8,4.2,2.8L3151.3-489.5z M2996.3-492.3l-0.5-0.8c1.4-0.9,2.8-1.8,4.3-2.6l0.5,0.9
						C2999.1-494.1,2997.7-493.2,2996.3-492.3L2996.3-492.3z M3142.9-494.9c-1.4-0.9-2.9-1.7-4.3-2.5l0.5-0.9
						c1.5,0.8,2.9,1.6,4.4,2.5L3142.9-494.9z M3004.9-497.4l-0.5-0.9c1.5-0.8,3-1.6,4.4-2.3l0.4,0.9
						C3007.8-499,3006.3-498.2,3004.9-497.4L3004.9-497.4z M3134.1-499.7c-1.5-0.7-3-1.5-4.5-2.2l0.4-0.9c1.5,0.7,3,1.4,4.5,2.2
						L3134.1-499.7z M3013.8-501.9l-0.4-0.9c1.5-0.7,3-1.4,4.6-2l0.4,0.9C3016.8-503.2,3015.3-502.5,3013.8-501.9L3013.8-501.9z
						 M3125.1-503.8c-1.5-0.6-3.1-1.2-4.6-1.8l0.3-0.9c1.6,0.6,3.1,1.2,4.7,1.8L3125.1-503.8z M3023-505.7l-0.4-0.9
						c1.6-0.6,3.2-1.1,4.7-1.7l0.3,0.9C3026.1-506.8,3024.5-506.3,3023-505.7L3023-505.7z M3115.7-507.3c-1.6-0.5-3.2-1-4.8-1.5
						l0.3-1c1.6,0.5,3.2,1,4.8,1.5L3115.7-507.3z M3032.4-508.8l-0.3-1c1.6-0.5,3.2-0.9,4.8-1.3l0.2,1
						C3035.6-509.7,3034-509.3,3032.4-508.8L3032.4-508.8z M3106.2-510.1c-1.6-0.4-3.2-0.8-4.8-1.1l0.2-1c1.6,0.4,3.3,0.7,4.9,1.1
						L3106.2-510.1z M3042.1-511.3l-0.2-1c1.6-0.3,3.3-0.7,4.9-1l0.2,1C3045.3-511.9,3043.7-511.6,3042.1-511.3L3042.1-511.3z
						 M3096.4-512.2c-1.6-0.3-3.3-0.6-4.9-0.8l0.1-1c1.6,0.2,3.3,0.5,5,0.8L3096.4-512.2z M3051.9-513l-0.1-1c1.7-0.2,3.3-0.4,5-0.6
						l0.1,1C3055.2-513.5,3053.5-513.3,3051.9-513L3051.9-513z M3086.6-513.6c-1.6-0.2-3.3-0.3-5-0.4l0.1-1c1.7,0.1,3.3,0.3,5,0.4
						L3086.6-513.6z M3061.8-514.1l-0.1-1c1.7-0.1,3.3-0.2,5-0.3l0,1C3065.1-514.3,3063.4-514.2,3061.8-514.1L3061.8-514.1z
						 M3076.6-514.3c-1.6-0.1-3.3-0.1-5-0.1v-1c1.7,0,3.4,0,5,0.1L3076.6-514.3z"/>
				</g>
			</g>
		</g>
	</g>
	<g class="st15">
		<path class="st16" d="M149.8,2129h-9.5v-78.7h-19.7v-1.1h49v1.1h-19.8V2129z"/>
		<path class="st16" d="M223.2,2129c-3.1,0-5.5-0.7-7.1-2.1c-1.6-1.4-2.5-2.7-2.6-4.1l-0.1-1.9v-35.8c0-6-1.6-9.8-4.8-11.5
			c-1.5-0.8-3.5-1.1-5.8-1.1c-4.7,0-8.9,1.9-12.7,5.8c-3.8,3.8-5.6,7.3-5.6,10.3v40.5h-8v-85.4h8v41.4c1.2-3.3,3.5-6.3,7-9.2
			c3.4-2.8,7.3-4.3,11.5-4.3c7.4,0,12.3,1.3,14.8,3.8c2.5,2.5,3.7,5.8,3.7,9.9v35.7c0,2.2,0.4,3.9,1.3,5.1c0.9,1.2,1.7,1.8,2.6,1.9
			l1.4,0.2h3.5v0.9H223.2z"/>
		<path class="st16" d="M244.2,2101.2c0,9.4,1.7,16.3,5,20.7c3.3,4.4,7.7,6.6,13.1,6.6c7.6,0,14.4-1.1,20.3-3.4l0.3,0.8
			c-6.1,2.4-12.9,3.5-20.6,3.5c-7.6,0-13.9-2.3-18.6-6.8c-4.8-4.6-7.2-11.6-7.2-21.1c0-9.5,2.5-16.9,7.5-22.1s11.4-7.9,19.2-7.9
			c6.2,0,11.5,1.9,15.7,5.6c4.3,3.7,6.4,9.2,6.4,16.5c0,0.4,0,0.8,0,1.1h-40.7C244.3,2096.9,244.2,2099,244.2,2101.2z M273.2,2077.7
			c-2.7-3.5-6.3-5.2-10.6-5.2s-8.2,1.9-11.6,5.7c-3.4,3.8-5.5,9-6.4,15.7h32.8C277.4,2086.6,276,2081.2,273.2,2077.7z"/>
	</g>
	<g class="st15">
		<path class="st16" d="M134.3,2162.3c3.3-0.2,6.6-0.2,9.9-0.2c3.2,0,6.6,0.3,10.3,1c3.6,0.7,7.2,2,10.7,3.8c3.5,1.9,6.5,4.3,9,7.2
			c2.5,2.9,4.5,6.8,6,11.6c1.5,4.8,2.3,10.6,2.3,17.4s-1.1,13-3.4,18.4c-2.2,5.4-5.3,9.6-9.2,12.5c-7.5,5.6-16.6,8.4-27.2,8.4
			c-3.7,0-7.6-0.2-11.7-0.5h-5.7v-79.7H134.3z M134.6,2241.1c1.6,0.2,3.6,0.2,6,0.2c2.4,0,4.3,0,5.5-0.1c1.2-0.1,2.9-0.4,5-1
			c2.1-0.6,4.1-1.3,5.9-2.3c1.8-1,3.7-2.5,5.8-4.4c2-1.9,3.7-4.2,5.2-6.9c3.3-6.2,4.9-14.4,4.9-24.4c0-7.1-0.9-13.3-2.6-18.5
			c-1.7-5.2-3.7-9.1-6-11.6c-2.2-2.5-5-4.5-8.2-6c-3.2-1.5-5.7-2.3-7.6-2.6c-1.9-0.2-4.1-0.3-6.6-0.3c-2.5,0-4.9,0.1-7.3,0.3V2241.1
			z"/>
		<path class="st16" d="M199.2,2214.2c0,9.4,1.7,16.3,5,20.7c3.3,4.4,7.7,6.6,13.1,6.6c7.6,0,14.4-1.1,20.3-3.4l0.3,0.8
			c-6.1,2.4-12.9,3.5-20.6,3.5c-7.6,0-13.9-2.3-18.6-6.8c-4.8-4.6-7.2-11.6-7.2-21.1c0-9.5,2.5-16.9,7.5-22.1s11.4-7.9,19.2-7.9
			c6.2,0,11.5,1.9,15.7,5.6c4.3,3.7,6.4,9.2,6.4,16.5c0,0.4,0,0.8,0,1.1h-40.7C199.4,2209.9,199.2,2212,199.2,2214.2z M228.3,2190.7
			c-2.7-3.5-6.3-5.2-10.6-5.2c-4.3,0-8.2,1.9-11.6,5.7c-3.4,3.8-5.5,9-6.4,15.7h32.8C232.5,2199.6,231.1,2194.2,228.3,2190.7z"/>
		<path class="st16" d="M281.7,2189c-1.2-1-3.2-1.8-5.9-2.5c-2.7-0.7-4.7-1-6.1-1s-2.2,0-2.4,0c-4.1,0.1-7.1,1.1-8.9,3.1
			c-1.8,2-2.7,4.3-2.7,6.8s0.8,4.6,2.4,6.3c1.6,1.7,3.6,3,6,4c2.4,1,5,2,7.8,3.2c2.8,1.2,5.4,2.5,7.8,3.7c2.4,1.3,4.4,3.1,6,5.5
			c1.6,2.4,2.4,5.4,2.4,8.9s-1.3,6.6-3.8,9.1c-2.5,2.5-5.3,4.2-8.4,5c-3.1,0.8-6.4,1.3-10,1.3c-7.8,0-13.6-1.7-17.4-5.1l0.7-0.7
			c1.5,1.4,3.8,2.6,6.8,3.5c3,0.9,5.9,1.4,8.7,1.4c4.5,0,8.2-1.2,11.1-3.7c2.9-2.5,4.4-5.5,4.4-9.2s-1.1-6.7-3.3-8.9
			c-2.2-2.2-4.9-4-8-5.2c-3.2-1.3-6.3-2.5-9.5-3.8c-3.2-1.3-5.9-3-8.1-5.2c-2.2-2.2-3.3-4.8-3.3-7.8c0-3,0.7-5.4,2.1-7.2
			c1.4-1.9,3.2-3.2,5.5-3.9c3.9-1.3,7.8-1.9,11.6-1.9c6.5,0,11.6,1.2,15.3,3.6L281.7,2189z"/>
		<path class="st16" d="M296.7,2172.3c-0.9-0.9-1.4-2.1-1.4-3.4c0-1.4,0.5-2.5,1.4-3.5c0.9-0.9,2.1-1.4,3.4-1.4s2.5,0.5,3.5,1.4
			c0.9,1,1.4,2.1,1.4,3.5c0,1.4-0.5,2.5-1.4,3.4c-1,0.9-2.1,1.4-3.5,1.4S297.6,2173.2,296.7,2172.3z M305.8,2242
			c-3.1,0-5.5-0.7-7.1-2.1c-1.6-1.4-2.5-2.7-2.6-4.1l-0.1-1.9V2185h8v48.9c0,2.2,0.4,3.9,1.3,5.1c0.9,1.2,1.7,1.8,2.6,1.9l1.4,0.2
			h3.5v0.9H305.8z"/>
		<path class="st16" d="M319.1,2215.6c0-9.9,2.4-17.5,7.2-22.9c4.8-5.4,12-8.1,21.5-8.1c7.1,0,14.3,1.3,21.5,3.8v55.1
			c-0.1,18.1-8,27.1-23.7,27.1c-8.7,0-16.1-2.8-22.2-8.4l0.8-0.7c6.5,5.5,13.7,8.2,21.4,8.2c10.5,0,15.7-8.7,15.7-26.2v-11.3
			c-1.4,2.7-3.8,5-7.2,7.1c-3.3,2.1-7.3,3.1-11.9,3.1C326.8,2241.9,319.1,2233,319.1,2215.6z M342.4,2241.3c5.1,0,9.5-1.4,13.1-4.1
			c3.6-2.7,5.6-5.4,5.8-8.1v-40.2c-5.5-2.3-10.1-3.4-13.9-3.4c-6.8,0-11.9,2.6-15.3,7.9c-3.4,5.3-5.1,12.7-5.1,22.2
			C327,2232.7,332.2,2241.3,342.4,2241.3z"/>
		<path class="st16" d="M430.9,2242c-3.1,0-5.5-0.7-7.1-2.1c-1.6-1.4-2.5-2.7-2.6-4.1l-0.1-1.9v-35.8c0-6-1.6-9.8-4.7-11.5
			c-1.6-0.8-3.6-1.1-5.9-1.1c-4.9,0-9.2,1.9-13.1,5.8c-3.9,3.8-5.8,7.3-5.8,10.3v40.5h-8v-57h8v13c1.3-3.3,3.7-6.3,7.2-9.2
			c3.5-2.8,7.3-4.3,11.5-4.3c4.2,0,7.6,0.4,10.2,1.2c2.6,0.8,4.5,1.9,5.8,3.4c1.9,2.4,2.8,5.4,2.8,9.1v35.7c0,2.2,0.4,3.9,1.3,5.1
			c0.9,1.2,1.8,1.8,2.7,1.9l1.3,0.2h3.5v0.9H430.9z"/>
	</g>
	<g class="st15">
		<path class="st16" d="M125.1,2276.1c8.8-0.6,16.6-0.9,23.3-0.9c18.8,0,28.3,6.7,28.3,20c0,6.2-1.6,11.6-4.8,16.2
			c-1.7,2.5-4.3,4.5-7.8,6c-3.5,1.5-7.7,2.2-12.7,2.2h-16.9v35.5h-9.5V2276.1z M148.5,2276.4c-4.4,0-9,0.3-13.9,0.8v41.3h16.9
			c10.7-0.5,16.1-8.1,16.1-23c0-6.1-1.6-10.8-4.8-14.1S154.8,2276.4,148.5,2276.4z"/>
		<path class="st16" d="M207.6,2302.9v-2.4c-3.4,1.4-6.5,4.1-9.3,8.3c-2.8,4.1-4.3,8-4.4,11.7v34.5h-8v-57h8v18.1
			c1.2-4.4,3.5-8.6,7-12.5c3.4-3.9,7.3-5.9,11.6-6.1h0.5c1.5,0,2.8,0.5,3.8,1.5c1,1,1.5,2.3,1.5,3.8s-0.5,2.8-1.5,3.8
			s-2.3,1.5-3.8,1.5c-1.5,0-2.8-0.5-3.8-1.5C208.1,2305.7,207.6,2304.4,207.6,2302.9z"/>
		<path class="st16" d="M249.2,2355.5c-8,0-14.5-2.3-19.6-6.8s-7.5-11.6-7.5-21.1c0-9.5,2.6-16.9,7.8-22.1
			c5.2-5.2,11.8-7.9,19.8-7.9c8,0,14.5,2.3,19.6,6.8c5,4.6,7.5,11.6,7.5,21.1c0,9.5-2.6,16.9-7.8,22.1
			C263.9,2352.9,257.3,2355.5,249.2,2355.5z M250,2298.5c-5.8,0-10.6,2.6-14.4,7.7c-3.8,5.1-5.7,12.3-5.7,21.4
			c0,9.2,1.7,15.9,5.2,20.3c3.5,4.4,8.1,6.6,13.9,6.6c5.8,0,10.6-2.6,14.4-7.7c3.8-5.1,5.7-12.3,5.7-21.4c0-9.2-1.7-15.9-5.2-20.3
			C260.4,2300.7,255.8,2298.5,250,2298.5z"/>
		<path class="st16" d="M312.7,2298.5c-5.4,0-9.9,2.6-13.5,7.8c-3.6,5.2-5.4,12.3-5.4,21.4c0,9.1,1.7,15.9,5,20.3
			c3.3,4.4,7.7,6.6,13.1,6.6c6.8,0,12.8-1.1,18-3.4l0.3,0.8c-5.4,2.4-11.7,3.5-18.9,3.5c-7.2,0-13.2-2.3-18-6.8s-7.2-11.6-7.2-21.1
			c0-9.5,2.5-16.9,7.5-22.1s11.4-7.9,19.2-7.9c4.3,0,8.3,1,12,3c3.7,2,6.4,5,8.2,9h-7.3c-1.1-3.7-2.9-6.5-5.2-8.3
			C318.1,2299.4,315.5,2298.5,312.7,2298.5z"/>
		<path class="st16" d="M347.4,2327.2c0,9.4,1.7,16.3,5,20.7c3.3,4.4,7.7,6.6,13.1,6.6c7.6,0,14.4-1.1,20.3-3.4l0.3,0.8
			c-6.1,2.4-12.9,3.5-20.6,3.5s-13.9-2.3-18.6-6.8s-7.2-11.6-7.2-21.1c0-9.5,2.5-16.9,7.5-22.1s11.4-7.9,19.2-7.9
			c6.2,0,11.5,1.9,15.7,5.6c4.3,3.7,6.4,9.2,6.4,16.5c0,0.4,0,0.8,0,1.1h-40.7C347.6,2322.9,347.4,2325,347.4,2327.2z M376.5,2303.7
			c-2.7-3.5-6.3-5.2-10.6-5.2s-8.2,1.9-11.6,5.7c-3.4,3.8-5.5,9-6.4,15.7h32.8C380.7,2312.6,379.3,2307.2,376.5,2303.7z"/>
		<path class="st16" d="M429.9,2302c-1.2-1-3.2-1.8-5.9-2.5c-2.7-0.7-4.7-1-6.1-1s-2.2,0-2.4,0c-4.1,0.1-7.1,1.1-8.9,3.1
			c-1.8,2-2.7,4.3-2.7,6.8s0.8,4.6,2.4,6.3c1.6,1.7,3.6,3,6,4c2.4,1,5,2,7.8,3.2c2.8,1.2,5.4,2.5,7.8,3.7c2.4,1.3,4.4,3.1,6,5.5
			c1.6,2.4,2.4,5.4,2.4,8.9s-1.3,6.6-3.8,9.1c-2.5,2.5-5.3,4.2-8.4,5c-3.1,0.8-6.4,1.3-10,1.3c-7.8,0-13.6-1.7-17.4-5.1l0.7-0.7
			c1.5,1.4,3.8,2.6,6.8,3.5c3,0.9,5.9,1.4,8.7,1.4c4.5,0,8.2-1.2,11.1-3.7c2.9-2.5,4.4-5.5,4.4-9.2s-1.1-6.7-3.3-8.9
			c-2.2-2.2-4.9-4-8-5.2c-3.2-1.3-6.3-2.5-9.5-3.8c-3.2-1.3-5.9-3-8.1-5.2c-2.2-2.2-3.3-4.8-3.3-7.8c0-3,0.7-5.4,2.1-7.2
			c1.4-1.9,3.2-3.2,5.5-3.9c3.9-1.3,7.8-1.9,11.6-1.9c6.5,0,11.6,1.2,15.3,3.6L429.9,2302z"/>
		<path class="st16" d="M476.8,2302c-1.2-1-3.2-1.8-5.9-2.5c-2.7-0.7-4.7-1-6.1-1s-2.2,0-2.4,0c-4.1,0.1-7.1,1.1-8.9,3.1
			c-1.8,2-2.7,4.3-2.7,6.8s0.8,4.6,2.4,6.3c1.6,1.7,3.6,3,6,4c2.4,1,5,2,7.8,3.2c2.8,1.2,5.4,2.5,7.8,3.7c2.4,1.3,4.4,3.1,6,5.5
			c1.6,2.4,2.4,5.4,2.4,8.9s-1.3,6.6-3.8,9.1c-2.5,2.5-5.3,4.2-8.4,5c-3.1,0.8-6.4,1.3-10,1.3c-7.8,0-13.6-1.7-17.4-5.1l0.7-0.7
			c1.5,1.4,3.8,2.6,6.8,3.5c3,0.9,5.9,1.4,8.7,1.4c4.5,0,8.2-1.2,11.1-3.7c2.9-2.5,4.4-5.5,4.4-9.2s-1.1-6.7-3.3-8.9
			c-2.2-2.2-4.9-4-8-5.2c-3.2-1.3-6.3-2.5-9.5-3.8c-3.2-1.3-5.9-3-8.1-5.2c-2.2-2.2-3.3-4.8-3.3-7.8c0-3,0.7-5.4,2.1-7.2
			c1.4-1.9,3.2-3.2,5.5-3.9c3.9-1.3,7.8-1.9,11.6-1.9c6.5,0,11.6,1.2,15.3,3.6L476.8,2302z"/>
	</g>
</g>
</svg>
